<?xml version="1.0" encoding="UTF-8" standalone="no"?>
<!-- Created with Inkscape (http://www.inkscape.org/) -->

<svg
   xmlns:dc="http://purl.org/dc/elements/1.1/"
   xmlns:cc="http://creativecommons.org/ns#"
   xmlns:rdf="http://www.w3.org/1999/02/22-rdf-syntax-ns#"
   xmlns:svg="http://www.w3.org/2000/svg"
   xmlns="http://www.w3.org/2000/svg"
   xmlns:xlink="http://www.w3.org/1999/xlink"
   xmlns:sodipodi="http://sodipodi.sourceforge.net/DTD/sodipodi-0.dtd"
   xmlns:inkscape="http://www.inkscape.org/namespaces/inkscape"
   width="744.09448819"
   height="1052.3622047"
   id="svg2"
   version="1.1"
   inkscape:version="0.48.4 r9939"
   sodipodi:docname="map-inkscape.svg">
  <defs
     id="defs4" />
  <sodipodi:namedview
     id="base"
     pagecolor="#ffffff"
     bordercolor="#666666"
     borderopacity="1.0"
     inkscape:pageopacity="0.0"
     inkscape:pageshadow="2"
     inkscape:zoom="4.3711187"
     inkscape:cx="563.64756"
     inkscape:cy="687.10823"
     inkscape:document-units="px"
     inkscape:current-layer="layer1"
     showgrid="false"
     inkscape:window-width="1362"
     inkscape:window-height="749"
     inkscape:window-x="0"
     inkscape:window-y="15"
     inkscape:window-maximized="0"
     showguides="true"
     inkscape:guide-bbox="true" />
  <metadata
     id="metadata7">
    <rdf:RDF>
      <cc:Work
         rdf:about="">
        <dc:format>image/svg+xml</dc:format>
        <dc:type
           rdf:resource="http://purl.org/dc/dcmitype/StillImage" />
        <dc:title />
      </cc:Work>
    </rdf:RDF>
  </metadata>
  <g
     inkscape:label="Layer 1"
     inkscape:groupmode="layer"
     id="layer1">
    <image
       y="73.750374"
       x="1.0560691"
       id="image3857"
       xlink:href="file:///home/schatten/src/cartos/assets/india-political-map.gif"
       height="841.45605"
       width="749.44135"
       style="fill:#00566f;fill-opacity:1;stroke:#000000;stroke-opacity:1" />
    <path
       style="fill:#0c6600;fill-opacity:1;stroke:#000000;stroke-width:0.4163563;stroke-linecap:butt;stroke-linejoin:miter;stroke-miterlimit:4;stroke-opacity:1;stroke-dasharray:1.24906893, 0.41635631;stroke-dashoffset:0"
       d="m 415.62702,485.85646 2.20807,-2.62865 2.41835,-0.52573 2.10292,-2.20806 0,-1.05146 2.10291,-2.31321 0.73602,-1.57718 c 0,0 0.73602,-2.31322 -2.41835,-2.20807 -3.15438,0.10514 -2.73379,-0.63088 -2.73379,-0.63088 l -1.57719,-1.57718 -2.20806,-2.10293 0,-1.68233 1.36689,-2.83892 -1.05146,-1.68234 -2.73378,-0.10515 c 0,0 0.10515,0 -0.10516,-1.68234 -0.21029,-1.68233 2.73379,-3.6801 2.73379,-3.6801 0,0 0.52574,0.21029 -0.42058,-1.89262 -0.94631,-2.10292 -2.31321,-0.2103 -2.62864,1.26175 -0.31544,1.47203 -3.36466,-0.52573 -3.36466,-0.52573 0,0 0.10513,-1.68233 -1.26176,-3.78525 -1.36689,-2.10292 -6.30874,-6.2036 -6.30874,-6.2036 0,0 -1.89263,-2.7338 -4.73157,-2.62865 -2.83894,0.10514 0.73602,-2.5235 0.73602,-2.5235 l 1.05145,-3.25952 0.73603,-3.15438 -1.05146,-1.47204 0.94631,-1.78748 1.89263,-0.94632 2.94409,0.73602 2.83894,-0.52572 2.10291,0 c 0,0 1.78748,-0.2103 2.52349,-0.84117 0.73603,-0.63087 1.89263,-2.20806 1.89263,-2.20806 0,0 -0.10515,-0.42059 0.52573,-0.52573 0.63087,-0.10515 -0.52573,2.83893 2.20806,3.89039 2.7338,1.05147 2.10293,-0.94631 2.10293,-0.94631 l 2.20805,-0.63088 1.05147,1.05146 -0.4206,2.31321 2.94409,1.99777 2.41836,1.78748 0.63087,-2.83893 c 0,0 0.2103,-1.3669 1.36689,-0.94632 1.15661,0.42059 2.10292,-0.63087 2.10292,-0.63087 l 2.94409,-1.57719 1.15661,1.05146 0.9463,0.21028 0.63088,1.5772 1.68234,0.84117 1.57718,-1.3669 1.78749,0.10514 1.99776,-1.78748 1.3669,0.2103 1.68234,-1.78748 2.10291,-0.63087 2.41836,-0.2103 2.20805,-0.84117 1.78749,-0.63087 0,-2.83894 1.47205,-1.89262 2.52348,-1.47204 1.5772,0.42058 1.36689,1.99777 1.68234,-0.63087 0.42057,-0.73603 0.63088,0.94632 1.68233,-0.10515 0.31545,2.31322 1.89262,1.68232 2.20806,-0.73602 0.42059,0.84117 0.10514,2.10292 1.78748,1.57718 1.89263,1.68233 1.3669,-0.21029 0,-3.25951 2.20806,-1.89263 0.52572,-1.57719 2.62866,1.47204 1.57718,-1.57719 1.89262,1.26176 1.57719,0 0.31544,-1.47205 1.36689,-0.84117 1.78749,0 0.73602,-0.84116 0.10514,-2.73379 1.15661,-4.10069 0.31544,-3.15438 0.84117,-2.20807 2.3132,-0.52573 0.63088,-2.41834 0.42058,-0.63088 1.1566,-0.52572 2.10292,0.73601 0.21029,-1.47204 1.1566,-0.73602 0.31545,-2.41835 3.46981,1.47204 1.57719,0.84117 1.47204,1.57719 -0.73602,1.99777 1.47204,2.41835 1.05146,2.41835 0.10514,3.46982 1.26176,-0.10516 -0.73602,2.10293 -1.26176,0.10514 0.63088,1.05147 1.26175,0.52573 0,1.26174 0.84116,1.05146 -1.36689,0.42058 -0.31545,0.84118 -1.68233,0.10513 0.94632,1.78749 0.10515,1.05145 0.21029,1.89263 -0.73603,1.47204 -1.05145,1.68233 -1.78748,1.99777 0.84117,1.26175 c 0,0 0.94631,-1.26175 0,0 -0.94632,1.26175 -2.83895,0.73603 -2.83895,0.73603 l -0.21028,1.89263 -1.15661,0.42057 -0.52573,1.68233 -1.26175,1.26176 -2.41835,0 -1.57719,-0.94631 -0.2103,-0.10515 -1.05146,0.2103 0.94632,1.05146 0.73602,1.47203 -0.73602,1.3669 -0.94632,0.52573 c 0,0 0.73603,1.26174 0.2103,1.05146 -0.52573,-0.21029 -0.63087,-0.63088 -1.05146,-0.63088 -0.42058,0 -1.68234,-0.31544 -1.68234,-0.31544 l 0.73603,1.89264 -2.73379,-0.73604 -1.3669,-1.05145 -1.99777,0 -0.94631,-0.31544 -1.47205,1.57719 -0.21029,0.94631 0.10515,2.10292 c 0,0 -0.52573,1.05146 -0.94632,1.26175 -0.42057,0.21029 -2.3132,-0.63088 -2.3132,-0.63088 l -2.10292,1.26176 -1.57718,0.31543 -1.89264,0.52573 -1.68232,1.05146 -0.2103,1.15661 0,1.26174 0.2103,1.47204 -1.89264,1.05146 -1.57718,-0.10515 -1.68233,-1.26174 -0.94632,-1.26175 c 0,0 1.89264,-0.31544 0.10516,-0.52574 -1.78748,-0.21028 -3.36468,0 -3.36468,0 l 0.52573,1.99777 -0.73602,0.73604 -1.26174,-0.63089 c 0,0 -1.89264,-0.94631 -2.10293,0.2103 -0.21029,1.15661 0.10515,2.5235 0.10515,2.5235 l 0.94631,0.52572 c 0,0 -0.21029,2.31322 -1.78748,2.10293 -1.57719,-0.2103 0,2.52349 0.73602,3.4698 0.73602,0.94633 2.62865,0.73602 3.15438,0.4206 0.52573,-0.31545 0.42058,-0.73603 1.78747,0.63086 1.36691,1.36689 3.99555,3.15438 3.99555,3.15438 l 2.20807,0.21029 3.04923,-0.10514 c 0,0 2.41835,-0.84117 3.04923,0.31543 0.63087,1.15661 -2.7338,2.31321 -2.7338,2.31321 l -0.63088,2.52351 2.62866,1.57717 3.25952,2.41837 1.1566,1.78747 3.36467,0.52572 c 0,0 1.05146,0.31545 -0.10515,1.47206 -1.15661,1.1566 0.94632,2.62863 0.94632,2.62863 l 0.42058,2.31322 c 0,0 3.99554,0.52573 2.10291,1.26175 -1.89262,0.73602 -2.83893,0.73602 -2.83893,0.73602 l -1.26176,1.3669 -3.78524,-2.20807 -2.41835,-0.73601 -2.62865,0 -2.10292,-1.15661 -2.94409,-2.20806 c 0,0 -1.78747,-0.42059 -2.3132,-0.84117 -0.52574,-0.42059 -1.68233,-2.73379 -2.62866,-1.68233 -0.94632,1.05146 -1.57718,1.99777 -1.57718,1.99777 l 1.99778,2.20806 c 0,0 0.42057,1.89263 -0.52574,2.5235 -0.94631,0.63087 -1.1566,0.52573 -0.63087,1.47204 0.52573,0.94632 1.36689,2.20806 1.36689,2.20806 l -1.15661,3.25954 c 0,0 -0.84116,2.52349 -2.1029,2.62863 -1.26176,0.10515 -3.36467,0.10515 -3.57497,-0.52573 -0.21029,-0.63088 1.99777,-0.63088 1.99777,-1.68233 0,-1.05145 -0.31544,-1.99778 -2.20806,-1.05145 -1.89263,0.9463 -2.41836,1.15659 -2.41836,1.15659 l -1.78748,-0.31543 -1.68233,-0.63088 -1.89263,-1.15661 -2.62864,-0.21028 -0.84116,1.05145 -1.26175,1.5772 -0.63088,1.15659 c 0,0 -3.8904,-2.10291 -6.41389,-1.68233 -2.5235,0.42059 1.57718,-1.89263 1.57718,-1.89263 l 0.94631,-4.62641 -0.94631,-4.10068 -1.99778,0.10514 -1.68233,0.73602 -1.57718,0.52573 -2.31321,0 -2.7338,0.63088 c 0,0 -1.47204,-0.84117 -2.83893,-0.52574 -1.3669,0.31544 -2.52351,1.99777 -2.52351,1.99777 l -1.57718,0.73603 c 0,0 -0.52573,0.63087 -1.89262,0.10514 -1.3669,-0.52573 -3.46982,-1.78747 -3.46982,-1.78747 l -2.10292,-1.5772 c 0,0 0.10516,-0.84116 -0.84116,-0.9463 -0.94632,-0.10516 -2.10292,-0.84117 -2.10292,-0.84117 z"
       id="JH"
       inkscape:connector-curvature="0"
       inkscape:label="#path3860" />
    <path
       style="fill:#00c398;fill-opacity:1;stroke:#000000;stroke-width:0.4163563;stroke-linecap:butt;stroke-linejoin:miter;stroke-miterlimit:4;stroke-opacity:1;stroke-dasharray:1.66542518,0.4163563;stroke-dashoffset:0"
       d="m 413.72802,456.03354 c 0,0 0.22306,-1.41264 1.26394,-1.56134 1.0409,-0.14869 1.71005,2.7881 1.71005,2.7881 l -2.08179,1.52416 c 0,0 -1.56133,2.30484 -0.66914,3.86618 0.89219,1.56132 2.52787,0.14869 2.52787,0.14869 l 1.26395,1.85874 -1.41264,2.342 -0.0744,1.15241 0.0372,0.96655 1.82156,1.74721 2.08178,1.93307 c 0,0 -0.14869,0.26023 0.78067,0.4461 0.92937,0.18588 3.27138,-0.22304 3.75464,0.4461 0.48327,0.66915 0.63197,2.26765 -0.1487,3.27137 -0.78066,1.00371 -2.15612,2.56505 -2.15612,2.56505 l -0.0744,0.92938 -2.11895,2.19329 -2.00743,0.44611 c 0,0 -0.29739,0.14868 -1.26393,1.22676 -0.96655,1.07806 -1.1896,1.48698 -1.1896,1.48698 l 1.07807,0.70632 0.26021,1.85873 -0.48326,1.93309 -3.01115,1.33829 -2.45353,1.07805 -1.33829,1.15243 -1.82156,1.15241 -2.23046,1.18958 c 0,0 -1.44983,1.44982 -1.37547,2.08179 0.0744,0.63197 0.14869,1.85873 0.14869,1.85873 l -0.70632,0.4461 c 0,0 -0.52045,0.0744 0.74349,1.22677 1.26394,1.15241 1.37546,1.8959 1.37546,1.8959 0,0 0.55763,1.15242 -0.92936,1.71004 -1.48698,0.55761 -2.45353,0.37174 -2.45353,0.37174 l -0.11152,2.08179 -0.8922,2.67657 -1.67285,1.59852 c 0,0 -1.07807,1.04087 -0.55763,2.45352 0.52045,1.41264 0.63197,1.93308 1.1896,2.45353 0.55761,0.52044 0.55761,1.37546 -0.4461,1.26394 -1.00372,-0.11153 -2.26765,-0.52045 -2.60223,0.18587 -0.33457,0.70633 -0.0372,2.52787 -0.0372,2.52787 0,0 -1.04089,-0.40891 -1.22676,0.14871 -0.18588,0.55763 -0.48328,2.30483 -0.48328,2.30483 l -1.41263,1.74721 c 0,0 -1.67287,0.63196 -2.60223,0.14869 -0.92937,-0.48327 -2.00744,-1.56133 -2.00744,-1.56133 0,0 0.40894,0.0744 -0.96653,-0.0372 -1.37546,-0.11153 -1.74721,0.85501 -1.74721,0.85501 l -1.63569,-0.26022 -3.90335,0.0372 -0.0372,2.41635 c 0,0 -0.18589,1.56133 -1.3383,1.5985 -1.15241,0.0372 -1.93308,1.41264 -1.63568,1.89592 0.29739,0.48327 1.48699,0.44609 0.85501,1.37547 -0.63196,0.92936 -1.67286,0.92936 -1.67286,0.92936 0,0 0.0372,0.78067 -0.85502,0.78067 -0.89219,0 -2.23048,0.26022 -2.49069,-0.52045 -0.26022,-0.78067 -0.96655,1.22676 -0.81784,2.0446 0.14868,0.81785 0.92936,2.56506 1.18958,2.86246 0.26022,0.29739 0.26022,1.48698 0,2.08178 -0.26022,0.5948 -1.07806,0.74349 -1.0409,1.74721 0.0372,1.00372 0.11154,1.93308 0.89219,2.37918 0.78068,0.4461 1.37547,0.92936 0.7435,2.00742 -0.63197,1.07808 -0.63197,1.59852 -0.18587,2.34202 0.44609,0.74349 0.33457,2.15612 -0.0372,2.86245 -0.37175,0.70631 0,3.45724 0.11153,3.64311 0.11152,0.18587 2.56505,1.67286 3.86616,1.97025 1.30112,0.2974 5.39033,0 5.39033,0 l -0.0744,2.71376 -0.26021,1.52415 -2.63941,2.23048 -0.52045,-2.86245 -4.75835,-1.15241 -1.93308,1.82156 c 0,0 -1.04089,-0.1487 -1.26394,-1.15241 -0.22304,-1.00372 0.11152,-1.78438 -0.22304,-2.23048 -0.33458,-0.4461 -4.60967,-1.74721 -4.60967,-1.74721 l -2.97397,-1.15241 c 0,0 -1.93309,-1.11524 -2.89963,0.0372 -0.96653,1.15241 -0.26023,2.08177 -0.26023,2.08177 0,0 -1.11523,0.33458 -0.7063,1.56134 0.40892,1.22676 2.45351,1.89591 2.45351,1.89591 l 1.00373,1.00372 0,1.07806 1.11523,1.00372 0.44611,1.18962 -0.11153,4.72111 1.67286,1.26397 0,0.63194 1.89591,1.48704 0.1487,6.24536 0.44609,1.18957 0.55762,1.89591 0.85503,3.12268 -0.44611,1.74722 -1.48699,2.26767 -1.37546,2.26756 -2.60223,1.37555 -1.37545,1.26387 -1.00372,0.55765 -0.14871,0.48325 0.85503,0.37176 0.96654,0.33456 -1.82157,1.15239 c 0,0 -4.2379,5.42753 -4.27508,5.61342 -0.0372,0.18587 -4.08922,0.89221 -4.08922,0.89221 l -1.0037,0.70632 -0.92937,1.52415 1.37546,2.30485 -0.5948,1.9331 -1.26394,0.66913 -1.22676,1.26387 -0.33457,2.71382 0.11152,1.71002 -0.74349,1.0781 -1.52416,0.81781 -2.49071,-0.0372 -1.30111,-1.04089 -1.11523,-0.0372 -1.89591,0.66914 -0.81785,1.18957 c 0,0 -0.96654,0.29747 -1.11524,0.18589 -0.1487,-0.11149 -0.81785,-1.0037 -0.81785,-1.0037 l 0.33458,-4.60962 -1.11525,-2.56504 0.48328,-2.49074 c 0,0 0.26023,-1.11528 -0.66914,-0.85502 -0.92937,0.26018 -1.22676,1.67283 -1.22676,1.67283 l -1.44982,-0.44605 0.48327,-2.19328 -1.59852,0.37167 -0.66913,1.48704 c 0,0 -1.11524,0.29738 -1.11524,0.0744 0,-0.22298 -0.0372,-0.89211 -0.0372,-0.89211 l 0.96653,-2.00748 -1.00371,-2.0446 -0.37175,-1.8587 -4.46096,-4.64683 -1.82156,-1.07808 -2.342,-0.18589 -1.89591,0.0372 -1.48699,-2.41634 -1.37546,-0.89221 1.93308,-1.85871 0.66914,-0.55765 -0.29739,-1.22677 -1.37547,-1.67283 0.55763,-2.75101 1.07806,-2.34195 1.44981,-2.45356 2.82528,-3.7918 c 0,0 1.04088,-1.82152 1.82155,-1.22677 0.78068,0.59483 0.8922,1.97029 0.8922,1.97029 l 2.26766,0.33456 0.89219,0.89221 1.63568,-1.18958 c 0,0 1.59852,0.0744 1.89591,-0.52044 0.2974,-0.59484 -0.0744,-1.67293 -0.0744,-1.67293 0,0 -1.11524,0.14869 -1.11524,-0.55764 0,-0.70623 0.78067,-1.07799 1.85874,-1.18958 1.07806,-0.11149 0.18586,-0.40886 0.18586,-1.30106 0,-0.89221 -1.11523,-1.48704 -1.11523,-1.48704 l -3.75464,-1.78432 -1.11524,-0.78072 0.37175,-1.59854 -2.37919,-1.70998 c 0,0 -0.74349,-0.40893 -0.85502,-0.5948 -0.11152,-0.18587 -0.22304,-1.59852 -0.22304,-1.59852 0,0 -1.44982,0.11154 -1.30111,0.33458 0.1487,0.22305 0.85501,0.81784 -0.11153,1.15242 -0.96655,0.33457 -2.41635,0.14869 -2.15613,-0.5948 0.26023,-0.74349 0.63197,-0.92936 1.33828,-1.11524 0.70632,-0.18587 1.56134,0.37175 1.15242,-0.40891 -0.40893,-0.78068 -2.00743,-0.81786 -2.00743,-0.81786 0,0 -1.44981,-2.04459 0.2974,-1.78437 1.74721,0.26021 2.37918,1.07806 2.37918,1.07806 0,0 0.55762,0 0.78066,-0.81785 0.22307,-0.81783 -0.0743,-4.49813 -0.0743,-4.49813 0,0 -0.96654,-2.19331 -2.67658,-0.89219 -1.71004,1.30111 -1.00371,-2.19331 -1.00371,-2.19331 0,0 -0.70633,-1.07806 -0.5948,-1.22677 0.11152,-0.14869 -0.40893,-0.85501 0.92937,-0.59478 1.33829,0.26022 4.23791,-0.81785 4.23791,-0.81785 l 0.81784,-2.86244 -0.37174,-4.68401 -1.97026,-0.48328 -0.26023,0.74349 c 0,0 -1.41264,-1.67285 -0.96654,-2.11895 0.44609,-0.44609 2.52788,0.0372 2.60223,-1.00372 0.0744,-1.04088 -0.1487,-4.90705 -0.63197,-5.68773 -0.48327,-0.78066 -1.85873,-1.04088 -2.1933,-1.3011 -0.33458,-0.26022 -0.55762,-1.93309 0.0372,-2.41636 0.59479,-0.48326 -0.18587,-2.45352 -0.18587,-2.45352 l 0.0372,-1.33829 0.85502,-0.40892 3.64312,-2.49071 0.66914,-0.70632 0.81784,-2.60223 1.11525,-2.1933 -0.33457,-3.30854 0.40892,-4.42379 2.45352,-1.30111 0.22306,-3.34573 0.0744,-1.74721 0.66915,-1.8959 0.78067,-2.04461 0.81784,-0.11152 0.37174,1.30112 0.66915,0.0372 -0.26023,-1.44982 0.52045,-0.81783 0.52044,-1.00372 0.33458,-1.67286 0.89219,-0.37175 0.85502,-0.48327 0.44609,-4.01487 0.81784,-0.92936 0.48328,-0.85502 c 0,0 0,0.44609 0.85502,0.55762 0.85501,0.11153 1.3011,-0.11153 1.3011,-0.11153 l 1.487,-0.29739 0.29739,-1.18959 0.5948,-0.0372 0.37174,1.04089 1.22676,1.59851 1.26394,-1.56134 4.31226,-1.78439 0.78067,-1.97025 2.49071,-1.52417 0.81785,-4.05202 0.0372,-1.30112 2.19331,-0.26023 0.92937,-0.89219 0.78066,-0.85502 0.1487,-2.26764 0.63196,-1.52417 1.74722,-0.18587 1.18959,-0.92936 1.41263,-0.18589 0.33458,-1.93307 -0.70632,-1.37547 1.37546,-1.11524 -0.14869,-1.48698 -1.52417,-0.92937 -1.74721,-0.26023 -1.63569,-0.63196 -1.5985,-2.75093 -1.15242,0.0744 -0.70632,0.52045 -1.41264,-1.11525 -0.85502,-0.92937 -1.48698,1.33829 -1.63568,0.92937 -1.26395,-1.56133 0.37175,-2.41636 1.89591,-1.82155 0.37174,-1.85874 -1.00371,-0.55762 -0.2974,-1.52416 -0.59479,-0.44609 -0.70632,-0.63198 0.4461,-0.85501 1.59851,-0.0372 1.71004,1.63568 1.78438,1.07807 1.33829,-0.18587 0.85502,-1.22676 1.26393,-0.52045 1.00372,-0.11152 1.26394,0.70632 1.0037,0.89219 1.59853,0.0744 1.07806,-0.52045 1.18958,-0.40891 1.26394,0.74348 1.1896,0.22306 c 0,0 2.52787,-0.0372 2.9368,0 0.40892,0.0372 3.01115,-0.0744 3.01115,-0.0744 l 2.23047,-1.93309 2.08178,-1.85873 1.48699,-0.44609 1.78439,1.07806 c 0,0 0.85502,1.15241 1.78437,1.15241 0.92937,0 1.30112,0.26023 2.86246,0.11152 1.56133,-0.14869 3.49442,-0.18587 4.01487,-1.26393 0.52044,-1.07806 1.04088,-2.82527 1.04088,-2.82527 l 1.56134,-1.78439 1.18959,-0.26023 1.82156,0.40892 1.78439,1.33829 2.0446,2.00744 1.71003,1.48698 2.04461,2.08178 c 0,0 3.03765,3.44903 2.60223,5.53904 1.63569,0.74349 1.44981,0.52045 1.44981,0.52045 l 1.67286,0.22304 z"
       id="CT"
       inkscape:connector-curvature="0"
       sodipodi:nodetypes="csccscccccccsssccccscccccccccsccscsccccsssscsccscsccccssscsssssssssscscccccccssccscsccccccccccccccccccccccccccccccccccccccccsccccscccccsccccccccccccccccccsccccscssscccccscssssscscscsccscccccsssssccccccccccccccccccccccccccscccccccccccccccccccccccccccccccccccccccccccccccccccccccccscccccssscccccccccccc"
       inkscape:label="#path6110" />
    <path
       style="fill:#c6b65f;fill-opacity:1;stroke:#000000;stroke-width:0.4163563;stroke-linecap:butt;stroke-linejoin:miter;stroke-miterlimit:4;stroke-opacity:1;stroke-dasharray:2.49813784, 0.41635631;stroke-dashoffset:0"
       d="m 416.88878,486.69763 c 0,0 3.04922,3.25951 -5.67789,6.15102 -8.72709,2.89152 -6.46646,7.30764 -6.46646,7.30764 l -1.10403,0.68344 2.41836,2.68122 c 0,0 0.15771,1.94521 -1.20919,2.1555 -1.36689,0.21029 -2.57607,0.10514 -2.57607,0.10514 l 0.10515,2.94409 -0.9989,2.15549 c 0,0 -3.15436,1.89262 -1.89262,4.31098 1.26176,2.41835 2.15549,3.57496 0.52573,3.20695 -1.62975,-0.36801 -3.36466,-0.26287 -2.68122,1.7349 0.68345,1.99777 -0.0525,1.05147 0,0.89375 0.0525,-0.15773 -0.99889,-0.52574 -1.1566,0.26285 -0.15771,0.7886 -0.94631,5.30987 -3.46981,4.15327 -2.52351,-1.15661 -2.73379,-0.31544 -2.94408,-1.52462 -0.2103,-1.20917 -2.94409,0.94631 -2.94409,0.94631 l -5.04701,-0.47315 -0.57829,3.52238 c 0,0 -2.15549,0.2103 -2.62865,1.15661 -0.47316,0.94631 1.26176,1.99777 0.78859,2.5235 -0.47315,0.52573 -1.62975,1.26174 -1.62975,1.26174 0,0 -0.7886,1.68234 -3.83783,0 -3.04923,-1.68232 1.15661,5.94076 1.15661,5.94076 l -0.73603,1.41945 -0.68345,1.26175 0.31545,1.99778 1.84005,1.7349 c 0,0 -1.20918,0.84117 -1.10404,1.99777 0.10515,1.1566 1.26175,1.84006 0.89375,2.52351 -0.36801,0.68344 -0.73603,2.41835 -0.68345,3.1018 0.0525,0.68345 0.31544,3.78526 4.78414,4.15326 4.46869,0.36801 4.67898,-0.15772 4.67898,-0.15772 l -0.31543,3.99555 -2.52351,2.57606 -0.63088,-2.78635 -4.8367,-1.47205 c 0,0 -1.10403,1.9452 -1.73491,1.89263 -0.63087,-0.0525 -1.68233,-1.31433 -1.47203,-2.89151 0.21029,-1.57719 -9.20027,-3.73268 -9.20027,-3.73268 0,0 -2.26064,-0.26287 -1.78747,2.36577 0.47314,2.62865 -0.36801,0.42059 -0.36801,0.42059 l -0.31545,1.36689 3.41724,2.62866 0.36801,1.36689 1.3669,1.99774 -0.15772,5.1522 1.7349,1.20912 0.0525,0.57835 1.9452,1.57716 -0.10514,5.94074 2.05033,6.20358 -0.73602,2.20806 -2.78636,3.99562 -2.31321,1.47197 -1.99777,1.36697 -0.73601,0.84109 1.94519,0.84118 -1.68233,1.10403 -4.36355,5.52014 -4.57385,1.31433 -1.57718,2.20805 1.31432,2.20816 -0.47315,1.47197 -1.99778,1.52462 c 0,0 -1.15661,2.47091 -0.94631,3.25954 0.21028,0.78863 0.42058,1.99776 -0.10515,2.31325 -0.52573,0.3154 -1.52462,1.31433 -1.52462,1.31433 0,0 2.10292,-0.94638 2.5235,-0.78864 0.42059,0.15775 3.83783,-0.15774 3.83783,-0.15774 l 1.7349,-1.57717 2.15549,-0.89374 1.78749,-0.68344 2.26063,-0.89373 2.15549,-0.42058 1.26174,-1.73493 2.10293,0.0524 1.36689,0.57834 1.36689,0.68343 0.26287,-0.0524 0.52573,-2.0504 0.63087,0.21029 0.68346,0.63089 0.84116,-1.20913 -0.21029,-1.26178 0.36801,-0.31539 -0.10515,-1.31433 -0.31543,-1.68236 1.31431,-1.78747 -1.31431,-1.20922 -0.5783,-1.36687 0.26286,-1.31433 0.63087,-0.84118 1.20918,-0.47315 0.73603,-0.78862 0.94631,-0.68344 1.26174,0.42059 0.52573,1.15667 0.26287,1.41942 0.52573,1.84002 0.99889,1.84011 0.5783,1.47198 1.26175,0.84118 0.10514,-1.47197 1.47204,-0.63089 1.10404,-0.63089 1.10403,-1.10403 0.47315,-1.15667 -0.15771,-0.94628 2.78636,2.1555 2.62865,-0.15775 1.52461,-0.31539 -0.31544,-1.26177 -0.47316,-0.63089 0.31545,-1.10403 0.42057,-0.21029 -0.57829,-1.84002 -1.3669,-1.05148 1.99777,-2.62865 1.68234,-1.94521 1.15661,-0.0524 0.99887,0.42058 0.26287,0.4206 1.89262,-1.84011 1.99777,-0.99884 0.47317,-0.94627 -0.26287,-0.89374 -0.73603,-0.89383 -0.94631,-1.15658 -0.63087,-0.63088 1.05147,-1.05139 1.52461,0.47314 0.57829,0.52569 0.84116,0.36804 0.2103,-1.99775 1.10403,-0.57834 0.99889,0.21029 0.84117,-0.84118 0.36801,-0.15774 0.99888,-1.41943 0.63088,2.41835 0.78859,0.5257 c 0,0 0.36801,1.10402 0.5783,1.31432 0.2103,0.2103 1.57719,1.31432 1.57719,1.31432 l 0.36801,0.4206 0.15772,-2.62865 0.7886,2.15551 1.31432,1.9452 0.26286,1.05148 2.15549,0.5257 1.05146,-0.15775 0.84116,0.26294 0.7886,0.47314 0.84118,0.94629 0.99888,0.21029 2.36578,-0.36804 0.99887,-0.78854 0.7886,0 0.63088,-0.26285 0.21029,-1.31431 0.15772,-0.89374 0.5783,-0.42059 1.41947,-0.21029 0.84117,-0.0524 -0.21029,-1.41943 -0.42059,-0.63089 -0.15772,-0.68343 0.99889,-0.84119 1.20917,-0.31539 1.05147,-0.3155 1.68232,0 1.05147,-0.31539 0.21029,-0.63088 -0.26286,-0.57835 -0.42058,-0.21029 -0.63088,-0.89373 0.99888,-0.3154 1.15661,0.26284 0.9463,0.4206 1.31433,-0.1051 0.47315,-0.0524 c 0,0 5.20473,-7.41281 7.41279,-8.30654 2.20807,-0.89374 7.46536,-4.88926 7.46536,-4.88926 l 3.04923,-1.89257 -4.31098,1.78747 -1.20919,-1.84011 -0.9463,-0.21027 0,2.20803 c 0,0 -0.10515,1.78757 -0.42059,1.78757 -0.31544,0 -2.57607,0.94627 -2.57607,0.94627 l 0.21029,-3.41728 1.47204,-1.78745 1.68234,-2.62864 3.41724,-2.47094 0.89373,-1.20917 2.5235,-0.42058 0.99889,0.84116 0.36801,2.31321 -0.10514,1.9452 2.62864,-0.99888 3.73267,-1.52462 4.57385,-1.26175 2.20807,-0.63087 c 0,0 8.3591,-2.57608 8.51682,-3.62754 0.15772,-1.05146 2.26062,-4.36356 2.26062,-4.36356 l 1.05147,-1.84004 5.73044,-4.10069 c 0,0 0.89374,-0.63087 0.94633,-2.10291 0.0525,-1.47205 -1.10405,0 -1.10405,0 l -1.26174,-1.10404 0.78859,-2.10291 2.20807,-1.62977 5.57272,-5.52015 c 0,0 1.99777,-0.68345 0.57831,-1.10403 -1.41948,-0.42058 -3.3121,1.05145 -3.3121,1.05145 0,0 -3.15437,1.68233 -2.89151,-0.10514 0.26287,-1.78749 3.15438,-1.05146 3.15438,-1.05146 l 0.52572,-1.73491 c 0,0 -4.36355,-4.73156 -4.62641,-6.99219 -0.26286,-2.26063 3.62753,-8.46425 5.57272,-9.77857 1.9452,-1.31433 2.89152,-2.62864 4.57385,-2.57607 1.68233,0.0525 4.1007,-0.57831 4.1007,-0.57831 l 1.47203,-0.52572 -0.15772,-3.41725 -0.68345,-1.57718 -3.57496,-0.73602 -1.10403,-0.73603 -0.84116,-0.9463 0.21028,-2.05034 -1.7349,-0.42059 c 0,0 -1.36689,3.15437 -1.9452,2.68122 -0.57829,-0.47316 -2.57608,0.68345 -2.5235,-2.47094 0.0525,-3.15437 -0.52573,-2.26063 -0.52573,-2.26063 l -3.25951,-1.62976 -1.73491,-0.5783 -0.99889,0.10515 -0.7886,-0.26287 0.26287,-2.10292 -4.41612,-2.15549 -2.8915,-0.52573 -1.89264,0.0525 -2.10292,-1.52462 -2.26062,-1.84005 -1.31433,-0.31544 -0.52573,-0.15772 -0.7886,-0.31543 -0.57829,-1.10404 -0.4206,-0.63087 c 0,0 0.68345,-0.26286 -0.47316,-0.15772 -1.15659,0.10515 -1.99775,1.1566 -1.99775,1.1566 l -0.68346,0.9989 c 0,0 2.52349,1.78748 2.47093,2.36577 -0.0525,0.57831 -0.52573,2.7338 -1.62976,2.89151 -1.10404,0.15772 1.68232,3.25953 1.68232,3.25953 0,0 -1.7349,5.73045 -2.68121,5.67787 -0.94631,-0.0525 -4.67899,0.57831 -4.31098,-0.15772 0.368,-0.73602 2.15549,-0.89374 1.9452,-1.47204 -0.21029,-0.5783 0.63087,-2.20806 -1.68233,-1.9452 -2.31322,0.26286 -1.20918,2.7338 -4.83672,1.15661 -3.62752,-1.5772 -4.10068,-1.73491 -4.10068,-1.73491 l -1.62977,-0.15771 -2.94408,3.68009 c 0,0 -5.88817,-2.78635 -7.36021,-1.57718 -1.47203,1.20918 2.31321,-1.89263 2.31321,-1.89263 l 0.94632,-3.04922 0.15772,-1.47205 -0.15772,-2.15549 -0.73603,-1.99776 -1.9452,-0.15772 c 0,0 -2.83893,1.68233 -3.62753,1.62975 -0.78859,-0.0525 -2.10292,-0.21029 -2.62864,0 -0.52573,0.21029 -1.73491,0.57831 -1.73491,0.57831 0,0 -0.36801,-0.36802 -2.41835,-0.42058 -2.05035,-0.0525 -2.68123,1.26175 -2.68123,1.26175 0,0 -1.31431,1.20917 -1.94519,1.20917 -0.63088,0 -1.05145,0.5783 -1.05145,0.5783 l -2.7338,-1.1566 -3.41724,-2.31321 -1.05146,-0.99888 -0.63088,-0.47317 z"
       id="OR"
       inkscape:connector-curvature="0"
       inkscape:label="#path3055" />
    <path
       style="fill:#7f51a5;fill-opacity:1;stroke:#000000;stroke-width:0.4163563;stroke-linecap:butt;stroke-linejoin:miter;stroke-miterlimit:4;stroke-opacity:1;stroke-dasharray:2.49813784, 0.41635631;stroke-dashoffset:0"
       d="m 407.66856,350.60617 1.0409,0.5948 -0.22306,1.11523 -0.74349,0.66916 0.37175,1.48698 1.18958,0.96654 1.18959,0.1487 0.8922,0.96653 -0.5948,1.56135 -0.66915,1.11524 0.0744,0.22305 1.04089,0.22304 0.74349,0.52045 0.2974,0.66914 0.37175,0.5948 0.44609,0.96654 -0.14869,0.81784 0.0744,1.48699 0.37175,0.0744 1.18958,0.4461 1.33829,0.59479 0.1487,0.74349 0.74349,-1.18958 1.11524,0 0.2974,0.8922 0,1.26394 -0.0744,0.74349 1.93309,1.11524 1.41263,0.81784 0.81784,1.56133 -0.37175,0.66915 -3.12268,0.37174 -1.18958,-0.0743 -1.78438,-0.66915 -1.56133,0.1487 -0.14871,2.00744 -0.14869,0.74349 -3.42008,-0.14871 -1.11523,1.48699 1.11523,1.26394 2.00744,0 3.64311,1.63569 1.0409,1.26393 -0.0744,1.71004 -1.11524,1.04089 -2.23048,-0.37175 -0.5948,0.8922 0.37174,2.00743 1.48699,1.56134 2.00743,0.89218 1.48699,1.85873 1.33829,0.96655 3.49442,0.5948 3.94052,3.49442 0.44609,1.85873 -0.89219,0.81784 -1.63569,-0.1487 -2.23048,-0.81784 -1.33828,-0.0743 -0.8922,0.52045 -0.66914,0.37174 -2.23047,0.22304 -0.66916,-0.29738 -0.89219,-0.66916 -1.04088,0.29741 -0.59481,0.89219 0.0744,1.41263 -2.37918,1.56134 -2.60223,2.00742 -0.2974,1.3383 0.2974,0.81784 -1.93308,0.7435 -1.26395,0.59479 -1.33828,-0.1487 -1.56134,1.18959 -3.34571,1.93308 -2.67659,1.48699 -0.44609,1.93309 -0.0744,2.15613 -0.37175,2.89962 0.81785,2.45352 0.1487,1.26394 0.96654,1.41264 1.18958,1.71003 1.63569,1.63569 0.4461,2.30483 -0.1487,1.56135 2.97397,1.11523 4.68401,-0.81784 c 0,0 1.41264,0.96654 3.56877,-1.56135 2.15613,-2.52788 2.15613,-1.93307 2.15613,-1.93307 0,0 -0.2974,4.31226 2.45352,3.94051 2.75093,-0.37174 1.487,0.14871 1.487,0.14871 l 0.22305,-1.1896 1.98884,-0.63197 1.20818,1.11523 -0.46468,2.17473 5.29738,3.86616 0.55762,-2.93679 c 0,0 0.39034,-1.20818 1.07807,-1.00372 0.68772,0.20446 1.26394,0.22305 1.67286,0.1487 0.40891,-0.0744 3.6617,-2.26765 3.6617,-2.26765 l 0.96654,0.81784 1.3197,0.39033 0.52045,1.52417 1.72862,1.00372 1.56134,-1.37547 1.6171,0.0929 2.21189,-1.82156 1.20818,0.24163 1.80297,-1.69145 1.48699,-0.66913 1.57991,-0.0186 1.95168,-0.44609 1.35687,-0.52045 2.11896,-0.68774 0,-2.9182 1.05948,-1.50557 1.48699,-1.0409 1.43122,-0.83643 1.63569,0.50186 1.11524,1.71004 0.33456,0.26022 1.39406,-0.5762 0.52045,-0.92937 0.78066,0.98512 1.33829,0.0186 0.57621,2.342 2.11897,1.59851 1.8959,-0.74349 0.39032,0.74349 0.20447,2.15613 3.73605,3.21561 1.20819,-0.18587 0.0929,-3.23419 1.72863,-1.30112 0.46469,-0.68773 0.61338,-1.50557 2.67658,1.52415 1.50556,-1.56133 1.7658,1.26394 1.74721,-0.11152 0.33458,-1.35688 1.33828,-0.85502 1.59852,0 0.94796,-1.0037 -0.0744,-2.23049 0.65055,-2.28625 0.81784,-3.60594 0.11153,-1.63568 0.83642,-2.24908 2.17472,-0.50186 0.96655,-2.99256 1.28253,-0.61337 2.1933,0.76208 0.11152,-1.4684 1.24535,-0.76208 0.18588,-2.47212 5.01857,2.19331 1.05949,1.07807 0.5762,0.7435 1.1896,-1.74722 0.11152,-0.70633 -0.78067,-0.4275 -1.05947,-0.91078 -0.50186,-0.98512 0.85501,-1.48699 0.63197,-0.2974 1.41264,-1.93309 1.22676,-0.89219 0.78067,0.18589 2.04461,1.26392 c 0,0 0.81784,-0.0743 0.74349,-0.22305 -0.0744,-0.14869 -0.26021,-0.92936 -0.26021,-0.92936 l -0.70634,-0.78067 -0.66913,-0.66914 0.29739,-1.26393 -0.18588,-0.26023 -0.55761,-0.63197 0.29739,-1.48699 -2.342,-1.41264 -0.85502,-1.26394 -0.22304,-1.33829 -2.19331,-0.78067 0.0372,-2.6394 0.85502,-2.0446 2.0446,-0.18588 0.66915,-0.40891 0.18588,-2.11896 2.00743,-0.81785 3.56876,-3.42006 1.48699,-2.08178 -0.48327,-0.55762 -1.00372,-0.14871 0.0744,-0.89219 0.48327,-0.14869 0.2974,-0.37174 -0.55762,-0.70633 -1.04089,-0.4461 0,-1.37546 -0.40892,-0.52044 -0.92937,1.04089 -0.8922,0.26023 -0.63195,2.26764 -0.66916,0.78068 -1.11523,0.85501 -1.52417,-0.92936 -1.26394,-1.97026 -1.15241,0.33457 -2.52787,1.22676 -3.6803,1.67287 -2.6394,-1.59852 -2.19331,0.55762 -1.59851,2.04461 -2.7881,-0.85502 -2.75092,-0.40892 -1.33829,-3.34572 -0.96654,-0.74349 -4.31226,3.79181 -1.97026,-0.52045 c 0,0 -0.81785,1.48699 -0.96654,1.52417 -0.14871,0.0372 -1.41265,-0.96654 -1.41265,-0.96654 l -3.2342,-1.30112 -5.20445,-3.27136 -2.41636,0.89219 -1.1896,0.18587 -1.93308,-0.92937 -1.07806,-0.70632 -2.15614,0.22304 -2.78809,2.34201 -2.86245,-1.30111 -1.11524,-0.37174 -0.0744,-5.27881 -2.00743,-0.96654 -1.15242,-0.11153 -1.26394,0.29741 -1.22676,0.85502 -1.63568,2.00743 -1.22677,0.52044 -1.37546,-0.0372 c 0,0 -1.22676,0.0744 -1.41264,0.0744 -0.18587,0 -2.19331,-0.78067 -2.19331,-0.78067 l -0.37174,-2.08178 -1.44982,0.0744 -1.85872,0.70633 -0.7435,-0.89219 -0.40892,-1.00372 -1.82156,-1.82157 -5.8736,-1.11523 -1.44981,-0.2974 0.2974,-1.15241 0.63196,-1.0409 0,-1.78438 0.33457,-1.48698 -1.67285,-2.63941 -0.78067,-0.40892 -5.83643,0.1487 -2.11895,-0.96654 -0.26022,-1.89591 -0.8922,-0.18586 -0.52044,0.85501 -1.59852,-1.67287 -0.81783,0 -1.41265,1.59851 -1.97026,0.2974 -1.33828,-0.1487 -0.92937,-0.55761 -1.11524,0.26021 z"
       id="BR"
       inkscape:connector-curvature="0"
       inkscape:label="#path3825" />
    <path
       style="fill:#cf8561;fill-opacity:1;stroke:#000000;stroke-width:0.4163563;stroke-linecap:butt;stroke-linejoin:miter;stroke-miterlimit:4;stroke-opacity:1;stroke-dasharray:1.66542518,0.4163563;stroke-dashoffset:0"
       d="m 172.65029,759.23013 0.96654,3.94049 2.45354,4.9071 3.04831,7.88098 0.81785,2.15618 1.11525,0.52045 0.96654,0.0744 1.41263,3.42005 1.11525,1.41265 0.66913,0.37176 0.5948,-0.14877 0.74349,1.18967 0.22306,1.04089 0.96653,0.74343 0.96654,1.11528 0.4461,0.29737 c 0,0 1.11525,0.74352 0.81784,-1.18958 -0.2974,-1.9331 0.37174,-1.9331 1.0409,-1.11528 0.66913,0.81791 0.96654,2.30486 0.52044,2.89969 -0.44609,0.59475 -1.56134,1.18959 -1.56134,1.18959 l 0.22305,1.93309 0.2974,0.59475 -0.0744,0.66912 0.37175,0.81791 2.00744,1.26387 1.18959,3.49444 c 0,0 4.01486,7.21186 3.56877,10.7807 -0.4461,3.56872 1.33828,4.16356 1.33828,4.16356 0,0 0.96655,-2.52793 1.63569,-2.52793 0.66915,0 0.59479,2.00748 -0.81784,3.27135 -1.41264,1.26397 2.37918,8.47583 2.37918,8.47583 l 3.27136,6.6915 -0.22304,1.56134 0.2974,0.29737 0.96654,0.29738 0.4461,-1.41266 0.89219,0.14878 0.0744,1.04089 -0.74349,0.66913 0.1487,1.0409 1.18959,0.9665 1.04089,4.38665 2.30483,2.00739 -0.14869,4.46094 1.04088,0.74352 -0.14869,1.33826 0.96653,0.74352 -0.22304,2.0074 1.26394,0 0,1.41266 -1.85874,0 -2.37917,-1.26388 0.59478,-2.00749 c 0,0 0.52045,-0.89221 0.52045,-1.26397 0,-0.37166 -0.81784,-2.00739 -0.81784,-2.00739 l -0.22306,-2.0074 0.37176,-0.74352 -0.52045,-1.11519 -1.71003,-2.30485 -1.0409,-2.89961 -0.29739,-1.11528 -1.0409,-2.00739 -0.44609,0.37166 1.33829,4.46104 1.26394,8.32704 0.89219,6.91458 3.94052,9.51672 2.52788,6.31964 0.22305,0.74352 1.56132,0.81783 1.6357,3.49443 4.684,5.20447 6.171,6.91448 1.26395,-0.14878 0.81783,-0.74343 0.14869,0 -0.89219,-1.9331 1.78439,-1.41266 0.22305,-1.41264 1.41264,-0.29738 0.4461,-1.56133 -1.56134,-2.60223 -0.8922,-1.1152 0.52045,-1.7844 1.56133,-1.0409 0,-2.08178 -2.45352,-3.71752 -0.0744,-1.18948 1.71004,-1.41275 1.6357,-2.30476 0.59478,-2.82531 1.85874,-4.38655 1.41263,-1.48704 0.1487,-1.33826 -1.63568,-1.41265 -3.94052,-0.74352 -1.04089,-0.89221 1.48699,-3.12268 0.22305,-2.45346 0.1487,-3.04838 0.7435,-1.33825 -1.11525,-2.67653 -0.4461,-1.26397 1.41265,-0.44615 c 0,0 0.52044,0 0.66913,-0.29738 0.1487,-0.29736 0.22306,-2.45354 0.22306,-2.45354 l -1.78439,-3.8661 -2.15613,-0.0744 -3.56877,2.8996 -1.63568,0.52044 -2.52788,-0.74342 -0.96655,-2.75101 -0.0744,-3.71742 -0.2974,-4.53533 1.48698,-0.37176 0.7435,-1.85871 0.52045,-1.85871 -1.63569,-0.8922 -0.22305,-0.89221 -1.11524,-1.48695 -3.94052,-0.59484 0.8922,-3.12267 2.67657,0.22307 0.0744,-1.33826 -2.08178,-1.9331 0.4461,-1.8588 0.59479,-0.37167 -2.23047,-0.22308 -0.5948,1.11519 -3.34572,-0.22298 -1.26394,-0.81791 0.37175,-0.74342 1.71003,-1.0409 -0.0744,-1.63563 -2.67658,-1.85881 -2.89963,-0.9666 -1.63568,-0.14858 c 0,0 -1.48699,-1.48705 -1.26394,-2.23047 0.22305,-0.74352 0.7435,-1.11529 0.7435,-1.11529 l 2.08177,-0.14868 2.45353,-1.33826 0,-1.63573 -0.37175,-0.89221 0.66915,-0.81781 -2.60222,-0.29738 -4.60967,-4.01489 c 0,0 -1.04089,0.52045 -1.18958,0.22299 -0.1487,-0.29737 0.44609,-1.71002 0.44609,-1.71002 l -1.93309,-0.37176 -3.12267,0.8922 c 0,0 -2.97397,-1.56134 -3.42007,-2.8996 -0.44609,-1.33827 -0.89219,-2.30476 -0.89219,-2.30476 l -2.60223,-0.22308 c 0,0 1.71003,1.26397 -0.96653,-0.74352 -2.67658,-2.0074 -4.31226,-4.53534 -4.31226,-4.53534 l -1.41264,-0.29736 -0.66916,-1.48695 0,-1.56134 -1.93307,-0.14878 2.08178,-1.63563 -0.52045,-1.26397 -1.18958,0.44615 -0.8922,0.66913 -0.96654,-1.9331 0.81784,-1.26396 0.22306,-0.59475 -0.8922,-0.52045 -1.41264,0.59475 -0.66914,-0.0744 -0.22305,-0.59484 -1.04089,-0.37176 -0.5948,-0.66913 0.5948,-0.96651 -1.56134,-0.44615 -0.89219,1.0409 -0.59479,0.66913 -0.1487,-2.00739 -2.00744,-0.14869 -1.18959,0.37176 z"
       id="KL"
       inkscape:connector-curvature="0"
       inkscape:label="#path3827" />
    <path
       style="fill:#cdc18c;fill-opacity:1;stroke:#000000;stroke-width:0.4163563;stroke-linecap:butt;stroke-linejoin:miter;stroke-miterlimit:4;stroke-opacity:1;stroke-dasharray:2.49813784, 0.41635631;stroke-dashoffset:0"
       d="m 287.40849,247.14907 c 0,0 1.41265,2.26766 0.8922,2.86245 -0.52044,0.59479 -3.23419,-0.40893 -3.23419,-0.40893 l -1.00373,-2.0446 -1.7472,-0.1487 -1.37547,0.1487 -1.41262,-0.92937 -0.96655,0.0372 -0.66914,0.92936 -0.92938,-0.40891 -1.71003,-0.78068 -2.23048,-1.63569 -0.85501,-0.18586 -0.96654,0.48327 -0.81785,0.92935 -1.18959,0.78068 -1.00371,0 -1.78439,1.4498 -0.66914,-0.14868 -0.4461,0.44609 -1.41263,-0.81784 -1.00371,0.48326 -0.81785,1.00372 -0.4461,0.63198 -0.55762,1.0037 -0.74349,0.18588 -0.4461,0.70631 0,0.85502 c 0,0 0.96655,0.4461 0.81784,0.81785 -0.1487,0.37175 -1.33829,-0.0372 -1.33829,-0.0372 l -0.96653,0.22306 c 0,0 -0.2974,0.0372 -0.14871,0.40892 0.14871,0.37174 1.11524,0.96654 1.11524,0.96654 l 0.5948,0.26022 c 0,0 0.78067,0.18588 0.22304,0.89219 -0.55762,0.70633 -1.3011,0.5948 -1.41263,1.33829 -0.11151,0.74349 -0.37174,1.18959 -0.37174,1.18959 l 0,2.41636 0.96653,1.74721 -0.55761,1.93308 0.96654,1.41263 -0.26022,0.70632 -1.97026,0.0372 -1.59851,0.63198 -1.56134,1.5985 0.0744,0.66916 2.63941,0.89219 1.18959,1.33829 4.83271,2.08177 0.92936,1.26394 -0.29739,0.92938 -0.4461,0.74348 -1.52417,1.74721 -0.0744,0.63198 -1.18959,0.0372 -0.37175,1.63569 -0.22304,2.37917 -0.92937,1.63569 0.33457,1.67286 1.26394,1.97025 0.48327,0.55763 0.55762,1.30111 1.04088,0.2974 0.59481,-0.37175 0.96654,-0.0372 0.37175,0.96655 -0.11153,0.44609 0.5948,0.78067 1.11523,0.5948 0.78067,0.59478 1.15241,-1.1524 1.63569,-1.78439 1.44982,-0.92937 0.96654,-0.81784 0.85501,-0.22304 0.26023,-0.5948 1.18958,0 0.37175,-0.55763 0.4461,0.0372 0.33457,0.66914 0.2974,0.70632 0.4461,1.00372 0.40892,0.81784 0.40892,0.85502 0.4461,0.63196 0.44609,0.66915 0.85501,-0.11153 1.00372,-0.29739 0.52044,0.74349 0.37176,0.48327 1.0037,0.33457 0.96655,0.37174 0.85502,0.40893 1.67285,0.59479 0.8922,0.37175 0.26023,0.40892 0.22304,0.63198 -1.18958,0.66914 -0.7435,0.44609 -0.63197,0.37175 -1.26394,0 -0.81784,0.5948 0.29739,1.04089 1.48699,0.81784 1.07806,0.33457 0.63197,0.89219 0.59479,1.07807 0.8922,1.26394 0.55762,0.81784 0.63198,-1.11524 0.85502,-0.2974 0.96652,-0.33457 1.48699,0.70632 0.92938,1.04089 -0.26023,1.00371 0.1487,0.4461 1.74721,0.92937 1.52416,0.89219 0.81785,0.22305 1.22676,0 0.70631,0.74349 0.0744,0.48327 -0.29739,0.37175 -0.11153,0.92937 0.48328,0.81784 1.15241,0.0744 0.40891,-0.55762 0.81785,0 0.52044,-0.59481 0.66916,0.0372 0.37174,0.63198 0.18587,0.2974 1.15242,0 0.74348,-0.0744 0.2974,0.70633 0.4461,-0.40892 0.18588,-0.44609 0.59479,-0.74351 1.59851,0.0372 0.81785,0.81784 0.0744,0.33458 -0.7435,0.70631 0.44609,0.63198 0.48327,0.14869 0.81785,-0.96654 0.96654,0.1487 0.0372,1.56134 0.55761,0.22304 0.70633,0.66914 1.18958,-0.11151 0.22305,-1.15243 1.00372,-0.55761 0.37175,-0.78067 0.26021,-0.0372 0,-0.7435 -0.44609,-1.15242 0.0744,-1.85873 0.48328,-0.55762 0.0744,-1.63568 0.55761,-2.15614 3.94051,-3.0855 0.14871,-3.08549 -1.07807,-1.52416 -0.0372,-1.67286 3.75464,-4.27508 0.11153,-2.26766 1.5985,-2.19331 4.38662,-5.39033 0.78066,-1.04088 1.74721,-1.63569 1.18959,-1.11524 0.70633,-1.30112 1.5985,-0.66914 0.63197,-0.63196 1.07806,-0.44611 0.89219,-0.59479 0.85502,-0.18587 0.22306,-0.33458 -1.41264,-0.81784 -2.08178,-1.15241 -2.23048,-1.18959 -3.90334,-3.3829 -2.49071,0.26023 -5.09293,-2.86246 -2.52788,-1.18959 -0.29739,-1.11523 0.70632,-2.19331 0.18588,-0.63197 -1.37547,-1.26394 -1.67286,0.18588 -1.63569,-1.44982 -3.82899,-2.26765 -2.15613,-1.85873 -2.00742,-0.33458 -2.19332,1.56134 -2.1933,-0.0743 0.33456,-1.41265 -1.37546,-1.00371 -1.11523,-0.70632 -3.19703,-3.19702 -0.48326,-0.92937 -0.70633,-2.00742 -0.22305,-1.56134 -1.07806,-0.92936 -1.18959,-1.44982 -1.63568,-0.70632 -0.37175,-0.26023 -1.00372,1.93309 -2.00743,1.97026 -0.63196,1.26394 -0.33458,1.67286 z"
       id="UK"
       inkscape:connector-curvature="0"
       inkscape:label="#path2996" />
    <path
       style="fill:#afd783;fill-opacity:1;stroke:#000000;stroke-width:0.4163563;stroke-linecap:butt;stroke-linejoin:miter;stroke-miterlimit:4;stroke-opacity:1;stroke-dasharray:1.66542523, 0.41635631;stroke-dashoffset:0"
       d="m 254.09672,269.44002 -1.26175,-0.49944 -0.26287,-0.63088 -0.63087,0.26287 -0.0263,0.44687 -1.02517,-0.63088 -0.60458,-0.0788 -0.18402,0.28916 -1.31433,-0.68346 -0.68344,-0.39429 -1.15661,-0.23657 -0.73601,-0.26288 -2.28692,-1.52461 -0.6046,-0.42058 0,-0.5783 1.05146,-0.78859 0.28916,-1.31433 -0.13144,-0.65717 -0.21029,-0.89373 -0.42059,-0.86746 -0.552,-0.55201 -0.76231,-0.34173 -1.26176,-0.84116 -0.31544,-0.36801 -1.57718,-1.20918 -0.55202,-1.05145 -1.9452,-0.44687 -0.52572,-0.99889 -0.49944,-0.47315 -0.76231,0.0262 -0.0525,3.33838 0.70972,0.89373 2.18178,0.70974 0.84118,0.92003 -0.13144,1.57718 0,2.07664 -0.10515,0.7623 -0.49945,0.21029 -0.86745,0.13143 0.13144,0.3943 0.81488,0.60458 -0.13144,2.44465 0.10515,1.31433 0.10514,1.13031 -0.63087,0.28916 -0.52573,-0.89374 -0.47315,-1.26175 -0.70974,-0.86746 -0.94632,0.13143 -1.05145,0.7886 -0.5783,0.3943 0.0262,0.89374 -1.44577,1.57718 -2.07663,0.92003 -0.0788,0.76231 1.7349,0.0262 0.68345,0.86745 0.28915,0.57829 -0.10514,0.49945 -0.57831,-0.28915 -0.73601,0.0525 -0.28916,0.89373 0.28916,1.02517 -1.15661,-0.0263 c 0,0 -0.47316,0.49944 -0.57829,0.52572 -0.10516,0.0263 -0.34174,0.34173 -0.34174,0.34173 l -0.81487,-0.34173 -1.44576,-1.26174 0.0788,-0.70974 -0.42058,-0.52573 -0.31544,-0.31543 -0.76231,0.52572 0.31545,0.70974 -0.2103,0.49944 -0.63088,-0.0525 -0.0525,-0.47316 -0.26287,-0.0788 -0.65716,1.10403 -0.84117,-0.55202 -0.68345,-0.86746 -0.34173,-0.60458 -0.23657,-0.23658 -0.76231,0.34172 -0.28915,0.63087 0.47316,0.86746 1.02518,0.99888 -0.34174,1.28804 -1.13031,1.05146 -0.44687,0.9726 -0.31544,0.57831 1.97149,1.65604 -1.28804,1.44576 -1.81377,-0.70973 -0.7886,1.20918 0.2103,0.552 -1.5509,1.07775 -1.05147,0.47315 -1.28803,0 -0.70972,-1.02516 -0.57832,-0.99889 -0.89374,-0.15772 -1.10403,-0.89375 -0.68345,0.10515 -0.49944,0.55202 -1.10403,0.63088 -1.07774,0 -0.68344,0.0788 -0.3943,1.05147 -1.28804,-0.21029 -1.05147,-1.31433 -0.57829,-0.55202 -0.81488,0.34173 -1.41948,1.23546 -0.92002,1.60348 -0.26286,0.78859 -0.7623,0.26286 -0.52573,0.3943 0.10514,0.73602 0.34172,0.31545 0,0.60458 -0.84116,0.70973 -0.68345,-0.39429 -0.89374,-0.81489 -0.52574,-0.76231 -0.42057,-1.20916 0.184,-0.68346 0.57831,-0.94632 0.63087,-0.65715 0.0525,-0.86746 -0.49944,-0.44687 -0.28915,-1.65604 -0.73603,0.36801 -0.26287,1.34061 -0.49943,0.31543 -0.68345,-0.70972 -0.65716,-0.84117 1.02517,-2.02407 -0.65716,-0.26285 -1.10403,0.5783 -0.31544,0.70973 c 0,0 -0.31544,0.21028 -0.47315,0.21028 -0.15772,0 -0.97261,-0.57829 -0.97261,-0.57829 l -0.92002,-0.76231 -0.49944,-0.65716 c 0,0 -1.10404,-1.28804 -1.7612,-1.23546 -0.65715,0.0525 -2.68122,0.184 -2.68122,0.184 l -0.49944,0.47316 -1.31432,0.0263 -0.63088,0.10515 -0.49943,0.34173 -0.76231,-0.0262 -0.73604,-0.6046 -0.49943,-0.26286 -0.34173,0.31543 0.18402,0.81489 0.81487,0.9726 -0.28916,0.99888 -0.63087,0.13143 -0.552,0.49944 -0.68346,0.47316 -0.34172,1.34062 0.55201,0.99887 0.86746,0.0788 0.68345,-0.49944 1.28803,-0.52572 0.68345,0.42058 -0.3943,0.92002 -0.15772,0.84117 -0.3943,0.47316 0.26287,0.99888 -0.63087,0.52573 0.13143,0.60459 0.3943,0.81488 0.23657,1.18289 -0.31543,0.92003 -1.73491,0.47315 -0.13143,1.20918 0.39429,0.68345 0.60458,0.52573 0.44689,0.81488 0.26286,1.05146 0.26287,0.84116 0.44686,-0.78859 c 0,0 0.34173,-0.26287 0.42058,-0.47316 0.0789,-0.21028 0.49945,-0.60458 0.49945,-0.60458 l 0.76231,-0.10515 1.05146,0.23658 0.7886,-0.26286 1.23545,-1.10404 0.81488,-0.10514 0.81488,0.39429 0.97259,0.47315 -0.13142,0.97261 -0.21029,1.05146 0.70973,0.39429 1.41947,0.3943 0.92003,-0.184 0.92003,1.41947 1.70861,-0.13143 0.55201,-0.81489 0.4206,-0.184 0.44686,0.97259 1.05146,-0.0525 0.60458,-0.31543 0.57831,-0.99889 0.55202,-0.26287 0.42058,0.94632 0.70973,-0.0263 0.70974,0.36802 c 0,0 -0.0263,1.28803 0,1.39317 0.0263,0.10515 -0.47316,0.81488 -0.47316,0.81488 l -0.34172,0.73603 0.21029,0.63087 0.23658,0.76231 -0.15772,1.10403 0.65716,0.49944 0.68345,0.21029 0.49945,0.9726 1.44574,0.0788 0.23659,0.368 -0.0525,0.7886 -0.73602,0.10515 c 0,0 -0.3943,0.26286 -0.44687,0.36801 -0.0525,0.10514 -0.44686,1.3669 -0.44686,1.3669 l 0.28914,0.60459 0.70974,0.86745 0.28915,0.70973 -0.15772,1.02517 -0.84117,0.49944 0.94632,0.49946 -0.0263,0.76231 -0.0788,1.39317 0.89374,1.76119 0.9726,0.2103 1.05146,1.78747 1.86633,1.15661 0.23659,1.52461 2.57606,1.62976 2.78638,1.89263 0.76231,1.20918 0.63087,0.84116 -0.0262,1.15661 0.55202,0.47316 0.0788,0.68344 -0.94632,0.63087 -1.07775,0.57831 -0.0525,0.76231 0.81487,0.73602 -0.55201,1.05146 0.10514,1.18288 -0.65716,0.63088 -0.15772,0.68345 -0.86745,0.28915 -0.10515,0.63088 0.31543,1.23545 0.9989,0.52573 0.81487,0.10515 1.39318,0.28915 1.15661,-0.63086 0.76231,1.36689 0.52573,-0.184 0.60458,-1.26176 -0.23657,-1.1566 -0.84117,-0.36801 0.0525,-0.84117 0.6046,-0.31543 -0.18401,-0.36802 -0.49944,-1.65605 2.44464,-0.78858 1.52462,-1.02518 0.36801,1.76119 0.52573,0.5783 0.49943,-1.07774 -1.36689,-3.10181 0.60458,-0.49943 1.26176,0.78859 1.18289,-0.13143 0.70973,0.52572 0.31544,0.7886 -0.52572,1.1566 0.73601,1.05146 0.7886,0.60458 0.0788,1.20919 0.42058,0.31543 0.86745,-0.49944 1.02517,-0.65716 0.49945,-0.3943 0.0788,-1.02516 2.02406,-1.73491 2.39208,-2.39207 1.31431,-0.3943 0.63088,0.81488 1.31432,1.76119 0.0263,1.49833 -0.70975,0.97261 -0.368,1.26174 0.13143,1.28804 0.65716,0.42058 -0.0789,1.84006 -0.0525,1.18289 -0.63087,1.18288 -0.70973,0.68346 0.15771,0.44686 0.52573,0.3943 -0.10515,1.1566 -0.47315,0.13143 0.0788,0.49944 1.05146,0.36802 0.84116,-0.13144 0.44688,-1.26174 0.89373,-0.42059 0.76231,0.0263 -0.13143,-0.55202 -1.15661,-0.31544 0.21029,-1.26174 0.76231,-0.34173 0.60459,-0.26286 0.60458,0.47316 1.13033,0.10513 0.55201,-0.7623 0.55201,0.92003 0.86746,-0.0788 0.42058,-0.76231 1.44576,0.26287 2.15549,-1.02517 1.65604,-0.81489 1.1829,-1.10403 0.10514,-0.99889 -0.0788,-1.02516 -0.31543,-0.73603 -0.55202,-0.55201 0,-0.68345 0.73602,-0.63088 0.78859,-0.44687 0.52573,-1.1566 0.60459,-0.86746 -2.23435,-0.68344 0.18401,-0.70974 0.47316,-0.31543 -0.76231,-0.44687 -0.13144,-1.07774 1.39319,-0.7886 -0.0789,-1.68234 -0.23658,-0.49944 -0.42058,-0.44686 -0.57831,-0.18401 -1.65604,-0.5783 -0.60459,-0.47316 -0.49944,-0.7886 -2.20807,-0.13143 -0.36801,1.02517 -0.10514,0.84117 -0.21029,0.55202 -0.76231,-0.184 -0.5783,-0.26287 -0.28916,-0.3943 -0.49944,-0.3943 -0.9726,-0.65716 -0.10514,-0.89374 -0.18401,-0.42058 -0.81487,-0.5783 -0.68345,-0.13144 -0.55202,0 -1.44575,1.05147 -0.44688,-0.0263 c 0,0 -0.73602,-0.13143 -0.89374,-0.184 -0.15772,-0.0525 -1.15661,-0.68345 -1.15661,-0.68345 l -0.0525,-0.89374 0.47315,-0.7886 0.70974,-0.70972 0.84117,-0.70974 c 0,0 0.552,-0.0788 0.57829,-0.26286 0.0262,-0.18401 0.15773,-1.26176 0.15773,-1.26176 l -0.3943,-1.65604 0.0525,-1.1566 1.26176,-0.92003 2.60235,-0.28915 1.52461,-0.42059 1.62977,-0.65716 0.10515,-2.65493 -0.63088,-1.07774 -0.99889,-0.65716 -0.9726,-0.7886 -0.0262,-0.73602 0.4206,-2.41836 0.39429,-0.42058 0.31544,-1.15661 0,-1.07774 -0.55201,-1.84006 -0.73603,-0.26286 -0.26287,-1.07774 0.13143,-0.68345 -0.23658,-0.65717 -0.21028,-0.15772 -0.34172,-0.99889 0,-0.7623 0.0788,-1.44575 0.42058,-0.57831 0.21029,-0.68344 0.0525,-2.28692 0.552,-0.47316 0.76231,-0.9726 0.60459,-0.5783 0.6046,0.10515 0.34171,-1.34061 0.26288,-0.86746 0.31543,-0.63087 0,-1.23545 -0.63087,-0.36804 -0.34173,-0.68344 0.28915,-0.86744 0.65717,-0.63088 0.70973,-0.55202 0.94631,-0.42058 0.49945,0.34173 1.65604,0.0262 0.63088,-0.70974 0.70972,-1.20917 -0.0525,-0.76231 0.15772,-1.3669 1.10403,-1.28804 1.91891,-1.68232 0.7886,-0.86747 z"
       id="HR"
       inkscape:connector-curvature="0"
       inkscape:label="#path3766" />
    <path
       style="fill:#d28ed9;stroke:#000000;stroke-width:0.71999999999999997;stroke-linecap:butt;stroke-linejoin:miter;stroke-opacity:1;stroke-miterlimit:4;stroke-dasharray:2.16000000000000014, 0.71999999999999997;stroke-dashoffset:0;fill-opacity:1"
       d="m 142.67857,673.43361 1.16072,0.98214 -0.0893,0.71428 0,1.07143 0.17857,1.07143 0,0.71429 0.71429,0.53571 0.47187,1.31397 0.15784,0.91545 0.4735,0.66291 0.22098,0.59978 0.12626,0.66291 0.53665,0.78918 0.0631,0.63135 0.44194,0.69448 0.37881,0.82075 0.44194,0.88388 0.53665,0.78918 0.47351,0.59978 -0.0631,0.66291 -0.15784,1.16799 -0.44194,0.50508 -0.1894,0.66291 0.34724,0.63135 1.16799,1.07328 1.29426,1.13643 1.26269,0.91545 1.01015,0.88388 1.35739,0.44194 1.29426,-0.56821 0.85232,-1.10485 0.56821,-0.78918 -0.0631,-1.38896 -0.15783,-0.94702 0.69448,-1.67307 0.53664,-1.01015 -0.0631,-0.44194 -0.53664,-0.53665 -1.10485,-0.25253 0.0631,-0.72605 1.13642,-0.44194 0.97859,-0.53665 0.0631,-1.32582 -0.0631,-0.50508 -0.28411,-0.63134 -0.59978,-0.50508 -0.31567,-0.44194 -0.1894,-0.75762 -0.31567,-1.60993 -0.0947,-0.75761 0.12627,-0.56821 0.34724,-0.63135 0.12627,-0.78918 0.37881,-0.75761 0.25254,-0.25254 -0.37881,-0.31567 -1.07329,-0.44195 -0.85231,0 -0.82075,0.28411 -0.0631,0.37881 -1.23112,0.0631 -0.78918,0.18941 -0.91545,0.53664 -0.56821,0.0947 -0.91545,0.0631 -1.32583,-0.41038 0.28411,-1.10485 -0.12627,-1.51523 -0.85232,-0.72605 -1.13642,-0.66291 -0.59978,-0.47351 -0.12627,-0.50508 -0.31567,-0.44194 -0.63135,0.0631 -0.66291,0.72604 -0.2841,0.53665 -0.47351,0.56821 -1.04172,0.25253 z"
       id="GA"
       inkscape:connector-curvature="0"
       inkscape:label="#path3081" />
    <path
       style="fill:#e4dc56;stroke:#000000;stroke-width:0.45000000000000001;stroke-linecap:butt;stroke-linejoin:miter;stroke-opacity:1;stroke-miterlimit:4;stroke-dasharray:1.35000000000000009, 0.45000000000000001;stroke-dashoffset:0;fill-opacity:1"
       d="m 511.19637,345.22055 -0.0572,1.02948 0.11438,1.08668 0.57194,0.51474 -0.17158,0.9151 0.45755,1.02949 0.45755,0.51474 -0.22878,0.80071 0.22878,1.25826 c 0,0 0.62913,1.20106 0.74351,1.42984 0.11439,0.22877 0.97229,0.74352 0.97229,0.74352 l 0.9723,0.0572 1.25825,0 1.48704,-0.85791 0.8579,0.57194 1.02949,0.51474 1.08668,0.62913 1.773,-1.31545 0.0572,-0.80071 0.8579,-0.45755 0.80071,-0.34316 2.6881,-0.57194 1.25826,0.0572 0.97229,0.11438 0.22878,-1.88738 1.48703,-1.42984 1.65862,-0.9151 -0.34317,-1.14387 -1.7158,-1.71581 -0.74352,-1.65862 -0.97229,-1.37264 0.22877,-1.54423 0.68633,-1.42984 0.62913,-1.25826 0.74351,-1.08668 0,-2.11616 0.62913,-1.54423 -0.17158,-1.14387 -0.62913,-0.74352 -0.57193,-0.91509 -0.11439,-1.60142 -0.11439,-0.62913 -0.40035,-0.40036 -0.68633,-0.45755 -1.31545,-0.40035 -1.25826,-0.17158 -2.23055,-0.80071 -1.71581,1.48703 -2.6881,2.34494 -1.83019,0.62913 -1.20107,0.11438 -2.85968,0.45755 -2.00177,1.773 1.25826,0.9723 0.8579,0.80071 0.62913,0.80071 -0.17158,1.65861 -1.08668,1.65861 -0.8579,0.9151 -0.28597,1.37265 -0.11439,1.20106 -1.02948,1.14388 z"
       id="SK"
       inkscape:connector-curvature="0"
       inkscape:label="#path3853" />
    <path
       style="fill:#95cbbd;stroke:#000000;stroke-width:0.45;stroke-linecap:butt;stroke-linejoin:miter;stroke-opacity:1;fill-opacity:1;stroke-miterlimit:4;stroke-dasharray:1.35,0.45;stroke-dashoffset:0"
       d="m 620.05644,419.36431 1.13238,2.42652 0.80884,0.4853 -0.32354,1.77945 -0.16177,1.61768 0.16177,0.4853 1.61768,0.80884 1.45591,0.80884 -0.16177,2.26475 -0.16176,2.58829 -0.32354,1.94121 0,1.61768 -0.4853,2.42652 0.4853,0.80884 -0.64707,1.77945 -0.80884,1.13237 -1.94122,-0.4853 -0.9706,0.4853 -1.94122,0.16177 -1.45591,-0.4853 -0.32354,2.42652 0.32354,2.42651 0.80884,1.29415 -3.5589,2.42652 -0.9706,2.10298 0.64707,2.75005 0.80884,2.42652 0.16177,1.45591 -1.77945,1.77945 -2.91182,2.42652 -1.77945,-1.13238 -1.29414,-4.20596 -1.29415,-2.91182 -2.26475,1.13237 0,2.75006 -0.32353,1.13237 -1.13238,-3.07359 -0.32354,-2.75005 -1.13237,-2.58829 -2.26475,-2.42652 -1.29414,-2.42652 0,-4.20596 0.4853,-1.77945 1.61768,-3.07359 0.64707,-1.45591 0.97061,-1.94122 1.29414,-2.91182 0,-0.16177 1.61768,0.48531 3.23536,0.16176 1.94121,-2.26475 0,-1.61768 1.13238,0.48531 0.64707,1.29414 0.64707,-1.61768 0.64707,-0.64707 0.97061,0.4853 1.45591,0 -0.16177,-4.69127 2.58829,-1.77944 1.45591,0.32353 z"
       id="TR"
       inkscape:connector-curvature="0"
       inkscape:label="#path3855" />
    <path
       style="fill:#f6f773;stroke:#000000;stroke-width:0.45000000000000001;stroke-linecap:butt;stroke-linejoin:miter;stroke-opacity:1;stroke-miterlimit:4;stroke-dasharray:1.35000000000000009, 0.45000000000000001;stroke-dashoffset:0;fill-opacity:1"
       d="m 624.26241,426.80563 2.91182,0.32354 -0.80884,2.91182 1.77945,0.16177 1.45591,-1.29415 -0.32354,-2.10298 1.77945,-0.64707 0.64707,-2.10298 1.29415,-1.94122 1.61767,-2.42652 0.48531,-0.64707 0.64707,1.45591 1.13238,1.13238 2.91182,-0.16177 1.45591,0 0.16177,1.61768 0,2.26475 -0.48531,1.61768 0.48531,1.13238 2.10298,1.29414 0.97061,0.16177 1.61768,0 1.45591,0 1.77945,-0.32354 2.26475,3.07359 1.13237,5.01481 0.48531,4.36773 -0.80884,5.17657 0,1.61768 0.4853,4.69127 0.32354,2.58829 -3.0736,1.29414 -3.07359,0.32354 -0.64707,4.0442 0.32354,4.69127 1.13237,3.88243 0.97061,2.10298 1.13238,3.07359 0.16176,4.0442 -1.61767,2.42652 -0.16177,2.42652 -2.10299,1.77944 -3.07359,1.29415 -1.13237,-3.07359 -3.39713,-0.64708 0.48531,2.42652 -0.80884,1.29415 -1.94122,0.80884 -0.32353,-2.91183 0.4853,-2.10298 -1.77945,-3.72066 -0.32353,-2.75006 -1.61768,-4.5295 -0.32354,-4.0442 -2.26475,-2.75005 -2.42652,-5.17657 0,-3.88243 -0.97061,-2.42652 1.45592,-1.29415 0.16176,-2.10298 -1.61768,-1.13238 -1.61768,-2.58828 -0.64707,-2.58829 0.32354,-3.07359 -1.29414,-0.80884 0.16176,-2.91182 0.48531,-3.07359 0.16177,-4.0442 z"
       id="MZ"
       inkscape:connector-curvature="0"
       inkscape:label="#path3923" />
    <path
       style="fill:#83d3e7;stroke:#000000;stroke-width:0.45;stroke-linecap:butt;stroke-linejoin:miter;stroke-opacity:1;fill-opacity:1;stroke-miterlimit:4;stroke-dasharray:1.35,0.45;stroke-dashoffset:0"
       d="m 649.4982,394.77558 0.48531,-2.42652 -0.80884,-1.45591 -2.75006,-0.9706 0,-0.97061 -0.16177,-1.61768 1.13238,-1.77945 1.94122,-2.10298 1.45591,-1.45591 1.77944,-3.07359 2.10299,-1.61768 0.64707,-1.29415 1.13237,0 0.16177,2.10299 0,1.45591 2.91182,-1.13238 1.77945,-1.45591 0.16177,-1.29414 -0.97061,-1.77945 0.16177,-2.42652 0.4853,-1.61768 0.32354,-2.10298 2.26475,-4.20597 2.10298,-4.69127 1.29415,-0.32353 0.32353,1.61768 0.32354,0.32353 1.61768,-0.9706 1.29414,-2.58829 1.13238,-2.42652 1.61768,-1.45591 1.45591,-0.4853 1.13237,-1.13238 2.91182,-1.77945 1.13238,-1.77944 1.29414,-1.61768 1.45591,0 1.61768,-0.64707 2.42652,-2.58829 0.97061,-0.16177 1.77945,2.26475 -0.97061,1.45591 0.80884,3.23536 1.29414,2.42652 -2.26475,1.13238 -0.4853,2.75005 -1.45591,1.29414 2.75005,4.69127 0.48531,6.30895 -0.48531,2.91182 -2.75005,1.45592 0.4853,5.50011 0,2.26475 -0.64707,0.9706 -1.77945,1.77945 -0.64707,1.45591 -2.26475,0.97061 -2.10298,0.97061 0.32353,0.4853 -1.77944,0.16177 -2.10299,-2.91182 0.48531,-2.26475 -1.45592,0.4853 -1.45591,0.80884 -1.45591,1.94121 -3.07359,1.45592 -3.88243,-0.16177 -2.91182,-0.80884 -3.72066,0 -0.48531,1.45591 -1.29414,1.94121 1.13238,0.80884 -2.10299,2.26475 -2.10298,1.77945 0.32353,1.13238 z"
       id="NL"
       inkscape:connector-curvature="0"
       inkscape:label="#path3925" />
    <path
       style="fill:#f9a5e9;stroke:#000000;stroke-width:0.45000000000000001;stroke-linecap:butt;stroke-linejoin:miter;stroke-opacity:1;stroke-miterlimit:4;stroke-dasharray:1.35000000000000009, 0.45000000000000001;stroke-dashoffset:0;fill-opacity:1"
       d="m 646.42461,398.65801 -1.61768,2.42652 0.97061,0.80884 0.32354,1.61768 -0.32354,0.80884 -1.13237,1.29414 -3.23536,2.58829 -0.64707,0.64707 1.13237,1.94122 0.64707,0.4853 -0.80884,1.13238 -1.61768,1.61768 0.16177,0.9706 0.32354,1.29415 0.64707,1.61768 0.32354,2.26475 -0.16177,1.45591 -0.48531,2.26475 0.80884,1.13237 -0.80884,1.13238 0.80884,2.10298 1.29415,0.64707 2.26475,0.48531 2.26475,0.16177 2.58828,-0.80884 0.16177,-1.45591 2.10299,1.61767 0.9706,1.61768 1.13238,0.32354 1.61768,0.16177 1.77945,-1.45591 0.64707,-0.64708 2.42652,0 0.4853,0.48531 1.45591,1.61768 0.97061,0.16177 0.64707,0 1.29414,-0.64708 1.77945,1.13238 1.61768,0.80884 1.77945,0.64707 0.9706,-2.75005 0.97061,-2.26475 0.64707,-1.77945 -0.4853,-2.58829 1.13238,-2.58829 1.61767,-2.26475 0.32354,-2.91182 0.4853,-2.42652 1.13238,-2.58828 0.80884,-1.61768 1.77945,-3.23536 1.77944,-3.23536 0.16177,-2.91182 0.97061,-3.23536 -2.58829,-1.61768 -1.13237,-0.16177 -2.42652,-1.45591 0.97061,-2.75005 0.9706,-1.94122 0,-1.94121 -1.94121,-0.97061 -0.97061,-0.97061 -0.16177,-1.94121 0.16177,-0.48531 -2.42652,0.32354 -0.97061,1.45591 -1.29414,1.45591 -1.61768,0.80884 -3.07359,0.80884 -1.29414,-0.80884 -2.58829,-0.16177 -2.58829,-0.97061 -1.45591,0 -1.61768,1.61768 -1.45591,1.77945 1.61768,1.29414 -0.32353,1.13238 -2.10299,1.13237 -0.80884,1.13238 0,2.10298 0,1.29415 -2.10298,-1.29415 -0.97061,-0.32353 -2.58828,-0.16177 -0.80884,1.45591 -1.29415,1.29414 z"
       id="MN"
       inkscape:connector-curvature="0"
       inkscape:label="#path3927" />
    <path
       style="fill:#c6c1fe;stroke:#000000;stroke-width:0.45000000000000001;stroke-linecap:butt;stroke-linejoin:miter;stroke-opacity:1;stroke-miterlimit:4;stroke-dasharray:0.90000000000000002, 0.45000000000000001;stroke-dashoffset:0;fill-opacity:1"
       d="m 559.71701,394.45205 -0.48531,1.45591 -0.80884,2.58829 0.32354,2.58828 0.80884,0.16177 2.26475,0 1.29414,0.4853 2.42652,0.64708 0.97061,0.32353 2.58829,0.16177 2.26475,0.64707 2.75005,1.13238 2.10298,0 1.61768,-1.13238 3.39713,-0.80884 3.23536,0.48531 1.45591,-0.16177 2.42652,-0.48531 1.77945,-1.29414 1.77944,-0.4853 2.10299,0 2.58828,0.4853 2.10299,0.4853 1.29414,0.16177 2.26475,0.48531 2.42652,-0.48531 0.80884,0.64707 2.10298,-0.16176 2.91182,-1.61768 3.5589,-0.16177 3.55889,1.13237 2.58829,1.29415 3.07359,1.13237 4.0442,-2.26475 2.58828,-0.80884 0.97061,-1.94121 2.10299,-1.77945 0,-3.39713 -2.10299,-0.9706 -2.58828,-1.77945 0.16176,-1.29414 1.61768,-1.29415 -0.32353,-0.80884 -1.77945,-0.16177 -0.4853,1.29415 -1.13238,-0.97061 -0.80884,-0.97061 -1.61768,-0.9706 -2.10298,-1.61768 -3.07359,0.4853 -1.45591,0.97061 -1.61768,-0.97061 0.32353,-2.10298 0.16177,-1.61768 0.80884,-2.10298 -0.64707,-0.64708 0.80884,-1.29414 0.64707,-0.80884 -0.32354,-1.13238 -3.07359,0.64708 -1.29414,0.64707 -3.23536,0.97061 -1.94121,-0.97061 -0.80884,-0.32354 -1.29415,1.13238 -0.80884,1.94121 -0.9706,2.10299 -1.94122,-0.32354 0.48531,-1.94121 -0.97061,-1.29415 -1.45591,0.64707 -0.80884,1.29415 -0.97061,1.13237 0.32354,1.29415 1.61768,-0.48531 0.16176,0.48531 -0.80884,0.9706 -0.80884,0.32354 -0.80884,-0.4853 -0.4853,0.4853 0,1.13237 -1.94121,0 -1.45592,0.80884 -0.32353,1.94122 -1.29415,0 -1.29414,-1.45591 0.64707,-1.61768 0.80884,-1.29414 -1.45591,0.80883 -2.58829,1.61768 -0.9706,-1.94121 -1.29415,-0.4853 -1.13237,0 -0.64707,-0.32354 -1.45591,-0.16177 -1.61768,0.48531 -2.42652,-0.16177 -0.64707,0.16177 -1.61768,0.16176 -0.80884,-0.32353 -1.13238,-0.80884 -0.16177,0 -2.58828,-0.80884 -0.80884,0.32353 -1.61768,1.45592 -0.80884,-0.16177 -2.75006,0.32353 -2.26475,0.97061 -0.9706,1.13238 -1.45592,1.94121 -0.64707,1.29414 0.32354,1.13238 0,0.80884 0.80884,1.45591 -0.48531,0.97061 z"
       id="ML"
       inkscape:connector-curvature="0"
       inkscape:label="#path3929" />
    <path
       style="fill:#f3c997;stroke:#000000;stroke-width:0.45;stroke-linecap:butt;stroke-linejoin:miter;stroke-opacity:1;fill-opacity:1;stroke-miterlimit:4;stroke-dasharray:1.35,0.45;stroke-dashoffset:0"
       d="m 74.122902,461.55232 1.143872,-1.14387 1.715808,0.45755 0.80071,0.80071 -1.029485,1.60142 -1.372646,0.68633 -2.402131,1.60142 -1.944582,1.48703 -0.571936,0.80071 -0.571936,0 2.173356,0.80071 -4.117939,2.85968 -0.571936,-2.63091 -3.546003,6.17691 -2.287743,3.20284 -1.143872,1.48704 -0.915098,-0.45755 0,-0.80071 -0.80071,-0.11439 -1.258259,0.22878 -0.114388,-0.22878 -0.915097,0.34316 -0.915098,0.9151 -0.80071,1.14387 c 0,0 0.457549,0.11439 0,0.22878 -0.457549,0.11438 -0.571936,0.11438 -0.571936,0.11438 l -1.143872,0 -1.143872,0.45755 -0.343162,0.9151 -1.029484,-0.45755 -0.114388,-1.48703 -0.571935,1.48703 -1.25826,0.34316 -0.228774,0.45755 0.686323,0.9151 -1.143872,0.22877 -0.686323,-0.11438 0.114387,-0.80071 -1.944582,0.34316 -1.143872,-0.80071 -0.686323,1.60142 0,0.80071 -1.143872,-0.22878 -1.029485,-0.57193 -1.029485,-0.57194 -2.974067,1.14387 -2.287744,0.9151 -0.343161,-1.60142 0.80071,-2.6309 1.258259,-1.37265 -2.630905,0.22877 -1.143872,0.45755 c 0,0 -0.228774,0.11439 0,-0.45755 0.228774,-0.57193 0.343162,-1.14387 0.343162,-1.14387 l 0.228774,-0.80071 -0.686323,-0.57193 -1.830195,1.7158 -0.800711,3.20285 0.228775,2.17335 3.202841,5.26181 10.18046,11.32433 c 0,0 9.265363,9.37975 12.925753,16.24299 3.660391,6.86323 19.445823,13.3833 19.445823,13.3833 l 13.154528,-4.57549 3.66039,-0.57194 0.457549,-1.60142 -1.143872,-0.68632 c 0,0 0.114387,-0.68632 1.372646,-1.25826 1.258259,-0.57193 3.774778,1.02949 3.774778,1.02949 l 11.89627,-4.68988 -0.34316,-1.94458 0.22877,-1.71581 4.91865,-5.71936 0.9151,-2.51652 -0.57194,-0.57193 -1.14387,-1.25826 -0.57194,-0.57194 -0.57193,-2.6309 -2.7453,0.45755 -2.28774,-1.48704 0.34316,-1.02948 1.60142,0.68632 0.45755,-0.57194 2.05897,0.9151 -0.22877,-1.14387 -0.80071,-1.71581 0.11438,-1.37264 0.80071,-0.22878 1.25826,-0.80071 0.9151,0.11439 0.80071,-2.05897 0,-0.57194 0,-0.9151 -0.45755,-0.91509 1.25826,-0.9151 0.22878,-0.22877 0.80071,-1.25826 0.80071,-0.9151 2.85968,-0.57194 -1.71581,2.28775 0.45755,1.37264 1.25826,-0.11438 0.68632,-0.22878 1.25826,-0.45755 2.05897,-0.57193 3.546,0 3.546,0.45755 -2.17335,3.31722 -2.05897,-0.68632 -2.40213,-0.80071 -1.02949,0.22877 -1.37264,2.05897 0,1.14388 0.45755,2.6309 1.94458,0.34316 1.48703,-0.80071 1.25826,0.45755 -0.68632,1.14387 -0.80071,1.37265 -2.05897,0.22877 -0.80071,1.60143 -0.11439,1.94458 -0.80071,0.68632 -0.34316,0.34316 -0.22878,1.37265 3.20284,-0.57194 1.48704,0.80071 1.94458,-0.34316 2.05897,0 -3.546,2.85968 -1.37265,1.25826 -1.83019,1.02949 3.08845,0.91509 -0.68632,0.68633 -1.25826,0.11438 -0.57194,1.02949 0.68632,0.80071 -0.45754,0.34316 -0.45755,0.22877 -0.68633,1.94459 -0.34316,2.17335 1.48704,-1.25826 1.02948,-0.34316 0,1.71581 -1.02948,1.60142 1.60142,-0.80071 0.57193,-1.14387 1.14387,1.48703 -1.60142,1.02949 -1.14387,0.34316 2.85968,-0.80071 0.11439,1.48703 0.22877,0.57194 -2.51652,0.22877 -0.11438,1.14387 2.74529,0.34317 -1.25826,2.51651 0,2.40214 1.48703,-1.02949 1.14388,0.57194 0.91509,1.7158 -1.60142,0.9151 -0.91509,1.37265 0.80071,2.05897 -0.11439,1.14387 -0.11439,1.25826 -0.22877,0.9151 -1.8302,1.02948 -1.37264,1.48703 -1.02949,2.7453 0.22878,2.51652 -0.22878,2.17335 2.74529,-2.6309 2.05897,-0.45755 1.60142,0.45755 2.05897,1.48703 3.20285,1.14387 1.7158,-1.14387 1.37265,-0.22877 2.17336,-0.34317 0.22877,-1.83019 0.34316,-1.8302 -0.57193,-1.83019 0.91509,-2.40213 0.80071,-1.02949 -0.22877,-0.80071 -1.71581,-0.91509 0.45755,-2.17336 1.02949,-1.14387 0.68632,-0.68633 1.14387,1.8302 1.37265,1.37264 0.57193,0 1.37265,0.80072 0.45755,0.11438 1.71581,0.45755 2.40213,-0.9151 0.11438,-1.37264 0.45755,-1.37265 1.48704,-0.11439 0.68632,-1.14387 0.11439,-1.25826 -0.22878,-1.94458 -0.9151,-0.80071 0,-1.48703 -1.14387,-1.25826 0,-1.37265 -0.34316,-0.34316 -2.74529,-1.25826 -1.60142,-0.11439 -0.80071,-0.91509 0.45755,-0.9151 1.37264,0.11439 1.71581,0.80071 1.71581,-0.80071 2.51652,-2.63091 1.25826,0 -0.11439,-2.85968 1.60142,-0.68632 4.00355,-0.80071 3.20284,-0.45755 2.17336,-1.02949 0.22877,-1.25826 -2.28774,-0.11438 -1.25826,0.91509 -2.85968,-1.48703 -2.74529,0.80071 -3.31723,1.48703 -1.25826,-1.60142 -0.9151,-2.28774 3.20284,-1.02949 -1.02948,-0.80071 -0.11439,-1.02948 -1.14387,-2.05897 0.45755,-0.68632 1.25826,-0.68633 3.546,-0.80071 0.80071,-2.17335 1.94458,-1.48704 0.9151,-2.51651 -0.45755,-2.28775 -1.14387,-1.94458 -0.57194,-1.8302 0.34317,-1.94458 3.43161,1.48704 1.60142,-1.60143 -1.60142,-1.48703 -1.94458,0.68632 -0.57194,-0.80071 -1.48703,-1.7158 1.37265,-0.57194 2.05897,0.68632 1.02948,-1.94458 3.20284,-0.57194 2.28775,-2.17335 1.14387,-2.97407 0.11439,-1.83019 -2.40214,-0.9151 -0.34316,-1.8302 -0.45755,-4.68987 -0.80071,-0.57194 -1.25826,0 -2.17335,0 -0.9151,-0.22877 0.34316,-1.8302 0.11439,-0.68632 -3.88917,-3.08845 -1.25825,0.11438 -1.60143,-0.11438 -0.57193,-1.71581 -1.02949,-0.68633 -2.17335,0.45755 -0.80071,-1.7158 -0.34316,-2.85968 0.11438,-0.80072 -1.25826,-0.80071 -2.05897,1.71581 -0.22877,-1.60142 0.22877,-1.71581 -1.25826,-0.11438 -2.51651,-2.28775 -0.11439,-1.83019 0.57194,-1.14387 1.37264,-0.80071 -0.11439,-2.7453 -1.37264,-2.85968 -0.34316,0.68633 -1.14388,1.60142 -0.91509,0.22877 c 0,0 0.11438,0 -0.34316,0 -0.45755,0 -1.71581,-2.51652 -1.71581,-2.51652 l -2.17336,-1.94458 0.22878,-1.60142 1.37264,-1.60142 1.25826,-0.68632 1.02949,-1.14388 -0.45755,-0.22877 -1.25826,-0.34316 -1.37265,-0.22878 -0.11439,-2.05897 0,-1.02948 -3.20284,0.45755 -0.57193,1.14387 -0.80071,0.9151 -0.11439,1.02948 -1.14387,0.22878 -3.31723,-0.9151 -2.40213,-2.28774 -2.28775,-1.02949 -1.94458,1.48703 -1.37265,-1.7158 -1.83019,-1.8302 -1.14387,-0.22877 -0.45755,-1.94459 -2.97407,-0.57193 -2.05897,-1.14387 -3.77478,0.80071 -1.7158,-0.9151 -0.11439,1.71581 -1.48703,-1.25826 -4.23233,0.11439 -2.173357,-1.48704 -4.4611,1.25826 -4.003552,-0.34316 -2.058969,-0.68632 -2.402132,1.02948 -0.457548,1.8302 0.114387,1.14387 0.228774,0.68632 2.173357,1.48703 1.143872,0.9151 -0.915098,1.48704 -2.630905,0.22877 -1.601421,-0.22877 -1.601421,1.02948 -0.80071,2.28774 -2.173357,0.22878 -5.033036,-1.14387 0,-2.51652 0.686323,-2.85968 -3.889165,0.9151 -2.402131,0.68632 -4.804262,0.57194 -3.088454,3.20284 -6.405683,0.57193 -2.974067,-1.94458 -0.571936,-1.94458 -8.235878,0 -1.944582,0.34316 -0.571936,0.22877 -1.487034,-0.11438 -2.058969,-0.22878 -1.487034,0.9151 -1.143872,-0.80071 -0.228774,-1.94458 -1.944582,-0.11439 -0.343162,1.02948 -1.487034,-0.68632 -1.944582,0.80071 -0.114387,7.2064 -0.915098,1.37264 -4.232326,-0.45755 -4.689875,-0.80071 -1.830195,0 -2.058969,2.05897 -0.915098,1.14387 0,2.17336 1.143872,2.05897 -2.058969,1.71581 -0.800711,0.80071 2.402131,0.80071 2.287744,0 2.630906,-4.00355 2.630905,-0.80071 2.173357,-2.28775 2.85968,0.11439 1.715808,-1.71581 0.686323,2.05897 -6.176909,2.63091 -0.686323,1.25826 -1.143872,0.45754 -1.372646,0.22878 -0.457549,1.71581 -0.80071,0.11438 -0.571936,0.9151 0.114387,1.37265 -0.457549,0.57193 2.173357,-0.68632 0,0.9151 -1.143872,0.80071 0.228774,1.14387 0.915098,0.9151 0.686323,0.80071 1.143872,0.68632 -0.228775,0.80071 c 0,0 -0.915097,0.11439 -0.457548,0.57194 0.457548,0.45755 1.029484,1.48703 1.029484,1.48703 l 0.343162,0.57194 0.571936,1.25826 1.487034,1.48703 1.258259,1.71581 c 0,0 1.372646,2.28774 3.088454,3.20284 1.715808,0.9151 7.435168,3.20284 7.435168,3.20284 l 5.376198,1.60142 3.088454,0.34316 3.546003,0.45755 2.745293,-0.22877 2.058969,-1.14387 2.516518,-0.57194 3.088455,-0.22877 0.114387,-1.14388 1.487033,-1.60142 1.029485,0.68633 1.487034,-0.9151 -0.915098,-1.48703 2.287744,-2.51652 1.944582,-0.9151 1.487034,0.22877 2.173356,0.80071 4.346714,0.22878 z"
       id="GJ"
       inkscape:connector-curvature="0"
       inkscape:label="#path2997" />
    <path
       style="fill:#6dcbcd;stroke:#000000;stroke-width:0.44999999;stroke-linecap:butt;stroke-linejoin:miter;stroke-opacity:1;fill-opacity:1;stroke-miterlimit:4;stroke-dasharray:1.34999996,0.44999999;stroke-dashoffset:0"
       d="m 166.45919,266.33188 0.9706,2.91182 0.80884,1.45591 -0.4853,1.61768 -0.4853,2.91182 -0.97061,0.4853 -0.97061,0.64708 c 0,0 0.80884,2.26475 1.94122,2.26475 1.13237,0 2.10298,0 2.10298,0 l 3.55889,0 1.61768,0.16176 1.94122,0.16177 1.29414,0.32354 1.45591,0.16177 1.45591,0.4853 0.80884,-0.26287 0.72796,0.0202 1.71878,-0.0809 0.60663,-0.3842 0.30332,-0.0809 0.72795,-0.28309 1.65812,-0.0607 1.37503,0.18199 1.51658,1.1526 1.37502,1.43569 0.74818,0.36398 0.42464,-0.0405 0.58641,-0.74817 1.07171,-0.36398 0.54597,0.24265 -0.74818,1.61768 -0.14155,0.40442 1.07172,1.23348 0.58641,-0.0404 0,-0.93017 0.8695,-1.03127 0.62685,1.77945 0.42464,0.80884 -0.0404,0.84928 -0.88973,0.88973 -0.38419,0.70773 -0.12133,0.62685 0.30331,0.68751 1.57724,1.86034 0.95039,-0.0607 0.30331,-0.32353 0.0809,-0.54597 -0.54597,-0.60663 1.55702,-1.13238 0.5864,-1.59745 0.58641,-0.68752 0.6673,-0.70773 1.33458,-0.7684 0.88973,0.7684 1.03127,1.17282 1.05149,0.0404 0.4853,-1.01105 1.88055,-0.10111 1.35481,-1.13237 0.82906,-0.16177 1.05149,0.90994 1.07171,0.2831 0.68752,1.15259 0.28309,0.54597 1.11216,0.18199 0.95038,-0.30331 c 0,0 0.97061,-0.6673 1.07171,-0.7684 0.10111,-0.10111 1.03127,-0.64707 1.03127,-0.64707 l -0.12132,-0.6673 0.62685,-0.68751 0.95039,0.22243 0.80884,0.20221 1.15259,-1.31436 -1.29414,-1.27393 -0.50553,-0.36397 0.70774,-1.5368 0.88972,-0.90994 0.40442,-0.34376 0.12133,-1.33459 -1.27392,-1.47613 0.12132,-0.8695 0.8695,-0.36398 1.39525,1.81989 0.52575,0.28309 0.62685,-0.66729 0.32353,-0.44486 0.36398,0.68751 0.32354,-0.18198 0.0809,-0.56619 0.22243,-0.64707 0.48531,-0.0607 0.64707,0.72796 0.0607,0.52574 1.35481,1.33459 0.56619,0.1011 0.99082,-0.4853 1.27393,-0.14155 -0.30332,-0.88972 0.60663,-1.05149 1.05149,0.32353 0.0809,-0.50552 -1.09194,-1.37503 -1.33458,-0.0809 -0.18199,-0.68752 1.90077,-0.95038 1.65812,-1.59746 -0.14154,-0.82906 2.04232,-1.47613 0.82906,0.18199 0.70773,1.27392 0.7684,1.47613 0.58641,-0.18199 -0.10111,-4.6306 -0.80884,-0.88973 0,-0.36398 0.88973,-0.18198 0.52574,-0.44487 0.16177,-4.06442 -1.1526,-1.07171 -1.69856,-0.46508 -0.84928,-0.90995 0,-3.35668 -0.68751,-0.54597 -1.96144,-0.62685 -1.23348,-1.49635 -0.14155,-1.03127 0.44486,-1.01105 0.24266,-1.19304 0,-0.95039 c 0,0 0.18198,-1.2537 0.1011,-1.31436 -0.0809,-0.0607 -0.36398,-0.78862 -0.36398,-0.78862 l -0.54596,-0.42464 -1.86033,-0.40442 -0.97061,-0.50552 -1.02091,-2.71732 -1.31545,-0.62913 -0.9151,0.80071 -0.22877,1.25826 -1.08668,1.08668 -1.31545,-0.28597 -1.37265,-3.08845 -1.60142,-3.546 -1.25826,-2.11617 -1.25826,-2.74529 -0.0572,-4.00355 0,-1.8302 -3.71759,-2.34493 -2.34493,-1.8302 -1.20107,-0.62913 -0.17158,-0.9151 1.08668,-1.37264 0.62913,-2.45933 2.6309,-2.34493 1.773,-1.94459 0.9151,-1.20106 -1.48703,-1.08668 -1.25826,-0.45755 -2.05897,0.68632 -1.08668,1.48704 -1.773,0.57193 -0.68632,0 -0.80071,1.65862 0,1.65861 -3.20284,-1.54423 -1.02949,1.08668 0.17158,1.54423 -0.68632,1.42984 -2.00178,1.94458 -3.94636,0.68633 -3.77477,0.34316 -2.6881,1.7158 -1.8302,1.8302 -2.00177,0.11439 -0.51475,0.8579 -1.83019,2.45933 -1.14387,3.83197 2.00177,2.45932 0.40036,1.02949 -1.08668,0.62913 1.42984,1.65861 -0.28597,0.9151 -2.45932,2.05897 -0.0572,4.91865 1.25826,1.773 1.14388,-0.45755 1.08667,0.17158 0.57194,0.8579 -0.51474,0.9151 -2.00178,0.0572 -1.773,0.0572 -0.62913,0.9151 -7.83552,8.57903 -2.00178,2.6881 -1.14387,1.02949 -1.14387,0.97229 -2.11617,0.51474 -0.40035,1.02949 0.74352,0.80071 z"
       id="PB"
       inkscape:connector-curvature="0"
       inkscape:label="#path3006" />
    <path
       style="fill:#bde5e7;stroke:#000000;stroke-width:0.45000000000000001;stroke-linecap:butt;stroke-linejoin:miter;stroke-opacity:1;stroke-miterlimit:4;stroke-dasharray:1.35000000000000009, 0.45000000000000001;stroke-dashoffset:0;fill-opacity:1"
       d="m 214.13282,208.52788 1.71581,-2.05897 c 0,0 0.45755,-2.7453 0.45755,-3.31723 0,-0.57194 0,-1.48704 0,-1.48704 l -1.25826,-1.94458 -1.48703,-1.02948 0.45754,-1.25826 1.25826,-0.22878 1.60142,1.25826 0.45755,0 1.14387,-0.11438 2.05897,-2.17336 0.57194,-1.02949 1.25826,0 c 0,0 0.80071,0.22878 1.25826,-0.11438 0.45755,-0.34317 2.17335,-1.48704 2.17335,-1.48704 l 0.11439,-2.05897 1.60142,-0.80071 1.48704,0 4.91865,0.11439 1.83019,-0.22877 1.60142,-0.80071 0.80071,0.45754 -0.11439,2.85968 1.71581,1.71581 2.63091,1.8302 2.6309,1.60142 2.40213,0.80071 1.25826,0.45755 1.37265,1.02948 1.71581,-0.9151 1.02948,0.22878 2.05897,-1.14387 2.97407,-1.60142 0.80071,-0.34317 2.51652,2.97407 0.22877,1.25826 2.17336,2.28774 0,2.28775 1.60142,2.05897 3.88916,-1.48704 1.37265,-0.22877 2.40213,-1.02949 0.34316,-1.25825 1.02949,-0.45755 0,2.97406 -2.28775,4.68988 1.8302,0.22877 1.83019,-1.83019 1.94459,2.28774 0.22877,0.68633 0,0.91509 -0.57194,1.94458 0,1.14388 1.25826,1.14387 1.25826,1.25826 0.45755,1.94458 1.37265,0.80071 1.02948,2.40213 1.48704,1.25826 -1.60143,3.546 0.68633,2.63091 1.83019,2.97407 0.34316,2.05897 -2.05897,2.51651 1.8302,0.80071 0.34316,2.63091 1.25826,0.68632 1.02949,0.34316 -1.14388,2.17336 1.48704,2.97407 0.34316,1.71581 -1.14387,0 -2.97407,-1.71581 0.34316,-0.68633 -3.66039,-0.34316 -1.02948,-0.57193 -1.64442,0.0248 -0.2831,0.70773 -2.95226,-1.1526 -1.88055,-1.57723 -0.95039,-0.10111 -1.43569,0.74818 -0.34376,0.68751 -1.31436,0.68752 -0.84928,0.0202 -1.73901,1.33458 -0.70773,-0.0607 -0.44486,0.44486 -1.55702,-0.74818 -1.01105,0.46509 -1.67834,2.46696 -1.03127,0.46508 -0.16177,0.7684 -0.0809,0.64707 0.84928,0.62685 -0.32354,0.4853 -1.15259,-0.34375 -1.11216,0.3842 0.58641,0.93016 1.59746,0.72796 0.18199,0.54596 -0.64707,0.50553 -0.80884,0.64707 -0.62685,1.39525 0.0202,2.58829 0.99082,1.77944 -0.36397,1.27393 -0.26288,0.84928 0.99083,1.17281 -0.22243,0.68752 -2.04232,0.12132 -1.92099,0.88973 -1.17282,1.13237 -0.33202,0.67863 -1.45844,-0.9151 -0.0572,-0.35746 -0.64343,0.22878 0,0.42895 -1.22966,-0.64343 -0.48615,0 -0.30026,0.22878 -1.8159,-1.01519 -1.54423,-0.40036 -2.94547,-1.85879 -0.38605,-0.61483 1.00088,-0.8865 0.48615,-1.30115 -0.42895,-1.77301 -0.60053,-1.05808 -1.25826,-0.70062 -1.21537,-0.8436 -0.95799,-0.9008 -0.9294,-0.65773 -0.44325,-0.95799 -1.50133,-0.32887 -0.45755,-0.15728 -0.40035,-0.9008 -0.50045,-0.50044 -0.81501,-0.11439 -0.92939,-0.50044 -1.21536,-0.37176 c 0,0 -0.44326,-0.11439 -0.50045,-0.11439 -0.0572,0 -1.25826,-1.37264 -1.25826,-1.37264 l -0.11439,-0.9151 0.28597,-0.9294 0.30027,-0.8436 0.15728,-0.78641 -0.0286,-0.87221 0.0858,-0.9008 -0.11439,-0.50044 -0.35746,-0.65773 -0.52904,-0.45755 -1.24396,-0.24307 -0.80071,-0.27167 -0.55764,-0.34316 -0.74352,-1.34405 -0.60053,-1.45844 -1.18677,-0.55763 -0.8579,0.64343 -0.22878,1.45843 -1.10097,0.97229 -1.37265,-0.25737 0.0715,0.0715 -0.58623,-1.35834 -2.6595,-5.91954 -1.00089,-1.52993 -0.8865,-1.83019 -0.41466,-1.10098 0,-2.6595 -0.0715,-3.13135 -1.71581,-0.8865 -4.16083,-3.01697 -1.42984,-0.8579 -0.0858,-1.04378 1.08668,-1.34405 0.54334,-1.8302 0.10009,-0.50044 1.22966,-1.01519 2.43073,-2.41643 1.65861,-2.05897 -1.37265,-1.01518 -1.22966,-0.42896 z"
       id="HP"
       inkscape:connector-curvature="0"
       inkscape:label="#path3776" />
    <path
       style="fill:#f3f1a1;stroke:#000000;stroke-width:0.45;stroke-linecap:butt;stroke-linejoin:miter;stroke-opacity:1;fill-opacity:1;stroke-miterlimit:4;stroke-dasharray:1.35,0.45;stroke-dashoffset:0"
       d="m 202.69521,213.43374 -7.11779,-5.33834 -0.80884,0.97061 -3.07359,-0.4853 -4.52951,-0.32354 0.16177,-4.20597 1.45591,-5.33834 -1.29414,-0.32353 -2.26475,2.75005 -2.42652,-0.97061 -2.26475,-0.64707 -1.61768,-1.61768 -4.69127,-2.26475 -3.72066,-2.42652 -1.29414,0 -0.80884,0.32354 -0.32354,0.16177 -0.64707,0.4853 -1.13238,-1.77945 -2.91182,-2.75005 -0.80884,-1.94122 0.16177,-6.63248 0.80884,-4.69127 -1.13238,-6.47072 -0.4853,-5.50011 -0.80884,-5.98541 0.32354,-3.55889 -1.77945,-1.13238 1.61768,-4.69127 4.36773,-0.4853 1.29414,-0.97061 -0.16176,-2.58829 3.07359,-2.91182 3.55889,-0.16177 1.94122,-3.55889 1.29414,-4.20597 -2.10298,-2.75005 -4.85304,-1.61768 -1.13238,0 -0.32353,-2.42652 0,-1.45591 2.26475,-2.42652 -1.77945,-1.94122 -2.42652,1.29415 -2.91182,-0.80884 -1.61768,-1.77945 -1.29414,-1.94121 -1.45591,-0.16177 -2.42652,-1.61768 -1.13238,-1.13238 0.64707,-2.75005 -2.10298,-1.61768 -1.77945,0.64707 -0.4853,0 -3.39713,-0.97061 -3.55889,1.29415 -3.23536,-2.42652 0.64707,-3.5589 0.32354,-4.04419 2.10298,-1.77945 2.91182,-0.485305 1.29415,-2.426518 1.61768,-2.588287 2.26475,-0.323536 0.64707,-2.264751 2.26475,-1.779447 -0.32354,-2.102983 2.42652,-0.970608 3.39713,0 1.29414,-0.808839 3.39713,0.970607 5.98541,1.294144 1.29415,-0.161768 1.45591,-0.970608 -3.39713,-3.558894 -0.97061,-1.294143 3.23536,-0.323536 2.10298,2.264751 1.61768,1.132375 3.07359,-2.102983 3.39713,-1.617679 3.23536,-0.970608 2.58829,0.161768 1.77944,-2.264751 0.97061,0 3.55889,1.61768 2.26476,2.426519 2.42651,-1.132376 1.61768,0.161768 3.5589,-3.397126 3.39712,4.044198 -0.16176,2.102983 5.0148,3.720662 3.72066,5.338341 2.75006,1.941215 4.36773,0.647072 1.29415,3.397126 2.58828,0.808837 1.77945,0.48531 2.42652,2.58828 0.97061,1.77945 3.88243,0.16177 1.77944,3.39712 -1.29414,4.20597 3.07359,2.42652 3.55889,0.97061 1.77945,0.16177 2.42652,0.9706 2.42652,0.64707 1.61768,0.48531 0.97061,1.29414 0.32353,1.61768 0.16177,1.45591 -2.91182,0.48531 2.58828,2.75005 4.52951,-0.80884 1.77944,-0.32354 0.16177,-1.45591 4.36773,1.94122 1.45592,-3.5589 3.23535,2.58829 1.45592,-2.75005 0.80884,-1.61768 2.91182,-1.45591 3.72066,-1.61768 4.36773,-2.10299 3.39713,-0.16176 2.91182,-0.16177 2.42652,0.97061 1.77945,-0.16177 1.45591,-3.07359 2.91182,-1.29415 1.77945,0 0.32354,1.94122 1.77944,1.13237 3.23536,1.29415 2.58829,1.29414 2.26475,0.64707 3.39713,-1.45591 0.9706,1.94122 0.97061,2.26475 2.58829,0.80884 1.94121,1.94121 0.97061,1.94122 -1.29414,6.14718 -2.58829,5.66188 0.32354,3.39712 -1.94122,4.20597 0,2.91182 -1.29414,2.58829 -2.58829,-1.29415 -1.61768,1.61768 -1.29414,1.29415 0.32353,2.58828 -0.32353,0.97061 -3.72066,-0.80884 -1.77945,0.64707 0.32353,6.47072 -2.42651,1.77945 -0.80884,4.5295 -4.36774,-1.13238 -3.39712,0.80884 -5.01481,0 0.80884,3.07359 1.61768,2.58829 1.45591,3.07359 0.4853,2.75005 -4.20596,0 0.64707,3.0736 -0.16177,2.75005 1.45591,1.94121 3.72067,1.45592 4.36773,0.32353 2.26475,0.16177 -0.97061,5.17657 -0.16177,2.91183 5.01481,5.50011 1.13238,1.77944 -5.01481,5.33834 -1.77945,-1.94121 -1.13237,0.4853 -0.80884,1.94122 -2.58829,0.64707 -2.10298,2.91182 -2.26475,0.32354 -2.42652,-1.29415 -1.94122,-2.26475 -0.64707,-5.0148 0,-1.13238 -3.23536,1.61768 -3.07359,1.61768 -1.94121,1.61768 -1.94122,1.45591 -1.94121,0.16177 2.26475,-3.88243 0.4853,-0.80884 -0.80884,-1.94122 0.60663,-0.80884 -1.21326,0.48531 -0.20221,1.09193 -2.87138,1.13238 -1.41547,0.32353 -3.35668,1.37503 -1.73901,-2.06254 -0.0404,-2.34564 -1.86033,-2.0221 -0.36398,-1.2537 -2.95226,-3.31624 -4.85304,2.83094 -0.52575,0.36398 -1.17281,-0.2831 -1.57724,0.93017 -2.30519,-1.2537 -2.50741,-0.84928 -2.34563,-1.21326 -1.49635,-0.97061 -3.43757,-2.7905 0.0809,-3.11403 -0.7684,-0.4853 -1.2537,0.68751 -1.77944,0.20221 -2.3052,-0.0404 -2.38607,-0.12133 -2.10299,0.16177 -1.65812,0.72796 0,1.94121 -1.45591,1.13238 -1.53679,0.76839 -1.94122,-0.16176 -1.29414,1.90077 -1.33459,1.37503 -1.53679,0.16176 -1.5368,-1.17281 -0.68751,-0.0809 -0.60663,0.20221 -0.36398,0.80884 0.80884,1.09194 1.739,1.739 0.24266,1.21326 -0.32354,2.38608 -0.28309,1.69856 -2.06254,2.54785 -2.18387,0.76839 -1.13238,1.65812 -2.22431,0.56619 -0.12132,-0.16177 -1.05149,1.98166 0.20221,1.2537 -3.19492,-1.53679 -0.84928,0.76839 z"
       id="JK"
       inkscape:connector-curvature="0"
       inkscape:label="#path3778" />
    <path
       style="fill:#f3f1a1;stroke:#000000;stroke-width:0.44999999;stroke-linecap:butt;stroke-linejoin:miter;stroke-opacity:1;fill-opacity:1;stroke-miterlimit:4;stroke-dasharray:1.34999996,0.44999999;stroke-dashoffset:0"
       d="m 230.26142,885.81443 2.17336,1.48703 2.40213,1.60142 1.37265,2.28775 5.26181,1.7158 1.83019,0.45755 1.02949,-1.25826 -0.11439,-1.7158 4.23233,-1.25826 4.23232,-2.63091 3.08846,-1.71581 1.48703,-0.68632 2.05897,-4.00355 0.11439,-2.51652 0,-3.20284 2.17335,-1.25826 -1.25826,-1.60142 0.9151,-3.77478 2.17336,-2.17336 4.23232,-2.40213 3.08846,-0.22877 1.14387,-0.11439 2.17336,-1.14387 1.83019,-0.80071 2.51652,-0.9151 4.34671,-1.02948 5.49059,0 3.77478,0.22877 3.31722,2.05897 1.60143,0.80071 1.02948,0.9151 -0.22877,-0.80071 -3.43162,-2.74529 -1.60142,-1.02949 1.25826,-0.9151 -0.80071,-0.45754 -1.48704,-0.34317 -1.7158,0.80071 -0.57194,0.57194 -2.97407,0.11439 -2.17335,-1.25826 -2.7453,-3.08846 0.68633,-3.77477 3.20284,-5.03304 4.57549,-5.49059 1.83019,-1.94458 -0.80071,-2.17335 1.02949,-2.40214 -0.22878,-1.60142 4.23233,-1.94458 2.05897,0.11439 0.9151,-0.22878 0,-1.14387 0.68632,-0.22877 1.25826,0 0.11438,1.25826 0.9151,0.11438 0.9151,-1.14387 2.63091,0.80071 1.37264,1.48704 2.28775,0.11438 -0.45755,-14.41278 -0.68633,-0.80071 -1.60142,-2.05897 -1.14387,-1.25826 -0.57194,-0.9151 0.57194,-1.94458 2.63091,-0.22878 0.45755,0.11439 c 0,0 0.91509,-5.71936 0.34316,-6.06252 -0.57194,-0.34316 -1.37265,-5.03304 -1.37265,-5.03304 l -1.60142,0.57194 1.48703,-1.8302 -1.48703,-4.91865 1.60142,-4.68987 -1.48703,-0.57194 -1.02949,-1.02948 -1.25826,0.9151 -1.37264,-5.71936 3.66039,-1.60142 2.74529,2.05897 7.43517,-12.12505 -3.43162,-2.51652 1.71581,-1.02948 3.08845,1.94458 2.85968,-12.4682 1.60142,-9.03659 0.22878,-3.88916 0,-0.68633 -3.43162,-1.71581 -1.14387,0.11439 -2.05897,-1.83019 -0.34316,-0.57194 -1.48703,0.80071 0,1.94458 -2.17336,1.02949 0,1.48703 -0.80071,1.02949 -2.40213,0.91509 -2.40213,-0.68632 -0.22878,1.94458 1.60142,0.68633 0,0.34316 -1.7158,0.11438 -1.48704,-1.94458 0,-0.22877 -0.45755,-0.11439 -1.83019,1.37265 -1.48704,-1.8302 -2.6309,-0.57193 -0.9151,0.57193 -0.11439,0.22878 0.11439,1.37264 0.9151,1.02949 -2.63091,0.80071 0.80071,1.60142 -2.85968,-0.22878 -0.68632,-0.57193 -1.25826,1.02948 -0.45755,2.17336 -2.40213,0.68632 -2.51652,-1.48703 -1.02948,-0.57194 -0.9151,0.11439 -0.68632,0.9151 -1.02949,0.22877 -0.11438,-0.57193 -0.45755,-0.9151 -3.54601,0.22877 -2.28774,1.94459 -0.68632,1.02948 0,1.48703 -1.48704,1.8302 -0.11438,1.83019 -1.60142,1.60142 0.34316,0.80072 -1.37265,-1.02949 -0.45755,1.94458 -0.9151,1.25826 -4.34671,-2.40213 -1.02948,-1.71581 -3.31723,-1.25826 -1.25826,-1.37264 -1.60142,2.28774 -2.74529,-2.74529 -2.85968,0.11439 -0.22878,2.97406 -1.83019,2.40213 -3.31723,0.68633 -1.25826,1.14387 0.9151,3.88916 0.91269,1.21026 -0.88972,1.81989 -2.34564,2.42651 -1.69856,0.80884 0.28309,1.09194 1.01105,0.68751 3.68022,-0.0404 2.7905,1.01105 0.7684,1.61768 -0.16177,0.68751 -1.2537,1.57724 -1.65812,0.44486 -0.36398,0.97061 -1.13238,1.01105 -2.87138,0.40442 -0.36398,0.72795 -1.33458,1.01105 -0.12133,2.22431 -0.28309,0.60663 -0.88973,-0.64707 -1.53679,0.88972 -1.57724,-1.53679 -3.15447,0.28309 -1.2537,0.68752 -0.36398,0.80884 -1.37503,-0.2831 -1.41547,-2.42652 -2.06254,0.56619 -2.42652,2.91182 -0.0809,1.73901 -0.32354,0.56619 -1.81989,-0.12133 -0.40442,-0.12133 -2.58828,-0.0809 -1.65812,0.44486 -2.14343,-1.65812 -0.32354,-0.60663 -2.14342,1.01105 -0.44486,0.88972 -2.34564,1.25371 -1.98165,0.24265 -0.72796,0.40442 -0.56619,1.2537 0.97061,1.739 2.38608,0.24266 2.38607,1.01105 1.61768,0.88972 1.13238,0.84928 0.24265,1.49635 -1.81989,1.37503 -0.28309,0.56619 1.33458,0.93016 2.95227,0.2831 0.84928,-1.45591 2.0221,0.4853 0.28309,-0.0404 -0.72795,0.88972 -0.40442,1.13238 2.10298,2.26475 0,1.17282 -2.75006,-0.20221 -0.9706,3.03314 4.32729,0.84929 1.05149,1.77944 -0.0404,0.48531 1.739,0.93016 -1.41547,3.59934 -1.49635,0.60663 0.36398,3.88243 0.16177,3.88243 0.80884,2.91182 2.62873,0.93017 1.57723,-0.7684 3.51845,-2.62873 2.34564,0 1.69856,4.08464 -0.20221,2.26475 -1.98165,0.72796 1.37502,3.88243 -0.64707,1.45591 -0.32353,4.5295 -0.16177,0.60663 -1.45591,3.43757 1.01105,0.7684 2.70961,0.60663 1.33458,0.12132 1.61768,1.57724 -0.16176,1.2537 -1.73901,1.86033 -1.05149,2.91182 -0.36398,0.84929 -0.60663,2.62872 -1.739,2.46696 -1.21326,0.80884 -0.72796,1.5368 1.5368,2.5074 1.21326,1.57724 0,2.0221 -1.57724,1.45591 -0.52575,1.57724 1.90078,2.58828 0.64707,1.37503 -0.80884,1.45591 -1.13238,0.12133 -0.44486,1.65812 -1.41547,1.17282 0.80884,1.77944 z"
       id="path3780"
       inkscape:connector-curvature="0" />
    <path
       style="fill:#b7ef80;stroke:#000000;stroke-width:0.45000000000000001;stroke-linecap:butt;stroke-linejoin:miter;stroke-opacity:1;stroke-miterlimit:4;stroke-dasharray:1.35000000000000009, 0.45000000000000001;stroke-dashoffset:0;fill-opacity:1"
       d="m 627.17423,427.21005 -0.88972,2.83094 1.94121,0.24265 1.41547,-1.45591 -0.40442,-1.86033 1.77945,-1.01105 1.17282,-2.70961 2.91182,-4.20597 0.68751,1.65812 1.33459,1.09194 3.92287,-0.24266 0.32354,-0.60663 0,-1.81989 -0.32354,-1.61767 -0.7684,-1.61768 -0.0809,-1.77945 1.29414,-1.5368 1.17282,-1.21326 -0.88972,-0.76839 -0.80884,-1.65812 0.20221,-0.60663 3.39712,-2.66917 1.65812,-2.38608 -0.32353,-1.5368 -1.13238,-0.60663 1.65812,-2.87138 0,-0.52574 1.37503,-1.17282 0.68751,-1.49635 1.01105,-0.16177 0.64708,-2.83094 -1.13238,-1.41547 -2.22431,-0.60663 -0.52574,-0.40442 0.0404,-2.14342 1.33458,-2.22431 3.51846,-3.68022 1.53679,-2.62873 1.90077,-1.49635 1.01105,-1.57724 0.84928,0.0809 0.36398,3.47801 1.77945,-0.60663 2.10298,-1.17281 0.52575,-0.60663 0.16177,-1.65813 -0.72796,-1.65812 -0.12133,-1.81989 0.60663,-1.77944 0.44487,-2.14343 1.01105,-2.18387 1.61767,-3.11403 1.94122,-3.88243 1.01105,-0.16177 0.36398,1.45592 0.44486,0.32353 1.77945,-1.45591 1.09193,-2.14342 1.05149,-2.70962 2.06254,-1.17281 1.13238,-0.48531 1.21326,-1.41547 2.46696,-1.49635 1.94121,-2.54785 0.88973,-0.9706 1.41547,0.12132 0.9706,-0.52574 2.62873,-2.22431 1.17282,-0.56619 0.64707,-0.93017 1.29414,-0.12132 1.98166,-1.69856 2.5074,-1.13238 0.16177,-1.90077 0.80884,-1.33459 1.05149,-0.60663 1.2537,0.68752 0.97061,-0.2831 1.13238,-0.64707 1.90077,-0.72796 2.95227,-1.01105 2.2243,-2.06254 0.64708,-1.01105 -1.57724,-1.77944 -0.72796,0.88972 -0.84928,1.65812 -1.05149,-1.94121 0.32354,-1.90078 -1.01105,-1.17281 -0.60663,-1.09194 -0.52575,-2.06254 -0.97061,-0.64707 -0.28309,-1.61768 0.7684,-1.21326 1.45591,-0.80884 1.57724,-2.79049 0.56618,-1.21326 -1.2537,-0.7684 -0.44486,0 -1.05149,0.52574 -2.83094,0.24266 -1.73901,-0.0809 -0.9706,0.40442 -1.98166,2.38608 -1.77945,0.84928 -1.33458,0.72796 -3.76111,-0.12133 c 0,0 -2.5074,1.69856 -2.70961,1.77945 -0.20221,0.0809 -3.88243,1.739 -3.88243,1.739 l -4.40818,3.07359 -3.72066,1.57724 -3.39712,1.77945 -2.0221,0 -0.60663,0.56618 -0.84928,0.20221 -1.57724,-0.88972 -0.80884,-1.05149 -1.57724,1.13238 2.30519,2.62872 -2.9927,2.66917 -4.77216,5.09569 -2.06254,2.3052 -3.2758,6.06629 -0.88972,1.17282 -2.70961,0.12133 -2.06254,0.80884 -1.77945,-0.52575 -2.58829,-0.0809 -3.92287,1.86033 -0.64707,-0.24265 -0.60663,0.68751 -1.65812,-0.20221 -1.73901,-1.5368 -2.54784,-1.09193 -3.31624,-0.60663 -2.42652,1.57724 -2.62873,1.53679 -4.97437,1.65813 -1.90077,0.40442 -1.98166,0.60662 -0.80884,1.17282 -2.46696,-0.16177 -1.94121,-1.69856 -1.5368,0.36398 -0.40442,1.29414 -1.09193,1.09194 -1.41547,0.56618 -3.07359,0 -1.17282,0.48531 -1.69856,-0.0404 -1.49635,-0.7684 -0.48531,0.16177 -1.41547,1.77944 -1.49635,0.0809 -0.84928,-0.52575 -2.91182,-0.24265 -1.57724,0.56619 -1.61768,0.88972 -2.38608,0.12133 -2.91182,0.44486 -4.36773,0.36398 -3.96332,-2.18387 -2.34563,-0.64707 -1.09194,1.17281 -2.95226,0.0809 0.4853,1.61768 0,0.84928 -2.5074,1.05149 -3.2758,0.36398 -2.14343,0.60663 -0.36397,0.93016 0.52574,3.23536 -0.32353,4.00376 -0.44487,2.22431 -1.17281,0.64707 -0.56619,1.69856 -0.20221,1.73901 1.57724,2.0221 1.86033,1.33458 -0.24265,7.19867 -0.40442,1.09194 0.40442,1.61768 0.84928,2.10298 0.7684,1.45591 0.80884,0.24265 0.93016,-1.05149 0.24265,-1.05149 -0.78862,-1.37503 -0.0202,-0.93016 -0.28309,-0.78862 0.62685,-1.17282 1.51657,-2.20409 0.82906,-0.88972 1.37503,-0.70774 1.84011,-0.62685 1.94122,-0.12132 0.9706,0.18199 1.17282,-1.21326 1.11216,-0.70774 1.51657,0.54597 1.41547,0.4853 1.01105,0.78862 0.93017,0.20221 1.33458,-0.18199 1.2537,-0.16176 1.51658,0.16176 1.3548,-0.26287 1.11216,-0.22243 1.37502,0.30331 0.72796,0.24266 0.54597,-0.0202 1.55701,0.42464 0.54597,1.23348 0.28309,0.80884 2.50741,-1.45592 1.21326,-0.88972 0.18198,-0.0404 -0.82906,1.59746 -0.40442,1.19304 1.23348,1.53679 1.37503,-0.0404 0.24265,-1.75923 0.0202,-0.26287 1.6379,-0.72796 1.71878,-0.0607 0.0607,-1.01105 0.22243,-0.30331 0.34376,-0.22243 0.8695,0.50552 0.68752,-0.4853 0.82906,-0.99083 -0.20221,-0.60663 -1.49636,0.68751 -0.4853,-1.17281 1.19304,-1.41547 0.66729,-1.25371 1.49635,-0.44486 0.86951,1.31437 -0.40442,1.51657 -0.0404,0.46508 2.10298,0.30332 0.42464,-1.55702 1.05149,-2.24453 0.18199,-0.42464 0.68751,-0.64707 0.56619,-0.36398 2.5074,1.17282 1.71879,-0.28309 1.92099,-0.60663 0.82906,-0.46509 1.23348,-0.40442 1.59746,-0.3842 0.46508,0 0.32354,1.29415 -1.17282,1.3548 -0.20221,0.56619 0.40442,0.48531 0.0404,0.64707 -0.52574,1.2537 -0.0809,0.70773 -0.30331,1.47614 -0.12133,1.23348 0.0202,0.84928 1.13238,0.64707 0.34376,0.12133 1.41547,-0.84929 2.79049,-0.52574 0.34376,-0.0202 1.59746,1.21326 1.21326,0.80884 0.90994,0.54596 1.19304,1.29415 0.66729,0.72795 0.24265,-0.12132 0.3842,-1.27393 1.77945,0.22243 0.3842,0.78862 -1.61768,1.1526 -0.16177,0.44486 -0.14154,0.88973 1.53679,1.13237 2.8916,1.57724 0.36398,0.20221 -0.12133,3.25558 -2.10298,1.69856 -0.40442,1.07171 -0.4853,1.07172 -2.20409,0.70773 -4.08464,2.0221 2.46696,3.09381 0.20221,0.54597 -1.2537,1.43569 -0.7684,0.0202 -2.66917,-2.04232 -1.94121,0.93016 -0.0809,0.78862 0.44486,0.6673 0.95039,1.03127 1.01105,0.95038 -0.46508,1.45591 -0.6673,2.00188 -0.16176,2.77028 -0.48531,1.11215 -0.22243,0.48531 1.07171,2.40629 0.88973,0.84928 -0.42464,2.54785 -0.0809,0.78862 0.34376,0.44486 1.69856,0.90994 0.52575,0.26288 0.64707,-0.60663 z"
       id="path3782"
       inkscape:connector-curvature="0" />
  </g>
</svg>
