<?xml version="1.0" encoding="UTF-8" standalone="no"?>
<!-- Created with Inkscape (http://www.inkscape.org/) -->

<svg
   xmlns:dc="http://purl.org/dc/elements/1.1/"
   xmlns:cc="http://creativecommons.org/ns#"
   xmlns:rdf="http://www.w3.org/1999/02/22-rdf-syntax-ns#"
   xmlns:svg="http://www.w3.org/2000/svg"
   xmlns="http://www.w3.org/2000/svg"
   xmlns:xlink="http://www.w3.org/1999/xlink"
   xmlns:sodipodi="http://sodipodi.sourceforge.net/DTD/sodipodi-0.dtd"
   xmlns:inkscape="http://www.inkscape.org/namespaces/inkscape"
   width="744.09448819"
   height="1052.3622047"
   id="svg2"
   version="1.1"
   inkscape:version="0.48.4 r9939"
   sodipodi:docname="map-inkscape.svg">
  <defs
     id="defs4" />
  <sodipodi:namedview
     id="base"
     pagecolor="#ffffff"
     bordercolor="#666666"
     borderopacity="1.0"
     inkscape:pageopacity="0.0"
     inkscape:pageshadow="2"
     inkscape:zoom="0.7"
     inkscape:cx="991.21577"
     inkscape:cy="516.82577"
     inkscape:document-units="px"
     inkscape:current-layer="layer1"
     showgrid="false"
     inkscape:window-width="1362"
     inkscape:window-height="749"
     inkscape:window-x="0"
     inkscape:window-y="15"
     inkscape:window-maximized="0" />
  <metadata
     id="metadata7">
    <rdf:RDF>
      <cc:Work
         rdf:about="">
        <dc:format>image/svg+xml</dc:format>
        <dc:type
           rdf:resource="http://purl.org/dc/dcmitype/StillImage" />
        <dc:title />
      </cc:Work>
    </rdf:RDF>
  </metadata>
  <g
     inkscape:label="Layer 1"
     inkscape:groupmode="layer"
     id="layer1">
    <image
       y="-653.12274"
       x="-390.88312"
       id="image3857"
       xlink:href="file:///home/nirman/code/cartos/india-political-map.gif"
       height="2021"
       width="1800"
       style="fill-opacity:0.63181818;fill:#00c3c3" />
    <path
       style="fill:#0c6600;stroke:#000000;stroke-width:1;stroke-linecap:butt;stroke-linejoin:miter;stroke-opacity:1;fill-opacity:0.37727273000000000;stroke-miterlimit:4;stroke-dasharray:3,1;stroke-dashoffset:0"
       d="m 604.82884,336.6691 5.3033,-6.31345 5.80838,-1.26269 5.05076,-5.3033 0,-2.52538 5.05076,-5.55584 1.76777,-3.78807 c 0,0 1.76776,-5.55584 -5.80838,-5.3033 -7.57614,0.25253 -6.56599,-1.51523 -6.56599,-1.51523 l -3.78807,-3.78808 -5.3033,-5.05076 0,-4.04061 3.28299,-6.81853 -2.52538,-4.04061 -6.56599,-0.25254 c 0,0 0.25254,0 -0.25254,-4.04061 -0.50508,-4.04061 6.56599,-8.83883 6.56599,-8.83883 0,0 1.26269,0.50507 -1.01015,-4.54569 -2.27284,-5.05076 -5.55584,-0.50507 -6.31345,3.03046 -0.75762,3.53553 -8.08122,-1.26269 -8.08122,-1.26269 0,0 0.25253,-4.04061 -3.03046,-9.09137 -3.283,-5.05077 -15.15229,-14.89975 -15.15229,-14.89975 0,0 -4.54569,-6.566 -11.36422,-6.31346 -6.81853,0.25254 1.76777,-6.06091 1.76777,-6.06091 l 2.52538,-7.82868 1.76777,-7.57615 -2.52538,-3.53553 2.27284,-4.29315 4.54569,-2.27284 7.07107,1.76776 6.81853,-1.26269 5.05076,0 c 0,0 4.29315,-0.50507 6.06091,-2.0203 1.76777,-1.51523 4.54569,-5.3033 4.54569,-5.3033 0,0 -0.25254,-1.01016 1.26269,-1.26269 1.51523,-0.25254 -1.26269,6.81852 5.3033,9.34391 6.56599,2.52538 5.05076,-2.27285 5.05076,-2.27285 l 5.3033,-1.51523 2.52539,2.52539 -1.01016,5.55583 7.07107,4.79823 5.80838,4.29315 1.51523,-6.81853 c 0,0 0.50507,-3.283 3.28299,-2.27285 2.77792,1.01016 5.05077,-1.51522 5.05077,-1.51522 l 7.07106,-3.78808 2.77792,2.52538 2.27285,0.50508 1.51523,3.78807 4.04061,2.02031 3.78807,-3.283 4.29315,0.25254 4.79822,-4.29315 3.283,0.50508 4.04061,-4.29315 5.05076,-1.51523 5.80838,-0.50507 5.3033,-2.02031 4.29315,-1.51523 0,-6.81853 3.53553,-4.54568 6.06091,-3.53554 3.78808,1.01015 3.28299,4.79823 4.04061,-1.51523 1.01016,-1.76777 1.51522,2.27285 4.04061,-0.25254 0.75762,5.55584 4.54568,4.04061 5.30331,-1.76777 1.01015,2.02031 0.25254,5.05076 4.29314,3.78807 4.54569,4.04061 3.283,-0.50508 0,-7.82868 5.3033,-4.54568 1.26269,-3.78808 6.31345,3.53554 3.78807,-3.78808 4.54569,3.03046 3.78807,0 0.75762,-3.53553 3.28299,-2.02031 4.29315,0 1.76777,-2.0203 0.25254,-6.56599 2.77792,-9.84899 0.75761,-7.57614 2.02031,-5.30331 5.55583,-1.26269 1.51523,-5.80837 1.01016,-1.51523 2.77792,-1.26269 5.05076,1.76776 0.50507,-3.53553 2.77792,-1.76777 0.75762,-5.80837 8.33376,3.53553 3.78807,2.02031 3.53553,3.78807 -1.76776,4.79822 3.53553,5.80838 2.52538,5.80838 0.25254,8.33375 3.03046,-0.25253 -1.76777,5.05076 -3.03046,0.25254 1.51523,2.52538 3.03046,1.26269 0,3.03046 2.0203,2.52538 -3.28299,1.01015 -0.75762,2.02031 -4.04061,0.25253 2.27285,4.29315 0.25253,2.52538 0.50508,4.54569 -1.76777,3.53553 -2.52538,4.04061 -4.29315,4.79823 2.02031,3.03046 c 0,0 2.27284,-3.03046 0,0 -2.27284,3.03045 -6.81853,1.76776 -6.81853,1.76776 l -0.50508,4.54569 -2.77792,1.01015 -1.26269,4.04061 -3.03045,3.03046 -5.80838,0 -3.78807,-2.27284 -0.50508,-0.25254 -2.52538,0.50508 2.27284,2.52538 1.76777,3.53553 -1.76777,3.283 -2.27284,1.26269 c 0,0 1.76777,3.03045 0.50507,2.52538 -1.26269,-0.50508 -1.51522,-1.51523 -2.52538,-1.51523 -1.01015,0 -4.04061,-0.75761 -4.04061,-0.75761 l 1.76777,4.54568 -6.56599,-1.76777 -3.283,-2.52538 -4.79822,0 -2.27284,-0.75761 -3.53554,3.78807 -0.50508,2.27284 0.25254,5.05077 c 0,0 -1.26269,2.52538 -2.27284,3.03045 -1.01015,0.50508 -5.55584,-1.51522 -5.55584,-1.51522 l -5.05076,3.03045 -3.78807,0.75762 -4.54569,1.26269 -4.04061,2.52538 -0.50508,2.77792 0,3.03046 0.50508,3.53553 -4.54569,2.52538 -3.78807,-0.25254 -4.04061,-3.03045 -2.27284,-3.03046 c 0,0 4.54568,-0.75762 0.25254,-1.26269 -4.29315,-0.50508 -8.08122,0 -8.08122,0 l 1.26269,4.79822 -1.76777,1.76777 -3.03046,-1.51523 c 0,0 -4.54569,-2.27284 -5.05076,0.50508 -0.50508,2.77792 0.25254,6.06091 0.25254,6.06091 l 2.27284,1.26269 c 0,0 -0.50508,5.55584 -4.29315,5.05077 -3.78807,-0.50508 0,6.06091 1.76777,8.33375 1.76777,2.27285 6.31345,1.76777 7.57614,1.01016 1.26269,-0.75762 1.01016,-1.76777 4.29315,1.51523 3.283,3.28299 9.59645,7.57614 9.59645,7.57614 l 5.3033,0.50508 7.32361,-0.25254 c 0,0 5.80837,-2.02031 7.3236,0.75761 1.51523,2.77792 -6.56599,5.55584 -6.56599,5.55584 l -1.51523,6.06092 6.31346,3.78807 7.82868,5.80838 2.77792,4.29314 8.08122,1.26269 c 0,0 2.52538,0.75762 -0.25254,3.53554 -2.77792,2.77792 2.27284,6.31345 2.27284,6.31345 l 1.01016,5.55584 c 0,0 9.59645,1.26269 5.05076,3.03046 -4.54569,1.76777 -6.81853,1.76777 -6.81853,1.76777 l -3.03046,3.28299 -9.09137,-5.3033 -5.80838,-1.76777 -6.31345,0 -5.05076,-2.77792 -7.07107,-5.3033 c 0,0 -4.29315,-1.01015 -5.55584,-2.0203 -1.26269,-1.01015 -4.04061,-6.56599 -6.31346,-4.04061 -2.27284,2.52538 -3.78807,4.79822 -3.78807,4.79822 l 4.79823,5.3033 c 0,0 1.01015,4.54569 -1.26269,6.06092 -2.27285,1.51523 -2.77792,1.26269 -1.51523,3.53553 1.26269,2.27285 3.28299,5.3033 3.28299,5.3033 l -2.77792,7.82869 c 0,0 -2.0203,6.06091 -5.05076,6.31345 -3.03046,0.25254 -8.08122,0.25254 -8.5863,-1.26269 -0.50507,-1.51523 4.79823,-1.51523 4.79823,-4.04061 0,-2.52538 -0.75762,-4.79823 -5.3033,-2.52538 -4.54569,2.27284 -5.80838,2.77792 -5.80838,2.77792 l -4.29315,-0.75762 -4.04061,-1.51523 -4.54568,-2.77792 -6.31346,-0.50507 -2.0203,2.52538 -3.03046,3.78807 -1.51523,2.77792 c 0,0 -9.34391,-5.05076 -15.40482,-4.04061 -6.06092,1.01015 3.78807,-4.54569 3.78807,-4.54569 l 2.27284,-11.11167 -2.27284,-9.84899 -4.79823,0.25254 -4.04061,1.76776 -3.78807,1.26269 -5.55584,0 -6.56599,1.51523 c 0,0 -3.53553,-2.0203 -6.81853,-1.26269 -3.283,0.75762 -6.06092,4.79823 -6.06092,4.79823 l -3.78807,1.76776 c 0,0 -1.26269,1.51523 -4.54568,0.25254 -3.283,-1.26269 -8.33376,-4.29315 -8.33376,-4.29315 l -5.05077,-3.78807 c 0,0 0.25254,-2.0203 -2.0203,-2.27284 -2.27284,-0.25254 -5.05076,-2.02031 -5.05076,-2.02031 z"
       id="jharkhand"
       inkscape:connector-curvature="0"
       inkscape:label="#path3860" />
    <path
       style="fill:#00c398;stroke:#000000;stroke-width:1;stroke-linecap:butt;stroke-linejoin:miter;stroke-opacity:1;fill-opacity:0.63181818000000001;stroke-miterlimit:4;stroke-dasharray:4,1;stroke-dashoffset:0"
       d="m 600.26786,265.04075 c 0,0 0.53571,-3.39286 3.03571,-3.75 2.5,-0.35714 4.10715,6.69643 4.10715,6.69643 l -5,3.66071 c 0,0 -3.75,5.53572 -1.60715,9.28572 2.14286,3.75 6.07143,0.35714 6.07143,0.35714 l 3.03572,4.46429 -3.39286,5.625 -0.17857,2.76785 0.0893,2.32143 4.375,4.19643 5,4.64286 c 0,0 -0.35714,0.625 1.875,1.07143 2.23215,0.44643 7.85715,-0.53572 9.01786,1.07143 1.16071,1.60714 1.51786,5.44642 -0.35714,7.85714 -1.875,2.41071 -5.17857,6.16071 -5.17857,6.16071 l -0.17858,2.23215 -5.08928,5.26785 -4.82143,1.07143 c 0,0 -0.71429,0.35714 -3.03571,2.94643 -2.32143,2.58929 -2.85715,3.57143 -2.85715,3.57143 l 2.58929,1.69643 0.625,4.46428 -1.16072,4.64286 -7.23214,3.21429 -5.89286,2.58928 -3.21428,2.76786 -4.375,2.76786 -5.35714,2.85714 c 0,0 -3.48215,3.48214 -3.30358,5 0.17858,1.51786 0.35715,4.46429 0.35715,4.46429 l -1.69643,1.07142 c 0,0 -1.25,0.17858 1.78571,2.94643 3.03572,2.76786 3.30357,4.55357 3.30357,4.55357 0,0 1.33929,2.76786 -2.23214,4.10715 -3.57143,1.33928 -5.89286,0.89285 -5.89286,0.89285 l -0.26785,5 -2.14286,6.42858 -4.01786,3.83928 c 0,0 -2.58928,2.5 -1.33928,5.89286 1.25,3.39286 1.51785,4.64286 2.85714,5.89286 1.33929,1.25 1.33929,3.30357 -1.07143,3.03571 -2.41071,-0.26786 -5.44643,-1.25 -6.25,0.44643 -0.80357,1.69643 -0.0893,6.07143 -0.0893,6.07143 0,0 -2.5,-0.98215 -2.94643,0.35714 -0.44643,1.33929 -1.16072,5.53571 -1.16072,5.53571 l -3.39285,4.19643 c 0,0 -4.01786,1.51786 -6.25,0.35715 -2.23215,-1.16072 -4.82143,-3.75 -4.82143,-3.75 0,0 0.98214,0.17857 -2.32143,-0.0893 -3.30357,-0.26786 -4.19643,2.05357 -4.19643,2.05357 l -3.92857,-0.625 -9.375,0.0893 -0.0893,5.80357 c 0,0 -0.44643,3.75 -3.21428,3.83928 -2.76786,0.0893 -4.64286,3.39286 -3.92857,4.55358 0.71428,1.16071 3.57142,1.07142 2.05357,3.30357 -1.51786,2.23214 -4.01786,2.23214 -4.01786,2.23214 0,0 0.0893,1.875 -2.05357,1.875 -2.14286,0 -5.35714,0.625 -5.98214,-1.25 -0.625,-1.875 -2.32143,2.94643 -1.96429,4.91071 0.35714,1.96429 2.23214,6.16072 2.85714,6.875 0.625,0.71429 0.625,3.57143 0,5 -0.625,1.42858 -2.58928,1.78572 -2.5,4.19643 0.0893,2.41072 0.26786,4.64286 2.14286,5.71429 1.875,1.07143 3.30357,2.23214 1.78571,4.82143 -1.51785,2.58928 -1.51785,3.83928 -0.44642,5.625 1.07142,1.78571 0.80357,5.17857 -0.0893,6.875 -0.89286,1.69643 0,8.30357 0.26786,8.75 0.26785,0.44643 6.16071,4.01785 9.28571,4.73214 3.125,0.71429 12.94643,0 12.94643,0 l -0.17857,6.51786 -0.625,3.66071 -6.33929,5.35714 -1.25,-6.875 L 510,513.07647 l -4.64286,4.375 c 0,0 -2.5,-0.35715 -3.03571,-2.76786 -0.53571,-2.41071 0.26786,-4.28571 -0.53571,-5.35714 -0.80358,-1.07143 -11.07143,-4.19643 -11.07143,-4.19643 l -7.14286,-2.76786 c 0,0 -4.64286,-2.67857 -6.96429,0.0893 -2.32142,2.76785 -0.625,5 -0.625,5 0,0 -2.67857,0.80357 -1.69642,3.75 0.98214,2.94643 5.89285,4.55357 5.89285,4.55357 l 2.41072,2.41071 0,2.58929 2.67857,2.41071 1.07143,2.85715 -0.26786,11.33928 4.01786,3.03572 0,1.51785 4.55357,3.57143 0.35714,15 1.07143,2.85714 1.33929,4.55358 2.05357,7.5 -1.07143,4.19642 -3.57143,5.44643 -3.30357,5.44643 -6.25,3.30357 -3.30357,3.03572 -2.41072,1.33928 -0.35714,1.16072 2.05357,0.89285 2.32143,0.80358 -4.375,2.76785 c 0,0 -10.17857,13.03572 -10.26786,13.48215 -0.0893,0.44642 -9.82143,2.14285 -9.82143,2.14285 l -2.41071,1.69643 -2.23214,3.66072 3.30357,5.53571 -1.42857,4.64286 -3.03572,1.60714 -2.94643,3.03571 -0.80357,6.51786 0.26786,4.10714 -1.78571,2.58929 -3.66072,1.96429 -5.98214,-0.0893 -3.125,-2.5 -2.67857,-0.0893 -4.55357,1.60715 -1.96429,2.85714 c 0,0 -2.32143,0.71429 -2.67857,0.44643 -0.35714,-0.26786 -1.96429,-2.41072 -1.96429,-2.41072 l 0.80357,-11.07142 -2.67857,-6.16072 1.16072,-5.98214 c 0,0 0.625,-2.67857 -1.60715,-2.05357 -2.23214,0.625 -2.94642,4.01785 -2.94642,4.01785 l -3.48215,-1.07142 1.16072,-5.26786 -3.83929,0.89286 -1.60714,3.57142 c 0,0 -2.67857,0.71429 -2.67857,0.17858 0,-0.53572 -0.0893,-2.14286 -0.0893,-2.14286 l 2.32143,-4.82143 -2.41071,-4.91071 -0.89286,-4.46429 -10.71429,-11.16071 -4.375,-2.58929 -5.625,-0.44643 -4.55357,0.0893 -3.57143,-5.80357 -3.30357,-2.14286 4.64286,-4.46429 1.60714,-1.33928 -0.71428,-2.94643 -3.30358,-4.01786 1.33929,-6.60714 2.58929,-5.625 3.48214,-5.89286 6.78571,-9.10714 c 0,0 2.5,-4.375 4.375,-2.94643 1.875,1.42857 2.14286,4.73214 2.14286,4.73214 l 5.44643,0.80357 2.14286,2.14286 3.92857,-2.85714 c 0,0 3.83928,0.17857 4.55357,-1.25 0.71428,-1.42857 -0.17857,-4.01786 -0.17857,-4.01786 0,0 -2.67857,0.35714 -2.67857,-1.33928 0,-1.69643 1.875,-2.58929 4.46428,-2.85715 2.58929,-0.26785 0.44643,-0.98214 0.44643,-3.125 0,-2.14285 -2.67857,-3.57143 -2.67857,-3.57143 l -9.01786,-4.28571 -2.67857,-1.875 0.89286,-3.83929 -5.71429,-4.10714 c 0,0 -1.78571,-0.98214 -2.05357,-1.42857 -0.26786,-0.44643 -0.53571,-3.83929 -0.53571,-3.83929 0,0 -3.48215,0.26786 -3.125,0.80358 0.35714,0.53571 2.05357,1.96428 -0.26786,2.76785 -2.32143,0.80357 -5.80357,0.35715 -5.17857,-1.42857 0.625,-1.78571 1.51785,-2.23214 3.21428,-2.67857 1.69643,-0.44643 3.75,0.89286 2.76786,-0.98214 -0.98214,-1.875 -4.82143,-1.96429 -4.82143,-1.96429 0,0 -3.48214,-4.91071 0.71429,-4.28571 4.19643,0.625 5.71428,2.58928 5.71428,2.58928 0,0 1.33929,0 1.875,-1.96428 C 393.21429,510.48718 392.5,501.6479 392.5,501.6479 c 0,0 -2.32143,-5.26786 -6.42857,-2.14286 -4.10714,3.125 -2.41071,-5.26786 -2.41071,-5.26786 0,0 -1.69643,-2.58928 -1.42858,-2.94643 0.26786,-0.35714 -0.98214,-2.05357 2.23215,-1.42857 3.21428,0.625 10.17857,-1.96428 10.17857,-1.96428 l 1.96428,-6.875 -0.89285,-11.25 -4.73215,-1.16072 -0.625,1.78572 c 0,0 -3.39285,-4.01786 -2.32142,-5.08929 1.07142,-1.07143 6.07142,0.0893 6.25,-2.41071 0.17857,-2.5 -0.35715,-11.78572 -1.51786,-13.66072 -1.16072,-1.875 -4.46429,-2.5 -5.26786,-3.125 -0.80357,-0.625 -1.33928,-4.64286 0.0893,-5.80357 1.42857,-1.16071 -0.44643,-5.89286 -0.44643,-5.89286 l 0.0893,-3.21428 2.05358,-0.98215 8.75,-5.98214 1.60714,-1.69643 1.96428,-6.25 2.67858,-5.26785 -0.80358,-7.94643 0.98215,-10.625 5.89285,-3.125 0.53572,-8.03572 0.17857,-4.19643 1.60714,-4.55357 1.875,-4.91071 1.96429,-0.26786 0.89286,3.125 1.60714,0.0893 -0.625,-3.48215 1.25,-1.96428 1.25,-2.41072 0.80357,-4.01785 2.14286,-0.89286 2.05357,-1.16071 1.07143,-9.64286 1.96428,-2.23214 1.16072,-2.05358 c 0,0 0,1.07143 2.05357,1.33929 2.05357,0.26786 3.125,-0.26786 3.125,-0.26786 l 3.57143,-0.71428 0.71428,-2.85715 1.42857,-0.0893 0.89286,2.5 2.94643,3.83928 3.03571,-3.75 10.35715,-4.28571 1.875,-4.73214 5.98214,-3.66072 1.96429,-9.73214 0.0893,-3.125 5.26786,-0.625 2.23214,-2.14286 1.875,-2.05357 0.35714,-5.44643 1.51786,-3.66071 4.19643,-0.44643 2.85714,-2.23214 3.39286,-0.44643 0.80357,-4.64286 -1.69643,-3.30357 3.30357,-2.67857 -0.35714,-3.57143 -3.66071,-2.23214 -4.19643,-0.625 -3.92857,-1.51786 -3.83929,-6.60714 -2.76786,0.17857 -1.69642,1.25 -3.39286,-2.67857 -2.05357,-2.23215 -3.57143,3.21429 -3.92857,2.23214 -3.03572,-3.75 0.89286,-5.80357 4.55357,-4.375 0.89286,-4.46429 -2.41072,-1.33928 -0.71428,-3.66072 -1.42857,-1.07142 -1.69643,-1.51786 1.07143,-2.05357 3.83928,-0.0893 4.10715,3.92857 4.28571,2.58929 3.21429,-0.44643 2.05357,-2.94643 3.03571,-1.25 2.41072,-0.26786 3.03571,1.69643 2.41071,2.14286 3.83929,0.17857 2.58929,-1.25 2.85714,-0.98214 3.03571,1.78571 2.85715,0.53572 c 0,0 6.07142,-0.0893 7.05357,0 0.98214,0.0893 7.23214,-0.17857 7.23214,-0.17857 l 5.35714,-4.64286 5,-4.46429 3.57143,-1.07143 4.28572,2.58929 c 0,0 2.05357,2.76786 4.28571,2.76786 2.23214,0 3.125,0.625 6.875,0.26785 3.75,-0.35714 8.39286,-0.44642 9.64286,-3.03571 1.25,-2.58929 2.5,-6.78571 2.5,-6.78571 l 3.75,-4.28572 2.85714,-0.625 4.375,0.98214 4.28571,3.21429 4.91072,4.82143 4.10714,3.57143 4.91072,5 c 0,0 7.29578,8.28383 6.25,13.30357 3.92857,1.78571 3.48214,1.25 3.48214,1.25 l 4.01786,0.53571 z"
       id="chattishgarh"
       inkscape:connector-curvature="0"
       sodipodi:nodetypes="csccscccccccsssccccscccccccccsccscsccccsssscsccscsccccssscsssssssssscscccccccssccscsccccccccccccccccccccccccccccccccccccccccsccccscccccsccccccccccccccccccsccccscssscccccscssssscscscsccscccccsssssccccccccccccccccccccccccccscccccccccccccccccccccccccccccccccccccccccccccccccccccccccscccccssscccccccccccc"
       inkscape:label="#path6110" />
  </g>
</svg>
