<?xml version="1.0" encoding="UTF-8" standalone="no"?>
<!-- Created with Inkscape (http://www.inkscape.org/) -->

<svg
   xmlns:dc="http://purl.org/dc/elements/1.1/"
   xmlns:cc="http://creativecommons.org/ns#"
   xmlns:rdf="http://www.w3.org/1999/02/22-rdf-syntax-ns#"
   xmlns:svg="http://www.w3.org/2000/svg"
   xmlns="http://www.w3.org/2000/svg"
   xmlns:xlink="http://www.w3.org/1999/xlink"
   xmlns:sodipodi="http://sodipodi.sourceforge.net/DTD/sodipodi-0.dtd"
   xmlns:inkscape="http://www.inkscape.org/namespaces/inkscape"
   width="744.09448819"
   height="1052.3622047"
   id="svg2"
   version="1.1"
   inkscape:version="0.48.4 r9939"
   sodipodi:docname="map-inkscape.svg">
  <defs
     id="defs4" />
  <sodipodi:namedview
     id="base"
     pagecolor="#ffffff"
     bordercolor="#666666"
     borderopacity="1.0"
     inkscape:pageopacity="0.0"
     inkscape:pageshadow="2"
     inkscape:zoom="0.49497475"
     inkscape:cx="614.68822"
     inkscape:cy="47.93932"
     inkscape:document-units="px"
     inkscape:current-layer="layer1"
     showgrid="false"
     inkscape:window-width="1366"
     inkscape:window-height="768"
     inkscape:window-x="0"
     inkscape:window-y="0"
     inkscape:window-maximized="0" />
  <metadata
     id="metadata7">
    <rdf:RDF>
      <cc:Work
         rdf:about="">
        <dc:format>image/svg+xml</dc:format>
        <dc:type
           rdf:resource="http://purl.org/dc/dcmitype/StillImage" />
        <dc:title />
      </cc:Work>
    </rdf:RDF>
  </metadata>
  <g
     inkscape:label="Layer 1"
     inkscape:groupmode="layer"
     id="layer1">
    <image
       y="-653.12274"
       x="-390.88312"
       id="image3857"
       xlink:href="file:///home/nirman/code/cartos/india-political-map.gif"
       height="2021"
       width="1800"
       style="fill-opacity:0.63181818;fill:#00c3c3" />
    <path
       style="fill:#0c6600;stroke:#000000;stroke-width:1;stroke-linecap:butt;stroke-linejoin:miter;stroke-opacity:1;fill-opacity:1;stroke-miterlimit:4;stroke-dasharray:3, 1;stroke-dashoffset:0"
       d="m 604.82884,336.6691 5.3033,-6.31345 5.80838,-1.26269 5.05076,-5.3033 0,-2.52538 5.05076,-5.55584 1.76777,-3.78807 c 0,0 1.76776,-5.55584 -5.80838,-5.3033 -7.57614,0.25253 -6.56599,-1.51523 -6.56599,-1.51523 l -3.78807,-3.78808 -5.3033,-5.05076 0,-4.04061 3.28299,-6.81853 -2.52538,-4.04061 -6.56599,-0.25254 c 0,0 0.25254,0 -0.25254,-4.04061 -0.50508,-4.04061 6.56599,-8.83883 6.56599,-8.83883 0,0 1.26269,0.50507 -1.01015,-4.54569 -2.27284,-5.05076 -5.55584,-0.50507 -6.31345,3.03046 -0.75762,3.53553 -8.08122,-1.26269 -8.08122,-1.26269 0,0 0.25253,-4.04061 -3.03046,-9.09137 -3.283,-5.05077 -15.15229,-14.89975 -15.15229,-14.89975 0,0 -4.54569,-6.566 -11.36422,-6.31346 -6.81853,0.25254 1.76777,-6.06091 1.76777,-6.06091 l 2.52538,-7.82868 1.76777,-7.57615 -2.52538,-3.53553 2.27284,-4.29315 4.54569,-2.27284 7.07107,1.76776 6.81853,-1.26269 5.05076,0 c 0,0 4.29315,-0.50507 6.06091,-2.0203 1.76777,-1.51523 4.54569,-5.3033 4.54569,-5.3033 0,0 -0.25254,-1.01016 1.26269,-1.26269 1.51523,-0.25254 -1.26269,6.81852 5.3033,9.34391 6.56599,2.52538 5.05076,-2.27285 5.05076,-2.27285 l 5.3033,-1.51523 2.52539,2.52539 -1.01016,5.55583 7.07107,4.79823 5.80838,4.29315 1.51523,-6.81853 c 0,0 0.50507,-3.283 3.28299,-2.27285 2.77792,1.01016 5.05077,-1.51522 5.05077,-1.51522 l 7.07106,-3.78808 2.77792,2.52538 2.27285,0.50508 1.51523,3.78807 4.04061,2.02031 3.78807,-3.283 4.29315,0.25254 4.79822,-4.29315 3.283,0.50508 4.04061,-4.29315 5.05076,-1.51523 5.80838,-0.50507 5.3033,-2.02031 4.29315,-1.51523 0,-6.81853 3.53553,-4.54568 6.06091,-3.53554 3.78808,1.01015 3.28299,4.79823 4.04061,-1.51523 1.01016,-1.76777 1.51522,2.27285 4.04061,-0.25254 0.75762,5.55584 4.54568,4.04061 5.30331,-1.76777 1.01015,2.02031 0.25254,5.05076 4.29314,3.78807 4.54569,4.04061 3.283,-0.50508 0,-7.82868 5.3033,-4.54568 1.26269,-3.78808 6.31345,3.53554 3.78807,-3.78808 4.54569,3.03046 3.78807,0 0.75762,-3.53553 3.28299,-2.02031 4.29315,0 1.76777,-2.0203 0.25254,-6.56599 2.77792,-9.84899 0.75761,-7.57614 2.02031,-5.30331 5.55583,-1.26269 1.51523,-5.80837 1.01016,-1.51523 2.77792,-1.26269 5.05076,1.76776 0.50507,-3.53553 2.77792,-1.76777 0.75762,-5.80837 8.33376,3.53553 3.78807,2.02031 3.53553,3.78807 -1.76776,4.79822 3.53553,5.80838 2.52538,5.80838 0.25254,8.33375 3.03046,-0.25253 -1.76777,5.05076 -3.03046,0.25254 1.51523,2.52538 3.03046,1.26269 0,3.03046 2.0203,2.52538 -3.28299,1.01015 -0.75762,2.02031 -4.04061,0.25253 2.27285,4.29315 0.25253,2.52538 0.50508,4.54569 -1.76777,3.53553 -2.52538,4.04061 -4.29315,4.79823 2.02031,3.03046 c 0,0 2.27284,-3.03046 0,0 -2.27284,3.03045 -6.81853,1.76776 -6.81853,1.76776 l -0.50508,4.54569 -2.77792,1.01015 -1.26269,4.04061 -3.03045,3.03046 -5.80838,0 -3.78807,-2.27284 -0.50508,-0.25254 -2.52538,0.50508 2.27284,2.52538 1.76777,3.53553 -1.76777,3.283 -2.27284,1.26269 c 0,0 1.76777,3.03045 0.50507,2.52538 -1.26269,-0.50508 -1.51522,-1.51523 -2.52538,-1.51523 -1.01015,0 -4.04061,-0.75761 -4.04061,-0.75761 l 1.76777,4.54568 -6.56599,-1.76777 -3.283,-2.52538 -4.79822,0 -2.27284,-0.75761 -3.53554,3.78807 -0.50508,2.27284 0.25254,5.05077 c 0,0 -1.26269,2.52538 -2.27284,3.03045 -1.01015,0.50508 -5.55584,-1.51522 -5.55584,-1.51522 l -5.05076,3.03045 -3.78807,0.75762 -4.54569,1.26269 -4.04061,2.52538 -0.50508,2.77792 0,3.03046 0.50508,3.53553 -4.54569,2.52538 -3.78807,-0.25254 -4.04061,-3.03045 -2.27284,-3.03046 c 0,0 4.54568,-0.75762 0.25254,-1.26269 -4.29315,-0.50508 -8.08122,0 -8.08122,0 l 1.26269,4.79822 -1.76777,1.76777 -3.03046,-1.51523 c 0,0 -4.54569,-2.27284 -5.05076,0.50508 -0.50508,2.77792 0.25254,6.06091 0.25254,6.06091 l 2.27284,1.26269 c 0,0 -0.50508,5.55584 -4.29315,5.05077 -3.78807,-0.50508 0,6.06091 1.76777,8.33375 1.76777,2.27285 6.31345,1.76777 7.57614,1.01016 1.26269,-0.75762 1.01016,-1.76777 4.29315,1.51523 3.283,3.28299 9.59645,7.57614 9.59645,7.57614 l 5.3033,0.50508 7.32361,-0.25254 c 0,0 5.80837,-2.02031 7.3236,0.75761 1.51523,2.77792 -6.56599,5.55584 -6.56599,5.55584 l -1.51523,6.06092 6.31346,3.78807 7.82868,5.80838 2.77792,4.29314 8.08122,1.26269 c 0,0 2.52538,0.75762 -0.25254,3.53554 -2.77792,2.77792 2.27284,6.31345 2.27284,6.31345 l 1.01016,5.55584 c 0,0 9.59645,1.26269 5.05076,3.03046 -4.54569,1.76777 -6.81853,1.76777 -6.81853,1.76777 l -3.03046,3.28299 -9.09137,-5.3033 -5.80838,-1.76777 -6.31345,0 -5.05076,-2.77792 -7.07107,-5.3033 c 0,0 -4.29315,-1.01015 -5.55584,-2.0203 -1.26269,-1.01015 -4.04061,-6.56599 -6.31346,-4.04061 -2.27284,2.52538 -3.78807,4.79822 -3.78807,4.79822 l 4.79823,5.3033 c 0,0 1.01015,4.54569 -1.26269,6.06092 -2.27285,1.51523 -2.77792,1.26269 -1.51523,3.53553 1.26269,2.27285 3.28299,5.3033 3.28299,5.3033 l -2.77792,7.82869 c 0,0 -2.0203,6.06091 -5.05076,6.31345 -3.03046,0.25254 -8.08122,0.25254 -8.5863,-1.26269 -0.50507,-1.51523 4.79823,-1.51523 4.79823,-4.04061 0,-2.52538 -0.75762,-4.79823 -5.3033,-2.52538 -4.54569,2.27284 -5.80838,2.77792 -5.80838,2.77792 l -4.29315,-0.75762 -4.04061,-1.51523 -4.54568,-2.77792 -6.31346,-0.50507 -2.0203,2.52538 -3.03046,3.78807 -1.51523,2.77792 c 0,0 -9.34391,-5.05076 -15.40482,-4.04061 -6.06092,1.01015 3.78807,-4.54569 3.78807,-4.54569 l 2.27284,-11.11167 -2.27284,-9.84899 -4.79823,0.25254 -4.04061,1.76776 -3.78807,1.26269 -5.55584,0 -6.56599,1.51523 c 0,0 -3.53553,-2.0203 -6.81853,-1.26269 -3.283,0.75762 -6.06092,4.79823 -6.06092,4.79823 l -3.78807,1.76776 c 0,0 -1.26269,1.51523 -4.54568,0.25254 -3.283,-1.26269 -8.33376,-4.29315 -8.33376,-4.29315 l -5.05077,-3.78807 c 0,0 0.25254,-2.0203 -2.0203,-2.27284 -2.27284,-0.25254 -5.05076,-2.02031 -5.05076,-2.02031 z"
       id="jharkhand"
       inkscape:connector-curvature="0"
       inkscape:label="#path3860" />
    <path
       style="fill:#00c398;stroke:#000000;stroke-width:1;stroke-linecap:butt;stroke-linejoin:miter;stroke-opacity:1;fill-opacity:1;stroke-miterlimit:4;stroke-dasharray:4, 1;stroke-dashoffset:0"
       d="m 600.26786,265.04075 c 0,0 0.53571,-3.39286 3.03571,-3.75 2.5,-0.35714 4.10715,6.69643 4.10715,6.69643 l -5,3.66071 c 0,0 -3.75,5.53572 -1.60715,9.28572 2.14286,3.75 6.07143,0.35714 6.07143,0.35714 l 3.03572,4.46429 -3.39286,5.625 -0.17857,2.76785 0.0893,2.32143 4.375,4.19643 5,4.64286 c 0,0 -0.35714,0.625 1.875,1.07143 2.23215,0.44643 7.85715,-0.53572 9.01786,1.07143 1.16071,1.60714 1.51786,5.44642 -0.35714,7.85714 -1.875,2.41071 -5.17857,6.16071 -5.17857,6.16071 l -0.17858,2.23215 -5.08928,5.26785 -4.82143,1.07143 c 0,0 -0.71429,0.35714 -3.03571,2.94643 -2.32143,2.58929 -2.85715,3.57143 -2.85715,3.57143 l 2.58929,1.69643 0.625,4.46428 -1.16072,4.64286 -7.23214,3.21429 -5.89286,2.58928 -3.21428,2.76786 -4.375,2.76786 -5.35714,2.85714 c 0,0 -3.48215,3.48214 -3.30358,5 0.17858,1.51786 0.35715,4.46429 0.35715,4.46429 l -1.69643,1.07142 c 0,0 -1.25,0.17858 1.78571,2.94643 3.03572,2.76786 3.30357,4.55357 3.30357,4.55357 0,0 1.33929,2.76786 -2.23214,4.10715 -3.57143,1.33928 -5.89286,0.89285 -5.89286,0.89285 l -0.26785,5 -2.14286,6.42858 -4.01786,3.83928 c 0,0 -2.58928,2.5 -1.33928,5.89286 1.25,3.39286 1.51785,4.64286 2.85714,5.89286 1.33929,1.25 1.33929,3.30357 -1.07143,3.03571 -2.41071,-0.26786 -5.44643,-1.25 -6.25,0.44643 -0.80357,1.69643 -0.0893,6.07143 -0.0893,6.07143 0,0 -2.5,-0.98215 -2.94643,0.35714 -0.44643,1.33929 -1.16072,5.53571 -1.16072,5.53571 l -3.39285,4.19643 c 0,0 -4.01786,1.51786 -6.25,0.35715 -2.23215,-1.16072 -4.82143,-3.75 -4.82143,-3.75 0,0 0.98214,0.17857 -2.32143,-0.0893 -3.30357,-0.26786 -4.19643,2.05357 -4.19643,2.05357 l -3.92857,-0.625 -9.375,0.0893 -0.0893,5.80357 c 0,0 -0.44643,3.75 -3.21428,3.83928 -2.76786,0.0893 -4.64286,3.39286 -3.92857,4.55358 0.71428,1.16071 3.57142,1.07142 2.05357,3.30357 -1.51786,2.23214 -4.01786,2.23214 -4.01786,2.23214 0,0 0.0893,1.875 -2.05357,1.875 -2.14286,0 -5.35714,0.625 -5.98214,-1.25 -0.625,-1.875 -2.32143,2.94643 -1.96429,4.91071 0.35714,1.96429 2.23214,6.16072 2.85714,6.875 0.625,0.71429 0.625,3.57143 0,5 -0.625,1.42858 -2.58928,1.78572 -2.5,4.19643 0.0893,2.41072 0.26786,4.64286 2.14286,5.71429 1.875,1.07143 3.30357,2.23214 1.78571,4.82143 -1.51785,2.58928 -1.51785,3.83928 -0.44642,5.625 1.07142,1.78571 0.80357,5.17857 -0.0893,6.875 -0.89286,1.69643 0,8.30357 0.26786,8.75 0.26785,0.44643 6.16071,4.01785 9.28571,4.73214 3.125,0.71429 12.94643,0 12.94643,0 l -0.17857,6.51786 -0.625,3.66071 -6.33929,5.35714 -1.25,-6.875 L 510,513.07647 l -4.64286,4.375 c 0,0 -2.5,-0.35715 -3.03571,-2.76786 -0.53571,-2.41071 0.26786,-4.28571 -0.53571,-5.35714 -0.80358,-1.07143 -11.07143,-4.19643 -11.07143,-4.19643 l -7.14286,-2.76786 c 0,0 -4.64286,-2.67857 -6.96429,0.0893 -2.32142,2.76785 -0.625,5 -0.625,5 0,0 -2.67857,0.80357 -1.69642,3.75 0.98214,2.94643 5.89285,4.55357 5.89285,4.55357 l 2.41072,2.41071 0,2.58929 2.67857,2.41071 1.07143,2.85715 -0.26786,11.33928 4.01786,3.03572 0,1.51785 4.55357,3.57143 0.35714,15 1.07143,2.85714 1.33929,4.55358 2.05357,7.5 -1.07143,4.19642 -3.57143,5.44643 -3.30357,5.44643 -6.25,3.30357 -3.30357,3.03572 -2.41072,1.33928 -0.35714,1.16072 2.05357,0.89285 2.32143,0.80358 -4.375,2.76785 c 0,0 -10.17857,13.03572 -10.26786,13.48215 -0.0893,0.44642 -9.82143,2.14285 -9.82143,2.14285 l -2.41071,1.69643 -2.23214,3.66072 3.30357,5.53571 -1.42857,4.64286 -3.03572,1.60714 -2.94643,3.03571 -0.80357,6.51786 0.26786,4.10714 -1.78571,2.58929 -3.66072,1.96429 -5.98214,-0.0893 -3.125,-2.5 -2.67857,-0.0893 -4.55357,1.60715 -1.96429,2.85714 c 0,0 -2.32143,0.71429 -2.67857,0.44643 -0.35714,-0.26786 -1.96429,-2.41072 -1.96429,-2.41072 l 0.80357,-11.07142 -2.67857,-6.16072 1.16072,-5.98214 c 0,0 0.625,-2.67857 -1.60715,-2.05357 -2.23214,0.625 -2.94642,4.01785 -2.94642,4.01785 l -3.48215,-1.07142 1.16072,-5.26786 -3.83929,0.89286 -1.60714,3.57142 c 0,0 -2.67857,0.71429 -2.67857,0.17858 0,-0.53572 -0.0893,-2.14286 -0.0893,-2.14286 l 2.32143,-4.82143 -2.41071,-4.91071 -0.89286,-4.46429 -10.71429,-11.16071 -4.375,-2.58929 -5.625,-0.44643 -4.55357,0.0893 -3.57143,-5.80357 -3.30357,-2.14286 4.64286,-4.46429 1.60714,-1.33928 -0.71428,-2.94643 -3.30358,-4.01786 1.33929,-6.60714 2.58929,-5.625 3.48214,-5.89286 6.78571,-9.10714 c 0,0 2.5,-4.375 4.375,-2.94643 1.875,1.42857 2.14286,4.73214 2.14286,4.73214 l 5.44643,0.80357 2.14286,2.14286 3.92857,-2.85714 c 0,0 3.83928,0.17857 4.55357,-1.25 0.71428,-1.42857 -0.17857,-4.01786 -0.17857,-4.01786 0,0 -2.67857,0.35714 -2.67857,-1.33928 0,-1.69643 1.875,-2.58929 4.46428,-2.85715 2.58929,-0.26785 0.44643,-0.98214 0.44643,-3.125 0,-2.14285 -2.67857,-3.57143 -2.67857,-3.57143 l -9.01786,-4.28571 -2.67857,-1.875 0.89286,-3.83929 -5.71429,-4.10714 c 0,0 -1.78571,-0.98214 -2.05357,-1.42857 -0.26786,-0.44643 -0.53571,-3.83929 -0.53571,-3.83929 0,0 -3.48215,0.26786 -3.125,0.80358 0.35714,0.53571 2.05357,1.96428 -0.26786,2.76785 -2.32143,0.80357 -5.80357,0.35715 -5.17857,-1.42857 0.625,-1.78571 1.51785,-2.23214 3.21428,-2.67857 1.69643,-0.44643 3.75,0.89286 2.76786,-0.98214 -0.98214,-1.875 -4.82143,-1.96429 -4.82143,-1.96429 0,0 -3.48214,-4.91071 0.71429,-4.28571 4.19643,0.625 5.71428,2.58928 5.71428,2.58928 0,0 1.33929,0 1.875,-1.96428 C 393.21429,510.48718 392.5,501.6479 392.5,501.6479 c 0,0 -2.32143,-5.26786 -6.42857,-2.14286 -4.10714,3.125 -2.41071,-5.26786 -2.41071,-5.26786 0,0 -1.69643,-2.58928 -1.42858,-2.94643 0.26786,-0.35714 -0.98214,-2.05357 2.23215,-1.42857 3.21428,0.625 10.17857,-1.96428 10.17857,-1.96428 l 1.96428,-6.875 -0.89285,-11.25 -4.73215,-1.16072 -0.625,1.78572 c 0,0 -3.39285,-4.01786 -2.32142,-5.08929 1.07142,-1.07143 6.07142,0.0893 6.25,-2.41071 0.17857,-2.5 -0.35715,-11.78572 -1.51786,-13.66072 -1.16072,-1.875 -4.46429,-2.5 -5.26786,-3.125 -0.80357,-0.625 -1.33928,-4.64286 0.0893,-5.80357 1.42857,-1.16071 -0.44643,-5.89286 -0.44643,-5.89286 l 0.0893,-3.21428 2.05358,-0.98215 8.75,-5.98214 1.60714,-1.69643 1.96428,-6.25 2.67858,-5.26785 -0.80358,-7.94643 0.98215,-10.625 5.89285,-3.125 0.53572,-8.03572 0.17857,-4.19643 1.60714,-4.55357 1.875,-4.91071 1.96429,-0.26786 0.89286,3.125 1.60714,0.0893 -0.625,-3.48215 1.25,-1.96428 1.25,-2.41072 0.80357,-4.01785 2.14286,-0.89286 2.05357,-1.16071 1.07143,-9.64286 1.96428,-2.23214 1.16072,-2.05358 c 0,0 0,1.07143 2.05357,1.33929 2.05357,0.26786 3.125,-0.26786 3.125,-0.26786 l 3.57143,-0.71428 0.71428,-2.85715 1.42857,-0.0893 0.89286,2.5 2.94643,3.83928 3.03571,-3.75 10.35715,-4.28571 1.875,-4.73214 5.98214,-3.66072 1.96429,-9.73214 0.0893,-3.125 5.26786,-0.625 2.23214,-2.14286 1.875,-2.05357 0.35714,-5.44643 1.51786,-3.66071 4.19643,-0.44643 2.85714,-2.23214 3.39286,-0.44643 0.80357,-4.64286 -1.69643,-3.30357 3.30357,-2.67857 -0.35714,-3.57143 -3.66071,-2.23214 -4.19643,-0.625 -3.92857,-1.51786 -3.83929,-6.60714 -2.76786,0.17857 -1.69642,1.25 -3.39286,-2.67857 -2.05357,-2.23215 -3.57143,3.21429 -3.92857,2.23214 -3.03572,-3.75 0.89286,-5.80357 4.55357,-4.375 0.89286,-4.46429 -2.41072,-1.33928 -0.71428,-3.66072 -1.42857,-1.07142 -1.69643,-1.51786 1.07143,-2.05357 3.83928,-0.0893 4.10715,3.92857 4.28571,2.58929 3.21429,-0.44643 2.05357,-2.94643 3.03571,-1.25 2.41072,-0.26786 3.03571,1.69643 2.41071,2.14286 3.83929,0.17857 2.58929,-1.25 2.85714,-0.98214 3.03571,1.78571 2.85715,0.53572 c 0,0 6.07142,-0.0893 7.05357,0 0.98214,0.0893 7.23214,-0.17857 7.23214,-0.17857 l 5.35714,-4.64286 5,-4.46429 3.57143,-1.07143 4.28572,2.58929 c 0,0 2.05357,2.76786 4.28571,2.76786 2.23214,0 3.125,0.625 6.875,0.26785 3.75,-0.35714 8.39286,-0.44642 9.64286,-3.03571 1.25,-2.58929 2.5,-6.78571 2.5,-6.78571 l 3.75,-4.28572 2.85714,-0.625 4.375,0.98214 4.28571,3.21429 4.91072,4.82143 4.10714,3.57143 4.91072,5 c 0,0 7.29578,8.28383 6.25,13.30357 3.92857,1.78571 3.48214,1.25 3.48214,1.25 l 4.01786,0.53571 z"
       id="chattishgarh"
       inkscape:connector-curvature="0"
       sodipodi:nodetypes="csccscccccccsssccccscccccccccsccscsccccsssscsccscsccccssscsssssssssscscccccccssccscsccccccccccccccccccccccccccccccccccccccccsccccscccccsccccccccccccccccccsccccscssscccccscssssscscscsccscccccsssssccccccccccccccccccccccccccscccccccccccccccccccccccccccccccccccccccccccccccccccccccccscccccssscccccccccccc"
       inkscape:label="#path6110" />
    <path
       style="fill:#c6b65f;stroke:#000000;stroke-width:1;stroke-linecap:butt;stroke-linejoin:miter;stroke-opacity:1;fill-opacity:1;stroke-miterlimit:4;stroke-dasharray:6,1;stroke-dashoffset:0"
       d="m 607.8593,338.68941 c 0,0 7.3236,7.82868 -13.63706,14.77348 -20.96067,6.9448 -15.5311,17.5514 -15.5311,17.5514 l -2.65165,1.6415 5.80838,6.43972 c 0,0 0.37881,4.67195 -2.90419,5.17703 -3.283,0.50508 -6.18718,0.25254 -6.18718,0.25254 l 0.25253,7.07107 -2.39911,5.17703 c 0,0 -7.57614,4.54568 -4.54568,10.35406 3.03045,5.80838 5.17703,8.5863 1.26269,7.70241 -3.91435,-0.88388 -8.08122,-0.63134 -6.43973,4.16688 1.6415,4.79823 -0.12627,2.52539 0,2.14658 0.12627,-0.37881 -2.39911,-1.26269 -2.77792,0.63134 -0.3788,1.89404 -2.27284,12.75318 -8.33375,9.97526 -6.06092,-2.77792 -6.566,-0.75761 -7.07107,-3.6618 -0.50508,-2.90419 -7.07107,2.27284 -7.07107,2.27284 l -12.12183,-1.13642 -1.38896,8.46003 c 0,0 -5.17703,0.50507 -6.31345,2.77792 -1.13643,2.27284 3.03045,4.79822 1.89403,6.06091 -1.13642,1.26269 -3.91434,3.03046 -3.91434,3.03046 0,0 -1.89404,4.04061 -9.21764,0 -7.32361,-4.04061 2.77792,14.2684 2.77792,14.2684 l -1.76777,3.40927 -1.6415,3.03046 0.75762,4.79822 4.41942,4.16688 c 0,0 -2.90419,2.0203 -2.65166,4.79822 0.25254,2.77792 3.03046,4.41942 2.14658,6.06092 -0.88388,1.6415 -1.76777,5.80838 -1.6415,7.44987 0.12627,1.6415 0.75762,9.09138 11.49049,9.97526 10.73287,0.88388 11.23794,-0.37881 11.23794,-0.37881 l -0.75761,9.59645 -6.06092,6.18719 -1.51523,-6.69226 -11.61675,-3.53554 c 0,0 -2.65165,4.67196 -4.16688,4.54569 -1.51523,-0.12627 -4.04061,-3.15673 -3.53553,-6.9448 0.50507,-3.78807 -22.09709,-8.9651 -22.09709,-8.9651 0,0 -5.42957,-0.63135 -4.29315,5.6821 1.13642,6.31346 -0.88388,1.01016 -0.88388,1.01016 l -0.75762,3.28299 8.20749,6.31346 0.88389,3.28299 3.28299,4.79823 -0.3788,12.37437 4.16687,2.90418 0.12627,1.38896 4.67196,3.78808 -0.25254,14.2684 4.92449,14.89975 -1.76776,5.3033 -6.69226,9.59645 -5.55584,3.53553 -4.79823,3.283 -1.76776,2.02031 4.67195,2.0203 -4.04061,2.65165 -10.48033,13.25825 -10.98541,3.15673 -3.78807,5.3033 3.15673,5.3033 -1.13643,3.53554 -4.79822,3.6618 c 0,0 -2.77792,5.93465 -2.27284,7.82868 0.50507,1.89404 1.01015,4.79823 -0.25254,5.55584 -1.26269,0.75761 -3.66181,3.15673 -3.66181,3.15673 0,0 5.05077,-2.27285 6.06092,-1.89404 1.01015,0.37881 9.21764,-0.37881 9.21764,-0.37881 l 4.16688,-3.78807 5.17703,-2.14657 4.29315,-1.6415 5.42957,-2.14657 5.17703,-1.01016 3.03046,-4.16688 5.05076,0.12627 3.283,1.38896 3.28299,1.6415 0.63135,-0.12627 1.26269,-4.92449 1.51523,0.50507 1.6415,1.51523 2.0203,-2.90419 -0.50507,-3.03045 0.88388,-0.75762 -0.25254,-3.15672 -0.75761,-4.04061 3.15672,-4.29315 -3.15672,-2.90419 -1.38896,-3.283 0.63134,-3.15672 1.51523,-2.02031 2.90419,-1.13642 1.76777,-1.89404 2.27284,-1.64149 3.03046,1.01015 1.26269,2.77792 0.63134,3.40926 1.2627,4.41942 2.39911,4.41942 1.38896,3.53553 3.03045,2.02031 0.25254,-3.53554 3.53554,-1.51523 2.65165,-1.51523 2.65165,-2.65165 1.13642,-2.77792 -0.37881,-2.27284 6.69226,5.17703 6.31346,-0.3788 3.6618,-0.75762 -0.75762,-3.03046 -1.13642,-1.51523 0.75762,-2.65165 1.01015,-0.50507 -1.38896,-4.41942 -3.283,-2.52538 4.79823,-6.31345 4.04061,-4.67196 2.77792,-0.12627 2.39911,1.01015 0.63135,1.01016 4.54568,-4.41942 4.79823,-2.39911 1.13642,-2.27285 -0.63135,-2.14657 -1.76776,-2.14657 -2.27285,-2.77792 -1.51523,-1.51523 2.52539,-2.52538 3.6618,1.13642 1.38896,1.26269 2.0203,0.88388 0.50508,-4.79822 2.65165,-1.38896 2.39911,0.50507 2.02031,-2.0203 0.88388,-0.37881 2.39911,-3.40926 1.51523,5.80837 1.89404,1.26269 c 0,0 0.88388,2.65165 1.38896,3.15673 0.50507,0.50508 3.78807,3.15673 3.78807,3.15673 l 0.88388,1.01015 0.37881,-6.31345 1.89404,5.17703 3.15672,4.67195 0.63135,2.52539 5.17703,1.26269 2.52538,-0.37881 2.02031,0.63134 1.89403,1.13643 2.02031,2.27284 2.39911,0.50508 5.68211,-0.88389 2.39911,-1.89403 1.89404,0 1.51523,-0.63135 0.50507,-3.15673 0.37881,-2.14657 1.38896,-1.01015 3.40926,-0.50508 2.02031,-0.12627 -0.50508,-3.40926 -1.01015,-1.51523 -0.37881,-1.6415 2.39912,-2.02031 2.90418,-0.75761 2.52539,-0.75761 4.04061,0 2.52538,-0.75762 0.50507,-1.51523 -0.63134,-1.38896 -1.01015,-0.50507 -1.51523,-2.14658 2.39911,-0.75761 2.77792,0.63134 2.27284,1.01016 3.15673,-0.25254 1.13642,-0.12627 c 0,0 12.50064,-17.80394 17.80394,-19.95051 5.3033,-2.14658 17.93021,-11.74303 17.93021,-11.74303 l 7.3236,-4.54568 -10.35406,4.29314 -2.90419,-4.41941 -2.27284,-0.50508 0,5.3033 c 0,0 -0.25254,4.29315 -1.01016,4.29315 -0.75761,0 -6.18718,2.27284 -6.18718,2.27284 l 0.50508,-8.20749 3.53553,-4.29314 4.04061,-6.31346 8.20749,-5.93464 2.14657,-2.90419 6.06092,-1.01016 2.39911,2.02031 0.88389,5.55584 -0.25254,4.67195 6.31345,-2.39911 8.9651,-3.6618 10.98541,-3.03046 5.3033,-1.51523 c 0,0 20.07679,-6.18718 20.45559,-8.71256 0.37881,-2.52538 5.42957,-10.48034 5.42957,-10.48034 l 2.52539,-4.41941 13.76332,-9.84899 c 0,0 2.14658,-1.51523 2.27285,-5.05076 0.12627,-3.53554 -2.65165,0 -2.65165,0 l -3.03046,-2.65165 1.89403,-5.05077 5.30331,-3.91434 13.38452,-13.25825 c 0,0 4.79822,-1.6415 1.38896,-2.65165 -3.40927,-1.01015 -7.95495,2.52538 -7.95495,2.52538 0,0 -7.57615,4.04061 -6.9448,-0.25254 0.63134,-4.29315 7.57614,-2.52538 7.57614,-2.52538 l 1.26269,-4.16688 c 0,0 -10.48033,-11.36421 -11.11168,-16.79378 -0.63134,-5.42957 8.71257,-20.32932 13.38452,-23.48605 4.67196,-3.15673 6.9448,-6.31345 10.98541,-6.18719 4.04061,0.12627 9.84899,-1.38896 9.84899,-1.38896 l 3.53553,-1.26269 -0.3788,-8.20749 -1.6415,-3.78807 -8.5863,-1.76776 -2.65165,-1.76777 -2.0203,-2.27284 0.50507,-4.9245 -4.16688,-1.01015 c 0,0 -3.28299,7.57614 -4.67195,6.43972 -1.38896,-1.13642 -6.18719,1.6415 -6.06092,-5.93464 0.12627,-7.57615 -1.26269,-5.42957 -1.26269,-5.42957 l -7.82868,-3.91435 -4.16688,-1.38896 -2.39911,0.25254 -1.89404,-0.63134 0.63135,-5.05077 -10.6066,-5.17703 -6.9448,-1.26269 -4.54569,0.12627 -5.05076,-3.6618 -5.42957,-4.41942 -3.15673,-0.75761 -1.26269,-0.37881 -1.89403,-0.75762 -1.38896,-2.65165 -1.01016,-1.51522 c 0,0 1.6415,-0.63135 -1.13642,-0.37881 -2.77792,0.25254 -4.79822,2.77792 -4.79822,2.77792 l -1.6415,2.39911 c 0,0 6.06091,4.29315 5.93465,5.68211 -0.12627,1.38896 -1.2627,6.56599 -3.91435,6.9448 -2.65165,0.3788 4.04061,7.82868 4.04061,7.82868 0,0 -4.16688,13.76333 -6.43972,13.63706 -2.27284,-0.12627 -11.23795,1.38896 -10.35406,-0.37881 0.88388,-1.76777 5.17703,-2.14657 4.67195,-3.53553 -0.50507,-1.38896 1.51523,-5.3033 -4.04061,-4.67196 -5.55584,0.63135 -2.90419,6.56599 -11.61675,2.77792 -8.71257,-3.78807 -9.84899,-4.16688 -9.84899,-4.16688 l -3.91434,-0.3788 -7.07107,8.83883 c 0,0 -14.14213,-6.69226 -17.67767,-3.78807 -3.53553,2.90419 5.55584,-4.54569 5.55584,-4.54569 l 2.27285,-7.3236 0.3788,-3.53554 -0.3788,-5.17703 -1.76777,-4.79822 -4.67196,-0.37881 c 0,0 -6.81853,4.04061 -8.71256,3.91434 -1.89404,-0.12627 -5.05077,-0.50508 -6.31346,0 -1.26269,0.50508 -4.16688,1.38896 -4.16688,1.38896 0,0 -0.88388,-0.88388 -5.80837,-1.01015 -4.9245,-0.12627 -6.43973,3.03045 -6.43973,3.03045 0,0 -3.15672,2.90419 -4.67195,2.90419 -1.51523,0 -2.52538,1.38896 -2.52538,1.38896 l -6.56599,-2.77792 -8.20749,-5.55584 -2.52538,-2.39911 -1.51523,-1.13642 z"
       id="orissa"
       inkscape:connector-curvature="0"
       inkscape:label="#path3055" />
    <path
       style="fill:#7f51a5;stroke:#000000;stroke-width:1;stroke-linecap:butt;stroke-linejoin:miter;stroke-opacity:1;fill-opacity:1;stroke-miterlimit:4;stroke-dasharray:6,1;stroke-dashoffset:0"
       d="m 585.71429,11.826463 2.5,1.428572 -0.53572,2.678571 -1.78571,1.607143 0.89286,3.571428 2.85714,2.321429 2.85714,0.357143 2.14286,2.321428 -1.42857,3.75 -1.60714,2.678572 0.17857,0.535714 2.5,0.535715 1.78571,1.25 0.71429,1.607142 0.89285,1.428572 1.07143,2.321428 -0.35714,1.964286 0.17857,3.571429 0.89286,0.178571 2.85714,1.071429 3.21429,1.428571 0.35714,1.785714 1.78571,-2.857142 2.67858,0 0.71428,2.142857 0,3.035714 -0.17857,1.785714 4.64286,2.678572 3.39285,1.964285 1.96429,3.750001 -0.89286,1.607142 -7.5,0.892858 -2.85714,-0.178572 -4.28571,-1.607143 -3.75,0.357143 -0.35715,4.821429 -0.35714,1.785714 -8.21429,-0.357143 -2.67857,3.571429 2.67857,3.035714 4.82143,0 8.75,3.928571 2.5,3.035715 -0.17857,4.107143 -2.67857,2.5 -5.35714,-0.892858 -1.42857,2.142858 0.89285,4.821428 3.57143,3.750001 4.82143,2.14286 3.57143,4.46428 3.21428,2.32143 8.39286,1.42857 9.46429,8.39286 1.07143,4.46429 -2.14286,1.96428 -3.92857,-0.35714 -5.35715,-1.96429 -3.21428,-0.17857 -2.14286,1.25 -1.60714,0.89286 -5.35714,0.53571 -1.60715,-0.71428 -2.14285,-1.60715 -2.5,0.71429 -1.42858,2.14286 0.17858,3.39285 -5.71429,3.75 -6.25,4.82143 -0.71429,3.21429 0.71429,1.96428 -4.64286,1.78572 -3.03571,1.42857 -3.21429,-0.35714 -3.75,2.85714 -8.03571,4.64286 -6.42857,3.57143 -1.07143,4.64285 -0.17857,5.17857 -0.89286,6.96429 1.96429,5.89286 0.35714,3.03571 2.32143,3.39286 2.85714,4.10714 3.92857,3.92857 1.07143,5.53572 -0.35714,3.75 7.14285,2.67857 11.25,-1.96429 c 0,0 3.39286,2.32143 8.57143,-3.75 5.17857,-6.07143 5.17857,-4.64285 5.17857,-4.64285 0,0 -0.71428,10.35714 5.89286,9.46428 6.60714,-0.89286 3.57143,0.35714 3.57143,0.35714 l 0.53572,-2.85714 4.77678,-1.51786 2.90179,2.67857 -1.11607,5.22322 12.72321,9.28571 1.33929,-7.05357 c 0,0 0.9375,-2.90178 2.58928,-2.41071 1.65179,0.49107 3.03572,0.53571 4.01786,0.35714 0.98214,-0.17857 8.79464,-5.44643 8.79464,-5.44643 l 2.32143,1.96429 3.16964,0.9375 1.25,3.66071 4.15179,2.41072 3.75,-3.30358 3.88393,0.22322 5.3125,-4.375 2.90178,0.58036 4.33036,-4.0625 3.57143,-1.60715 3.79464,-0.0446 4.6875,-1.07143 3.25893,-1.25 5.08929,-1.65178 0,-7.00893 2.54464,-3.61607 3.57143,-2.5 3.4375,-2.00893 3.92857,1.20535 2.67857,4.10715 0.80357,0.625 3.34822,-1.38393 1.25,-2.23214 1.875,2.36607 3.21428,0.0446 1.38393,5.625 5.08929,3.83929 4.55357,-1.78572 0.9375,1.78572 0.49107,5.17857 8.97321,7.72321 2.90179,-0.44643 0.22321,-7.76785 4.15179,-3.125 1.11607,-1.65179 1.47321,-3.61607 6.42858,3.66071 3.61607,-3.75 4.24107,3.03572 4.19643,-0.26786 0.80357,-3.25893 3.21428,-2.05357 3.83929,0 2.27679,-2.41071 -0.17858,-5.35715 1.5625,-5.49107 1.96429,-8.66071 0.26786,-3.92857 2.00893,-5.40179 5.22321,-1.20536 2.32143,-7.1875 3.08036,-1.47321 5.26785,1.83036 0.26786,-3.52679 2.99107,-1.83036 0.44643,-5.9375 12.05357,5.26786 2.54465,2.58929 1.38392,1.78571 2.85715,-4.19643 0.26785,-1.69643 -1.875,-1.02678 -2.54464,-2.1875 -1.20536,-2.36607 2.05357,-3.57143 1.51786,-0.71429 3.39286,-4.64286 2.94643,-2.14285 1.875,0.44643 4.91071,3.03571 c 0,0 1.96429,-0.17857 1.78572,-0.53571 -0.17858,-0.35715 -0.625,-2.23215 -0.625,-2.23215 l -1.69643,-1.875 -1.60715,-1.60714 0.71429,-3.03571 -0.44643,-0.625 -1.33928,-1.51786 0.71428,-3.57143 -5.625,-3.39286 -2.05357,-3.03571 -0.53571,-3.21429 -5.26786,-1.875 0.0893,-6.339283 2.05358,-4.910714 4.91071,-0.446429 1.60714,-0.982142 0.44643,-5.089286 4.82143,-1.964286 8.57143,-8.214286 3.57143,-5 -1.16072,-1.339285 -2.41071,-0.357143 0.17857,-2.142857 1.16071,-0.357143 0.71429,-0.892857 -1.33929,-1.696429 -2.5,-1.071429 0,-3.303571 -0.98214,-1.25 -2.23214,2.5 -2.14286,0.625 -1.51786,5.446429 -1.60714,1.875 -2.67857,2.053571 -3.66071,-2.232143 -3.03572,-4.732143 -2.76786,0.803572 -6.07142,2.946428 -8.83929,4.017857 -6.33929,-3.839285 -5.26785,1.339285 -3.83929,4.910715 -6.69643,-2.053572 -6.60714,-0.982143 -3.21429,-8.035714 -2.32142,-1.785714 -10.35715,9.107143 -4.73214,-1.25 c 0,0 -1.96429,3.571428 -2.32143,3.660714 C 760.53572,71.558606 757.5,69.147891 757.5,69.147891 l -7.76785,-3.125 -12.5,-7.857142 -5.80357,2.142857 -2.85715,0.446428 -4.64285,-2.232143 -2.58929,-1.696428 -5.17857,0.535714 -6.69643,5.625 -6.875,-3.125 -2.67857,-0.892857 -0.17857,-12.678572 -4.82143,-2.321428 -2.76786,-0.267857 -3.03571,0.714285 -2.94643,2.053572 -3.92857,4.821428 -2.94643,1.250001 -3.30357,-0.08929 c 0,0 -2.94643,0.178571 -3.39286,0.178571 -0.44643,0 -5.26786,-1.875 -5.26786,-1.875 l -0.89285,-5 -3.48215,0.178572 -4.46428,1.696428 -1.78572,-2.142857 -0.98214,-2.410714 -4.375,-4.375 -14.10714,-2.678572 -3.48215,-0.714285 0.71429,-2.767858 1.51786,-2.5 0,-4.285714 0.80357,-3.571429 -4.01786,-6.339285 -1.875,-0.982143 -14.01786,0.357143 -5.08928,-2.321429 -0.625,-4.5535713 -2.14286,-0.4464286 -1.25,2.0535715 -3.83929,-4.0178572 -1.96428,0 -3.39286,3.8392857 -4.73214,0.7142859 -3.21429,-0.357143 -2.23214,-1.3392857 -2.67857,0.625 z"
       id="bihar"
       inkscape:connector-curvature="0"
       inkscape:label="#path3825" />
    <path
       style="fill:#cf8561;stroke:#000000;stroke-width:1;stroke-linecap:butt;stroke-linejoin:miter;stroke-opacity:1;fill-opacity:1;stroke-miterlimit:4;stroke-dasharray:4, 1;stroke-dashoffset:0"
       d="m 21.25,993.25504 2.321429,9.46426 5.892857,11.7857 7.321428,18.9286 1.964286,5.1786 2.678572,1.25 2.321428,0.1786 3.392857,8.2142 2.678572,3.3929 1.607143,0.8929 1.428571,-0.3572 1.785714,2.8572 0.535715,2.5 2.321428,1.7857 2.321429,2.6785 1.071428,0.7143 c 0,0 2.678572,1.7857 1.964286,-2.8571 -0.714286,-4.6429 0.892857,-4.6429 2.5,-2.6786 1.607143,1.9643 2.321429,5.5357 1.25,6.9643 -1.071428,1.4286 -3.75,2.8571 -3.75,2.8571 l 0.535714,4.6429 0.714286,1.4286 -0.178571,1.6071 0.892857,1.9643 4.821428,3.0357 2.857143,8.3929 c 0,0 9.642858,17.3214 8.571429,25.8928 -1.071429,8.5715 3.214286,10 3.214286,10 0,0 2.321428,-6.0714 3.928571,-6.0714 1.607143,0 1.428572,4.8214 -1.964286,7.8571 -3.392857,3.0358 5.714286,20.3572 5.714286,20.3572 l 7.857143,16.0714 -0.535714,3.75 0.714285,0.7143 2.32143,0.7143 1.07143,-3.3929 2.14285,0.3572 0.17858,2.5 -1.78572,1.6071 0.35714,2.5 2.85715,2.3214 2.5,10.5358 5.53571,4.8214 -0.35714,10.7143 2.5,1.7857 -0.35714,3.2143 2.32142,1.7857 -0.53571,4.8214 3.03571,0 0,3.3929 -4.46428,0 -5.71429,-3.0357 1.42857,-4.8215 c 0,0 1.25,-2.1428 1.25,-3.0357 0,-0.8928 -1.96428,-4.8214 -1.96428,-4.8214 l -0.53572,-4.8214 0.89286,-1.7858 -1.25,-2.6785 -4.10714,-5.5357 -2.5,-6.9643 -0.71429,-2.6786 -2.5,-4.8214 -1.07143,0.8928 3.21429,10.7143 3.03571,20 2.14286,16.6072 9.46429,22.8571 6.07143,15.1786 0.53571,1.7857 3.75,1.9643 3.92857,8.3928 11.25,12.5 14.82143,16.6072 3.03572,-0.3572 1.96428,-1.7857 0.35714,0 -2.14285,-4.6428 4.28571,-3.3929 0.53572,-3.3929 3.39285,-0.7142 1.07143,-3.75 -3.75,-6.25 -2.14286,-2.6786 1.25,-4.2857 3.75,-2.5 0,-5 -5.89285,-8.9286 -0.17857,-2.8571 4.10714,-3.3929 3.92857,-5.5357 1.42857,-6.7857 4.46429,-10.5357 3.39285,-3.5715 0.35715,-3.2143 -3.92857,-3.3928 -9.46429,-1.7857 -2.5,-2.1429 3.57143,-7.5 0.53571,-5.8928 0.35715,-7.3215 1.78571,-3.2143 -2.67857,-6.4285 -1.07143,-3.0357 3.39286,-1.0715 c 0,0 1.25,0 1.60714,-0.7143 0.35714,-0.7142 0.53571,-5.8928 0.53571,-5.8928 l -4.28571,-9.2857 -5.17857,-0.1786 -8.57143,6.9643 -3.92857,1.25 -6.07143,-1.7857 -2.32143,-6.6072 -0.17857,-8.9285 -0.71429,-10.8929 3.57143,-0.8929 1.78572,-4.4642 1.25,-4.4643 -3.92857,-2.1429 -0.53572,-2.1428 -2.67857,-3.5715 -9.46429,-1.4285 2.14286,-7.5 6.42857,0.5357 0.17857,-3.2143 -5,-4.6429 1.07143,-4.4643 1.42857,-0.8928 -5.35714,-0.5357 -1.42857,2.6785 -8.03572,-0.5357 -3.03571,-1.9643 0.89286,-1.7857 4.10714,-2.5 -0.17857,-3.9285 -6.42857,-4.4643 -6.96429,-2.3215 -3.92857,-0.3571 c 0,0 -3.57143,-3.5714 -3.03571,-5.3571 0.53571,-1.7858 1.78571,-2.6786 1.78571,-2.6786 l 5,-0.3572 5.89286,-3.2142 0,-3.9286 -0.89286,-2.1429 1.60714,-1.9643 -6.25,-0.7142 -11.07143,-9.6429 c 0,0 -2.499995,1.25 -2.857138,0.5357 C 98.571429,1050.2193 100,1046.8265 100,1046.8265 l -4.642857,-0.8929 -7.5,2.1429 c 0,0 -7.142857,-3.75 -8.214285,-6.9643 C 78.571429,1037.8979 77.5,1035.5765 77.5,1035.5765 l -6.25,-0.5357 c 0,0 4.107143,3.0357 -2.321428,-1.7858 C 62.5,1028.4336 58.571429,1022.3622 58.571429,1022.3622 l -3.392857,-0.7143 -1.607143,-3.5714 0,-3.75 -4.642857,-0.3572 5,-3.9285 -1.25,-3.0358 -2.857143,1.0715 -2.142857,1.6071 -2.321429,-4.6428 1.964286,-3.0358 0.535714,-1.4285 -2.142857,-1.25003 -3.392857,1.42853 -1.607143,-0.1785 -0.535714,-1.4286 -2.5,-0.89286 -1.428572,-1.60714 1.428572,-2.32143 -3.75,-1.07143 -2.142858,2.5 -1.428571,1.60714 L 30,992.54075 l -4.821428,-0.35714 -2.857143,0.89286 z"
       id="kerala"
       inkscape:connector-curvature="0"
       inkscape:label="#path3827" />
  </g>
</svg>
