<?xml version="1.0" encoding="UTF-8" standalone="no"?>
<!-- Created with Inkscape (http://www.inkscape.org/) -->

<svg
   xmlns:osb="http://www.openswatchbook.org/uri/2009/osb"
   xmlns:dc="http://purl.org/dc/elements/1.1/"
   xmlns:cc="http://creativecommons.org/ns#"
   xmlns:rdf="http://www.w3.org/1999/02/22-rdf-syntax-ns#"
   xmlns:svg="http://www.w3.org/2000/svg"
   xmlns="http://www.w3.org/2000/svg"
   xmlns:xlink="http://www.w3.org/1999/xlink"
   xmlns:sodipodi="http://sodipodi.sourceforge.net/DTD/sodipodi-0.dtd"
   xmlns:inkscape="http://www.inkscape.org/namespaces/inkscape"
   width="744.09448819"
   height="1052.3622047"
   id="svg2"
   version="1.1"
   inkscape:version="0.48.3.1 r9886"
   sodipodi:docname="favicon.svg">
  <defs
     id="defs4">
    <linearGradient
       id="linearGradient3771"
       osb:paint="gradient">
      <stop
         style="stop-color:#dddddd;stop-opacity:1;"
         offset="0"
         id="stop3773" />
      <stop
         style="stop-color:#000000;stop-opacity:0;"
         offset="1"
         id="stop3775" />
    </linearGradient>
    <linearGradient
       id="linearGradient3755">
      <stop
         style="stop-color:#aab2d5;stop-opacity:1;"
         offset="0"
         id="stop3767" />
      <stop
         style="stop-color:#a2abd1;stop-opacity:1;"
         offset="1"
         id="stop3759" />
    </linearGradient>
    <radialGradient
       inkscape:collect="always"
       xlink:href="#linearGradient3755"
       id="radialGradient3761"
       cx="434.28571"
       cy="533.79077"
       fx="434.28571"
       fy="533.79077"
       r="290.57368"
       gradientUnits="userSpaceOnUse" />
  </defs>
  <sodipodi:namedview
     id="base"
     pagecolor="#ffffff"
     bordercolor="#666666"
     borderopacity="1.0"
     inkscape:pageopacity="0.0"
     inkscape:pageshadow="2"
     inkscape:zoom="0.7"
     inkscape:cx="-78.79724"
     inkscape:cy="543.77685"
     inkscape:document-units="px"
     inkscape:current-layer="layer1"
     showgrid="false"
     inkscape:window-width="1280"
     inkscape:window-height="800"
     inkscape:window-x="0"
     inkscape:window-y="0"
     inkscape:window-maximized="0" />
  <metadata
     id="metadata7">
    <rdf:RDF>
      <cc:Work
         rdf:about="">
        <dc:format>image/svg+xml</dc:format>
        <dc:type
           rdf:resource="http://purl.org/dc/dcmitype/StillImage" />
        <dc:title />
      </cc:Work>
    </rdf:RDF>
  </metadata>
  <g
     inkscape:label="Layer 1"
     inkscape:groupmode="layer"
     id="layer1">
    <path
       sodipodi:type="arc"
       style="fill-opacity:1;fill-rule:evenodd;stroke:url(#radialGradient3761);stroke-width:35.43307114000000269;stroke-linecap:butt;stroke-linejoin:miter;stroke-miterlimit:4;stroke-opacity:1;stroke-dasharray:none;fill:#d9d9e1"
       id="path2985"
       sodipodi:cx="434.28571"
       sodipodi:cy="533.79077"
       sodipodi:rx="272.85715"
       sodipodi:ry="272.85715"
       d="m 707.14285,533.79077 a 272.85715,272.85715 0 1 1 -545.71429,0 272.85715,272.85715 0 1 1 545.71429,0 z"
       transform="translate(-67.142851,-61.428572)" />
    <path
       style="fill:#7878f2;stroke:none;stroke-width:1px;stroke-linecap:butt;stroke-linejoin:miter;stroke-opacity:1;fill-opacity:1"
       d="m 182.26452,312.23774 c 0,0 -27.2676,39.19272 21.58808,41.41965 48.85568,2.22693 48.75354,0.80201 48.75354,0.80201 l 16.8127,74.7034 55.58178,36.11848 25.44419,-4.68833 43.56457,8.33514 1.42995,19.94882 3.87123,14.04488 -17.50251,15.57696 c 0,0 -24.9335,11.81291 -26.35338,31.96601 -1.41988,20.15309 6.73111,53.9425 27.3949,62.48696 20.66379,8.54446 55.16315,-9.68309 72.06289,6.29237 16.89974,15.97545 12.83934,59.23361 12.83934,59.23361 l -13.22273,35.3215 c 0,0 78.87098,-38.59499 72.25206,-51.01068 -6.61891,-12.41568 -4.90772,-88.44688 -4.90772,-88.44688 l -1.42491,0.10214 30.11241,-59.44796 0,0 -3.57488,-49.87204 -57.91587,-8.73867 -78.67173,21.39386 -18.84039,-43.04884 19.02454,-34.30515 7.81941,-70.74011 c 0,0 17.39534,-37.05283 57.81374,7.31376 40.41838,44.36659 20.54151,-73.08428 20.54151,-73.08428 l -49.96914,22.20091 -97.92068,-27.35464 -33.49306,-27.67616 c 0,0 5.80684,21.06732 -66.45026,52.02704 -72.25709,30.95971 -66.65958,29.12624 -66.65958,29.12624 z"
       id="path3819"
       inkscape:connector-curvature="0" />
    <path
       style="fill:#93f644;fill-opacity:1;stroke:none"
       d="m 252.88246,348.19805 c -2.26154,64.19454 52.01574,85.5927 52.01574,85.5927 l 97.24677,-15.56231 13.56932,-75.86625 -104.03144,5.83586 z"
       id="path3821"
       inkscape:connector-curvature="0"
       sodipodi:nodetypes="cccccc" />
  </g>
</svg>
